<svg width="69" height="69" viewBox="0 0 69 69" fill="none" xmlns="http://www.w3.org/2000/svg">
<path d="M69 34.5C69 53.5538 53.5538 69 34.5 69C15.4462 69 0 53.5538 0 34.5C0 15.4462 15.4462 0 34.5 0C53.5538 0 69 15.4462 69 34.5Z" fill="#F2F0E8"/>
<path d="M19.8207 21.9423L33.4391 35.5607L35.5604 33.4394L21.942 19.8209L19.8207 21.9423ZM33.4391 35.5607L47.0575 49.1791L49.1789 47.0578L35.5604 33.4394L33.4391 35.5607ZM21.942 49.1791L35.5604 35.5607L33.4391 33.4394L19.8207 47.0578L21.942 49.1791ZM35.5604 35.5607L49.1789 21.9423L47.0575 19.8209L33.4391 33.4394L35.5604 35.5607Z" fill="#212322"/>
</svg>
