<?xml version="1.0" standalone="yes"?>
<svg width="202" height="27" viewBox="0 0 202 27" fill="none" xmlns="http://www.w3.org/2000/svg">
<g clip-path="url(#clip0)">
<path d="M80.713 0C80.094 0.000297714 79.5923 0.507361 79.5923 1.13271V19.1601C79.5923 19.7854 80.0944 20.2928 80.7136 20.2928H87.2254L89.8732 24.9271L92.521 20.2928H98.8412C99.4603 20.2928 99.9625 19.7856 99.9625 19.1601V1.13271C99.9625 0.507361 99.4605 0 98.8412 0H80.713ZM86.9848 6.51889C87.1255 6.51889 87.2587 6.54375 87.3843 6.59448C87.5099 6.65031 87.6179 6.72657 87.7084 6.823C87.8038 6.91943 87.8793 7.02859 87.9346 7.15037C87.9898 7.27726 88.0175 7.41428 88.0175 7.56147C88.0175 7.70354 87.9898 7.83812 87.9346 7.96501C87.8793 8.09695 87.8038 8.21107 87.7084 8.3075C87.6179 8.40393 87.5099 8.48021 87.3843 8.53602C87.2587 8.59185 87.1255 8.61975 86.9848 8.61975C86.8391 8.61975 86.7034 8.59185 86.5779 8.53602C86.4523 8.48021 86.3418 8.40393 86.2463 8.3075C86.1559 8.21107 86.0834 8.09695 86.0282 7.96501C85.9729 7.83812 85.9453 7.70354 85.9453 7.56147C85.9453 7.41428 85.9729 7.27726 86.0282 7.15037C86.0834 7.02859 86.1559 6.91943 86.2463 6.823C86.3418 6.72657 86.4523 6.65031 86.5779 6.59448C86.7034 6.54376 86.8391 6.51889 86.9848 6.51889ZM92.7196 6.51889C92.8603 6.51889 92.9935 6.54375 93.1191 6.59448C93.2497 6.65031 93.3602 6.72657 93.4506 6.823C93.5461 6.91943 93.621 7.02859 93.6763 7.15037C93.7315 7.27726 93.7597 7.41428 93.7597 7.56147C93.7597 7.70354 93.7316 7.83812 93.6763 7.96501C93.621 8.09695 93.5461 8.21107 93.4506 8.3075C93.3602 8.40393 93.2497 8.48021 93.1191 8.53602C92.9935 8.59185 92.8603 8.61975 92.7196 8.61975C92.579 8.61975 92.4457 8.59185 92.3201 8.53602C92.1946 8.48021 92.084 8.40393 91.9886 8.3075C91.8982 8.21107 91.8251 8.09695 91.7698 7.96501C91.7146 7.83812 91.687 7.70354 91.687 7.56147C91.687 7.41428 91.7146 7.27726 91.7698 7.15037C91.8251 7.02859 91.8982 6.91943 91.9886 6.823C92.084 6.72657 92.1946 6.65031 92.3201 6.59448C92.4457 6.54376 92.579 6.51889 92.7196 6.51889ZM84.6599 10.8578C84.7554 10.8578 84.8511 10.8981 84.9466 10.9794C85.047 11.0605 85.1723 11.1622 85.323 11.2841C85.4788 11.4059 85.6697 11.5379 85.8958 11.68C86.1269 11.8272 86.4184 11.9612 86.7701 12.083C87.1268 12.2048 87.5565 12.3065 88.0589 12.3877C88.5663 12.4689 89.1716 12.5098 89.8749 12.5098C90.5783 12.5098 91.1787 12.4689 91.676 12.3877C92.1734 12.3065 92.5952 12.2048 92.9418 12.083C93.2884 11.9612 93.572 11.8272 93.7931 11.68C94.0192 11.5379 94.2077 11.4059 94.3584 11.2841C94.5091 11.1622 94.6349 11.0605 94.7354 10.9794C94.8409 10.8981 94.9489 10.8578 95.0594 10.8578C95.1398 10.8578 95.2 10.8777 95.2402 10.9183C95.2854 10.964 95.3081 11.0427 95.3081 11.1544C95.3081 11.2812 95.2351 11.4437 95.0894 11.6417C94.9487 11.8447 94.7504 12.058 94.4942 12.2813C94.238 12.5046 93.9365 12.7278 93.5899 12.9511C93.2483 13.1744 92.8738 13.3747 92.4669 13.5524C92.06 13.7351 91.6333 13.8821 91.1862 13.9937C90.7441 14.1054 90.2966 14.1612 89.8444 14.1612C89.3923 14.1612 88.9429 14.1054 88.4958 13.9937C88.0537 13.8871 87.6295 13.7451 87.2225 13.5675C86.8207 13.395 86.4462 13.1971 86.0995 12.9738C85.7579 12.7505 85.459 12.5248 85.2027 12.2964C84.9516 12.0731 84.7557 11.8548 84.615 11.6417C84.4694 11.4336 84.3963 11.2562 84.3963 11.109C84.3963 11.0431 84.4166 10.9848 84.4567 10.934C84.4919 10.8833 84.5595 10.8578 84.6599 10.8578Z" fill="white"/>
<path d="M111.104 25.2622C114.492 25.2622 117.129 23.3569 118.264 20.1462L114.981 18.8937C114.44 20.7284 112.973 21.9456 111.069 21.9456C107.839 21.9456 106.529 19.1407 106.529 16.1417C106.529 13.1956 107.856 10.2848 111.069 10.2848C112.973 10.2848 114.422 11.5373 115.016 13.3897L118.439 12.0489C117.129 8.66183 114.44 6.96828 111.069 6.96828C105.533 6.96828 102.862 11.5197 102.862 16.1417C102.862 20.9224 105.638 25.2622 111.104 25.2622Z" fill="white"/>
<path d="M128.397 25.2622C133.654 25.2622 137.181 21.0812 137.181 16.0711C137.181 11.0787 133.654 6.96828 128.397 6.96828C123.141 6.96828 119.631 11.0787 119.631 16.0711C119.631 21.0989 123.141 25.2622 128.397 25.2622ZM128.397 22.1044C124.992 22.1044 123.385 19.3171 123.385 16.0711C123.385 12.8428 124.992 10.126 128.397 10.126C131.803 10.126 133.427 12.8604 133.427 16.0711C133.427 19.2995 131.803 22.1044 128.397 22.1044Z" fill="white"/>
<path d="M148.144 6.9685C146.223 6.9685 144.197 7.79715 142.905 9.66711V7.30343H139.307V24.9267H142.905V15.03C142.905 11.837 144.546 10.3375 147.131 10.3375C149.523 10.3375 150.798 12.0842 150.798 14.6951V24.9267H152.366C152.366 24.9258 152.366 24.9249 152.366 24.9237C152.366 24.3823 152.462 23.8699 152.653 23.3863C152.864 22.8835 153.151 22.458 153.515 22.11C153.782 21.8396 154.076 21.6121 154.395 21.4256V14.1479C154.378 10.4256 152.545 6.96843 148.144 6.96843V6.9685Z" fill="white"/>
<path d="M166.628 6.96852C164.655 6.96852 162.804 7.72697 161.721 9.79099V7.30345H158.246L158.26 21.4606C158.576 21.6408 158.862 21.8555 159.114 22.1101C159.478 22.4581 159.765 22.8836 159.976 23.3864C160.186 23.87 160.291 24.3824 160.291 24.9238C160.291 24.9247 160.291 24.9256 160.291 24.9268H161.878V14.9952C161.878 12.402 163.397 10.3731 165.912 10.3731C168.322 10.3731 169.16 12.1727 169.16 14.6248V24.9268H172.776V14.9952C172.776 12.402 174.295 10.3731 176.774 10.3731C179.254 10.3731 180.058 12.2256 180.058 14.8894V24.9268H183.672V14.4306C183.672 10.4437 181.839 6.96859 177.49 6.96859C175.22 6.96859 173.125 7.95608 171.85 10.3376C170.907 7.86788 168.794 6.96859 166.628 6.96859L166.628 6.96852Z" fill="white"/>
<path d="M194.386 25.2622C197.267 25.2622 199.468 24.2743 201.389 22.1573L198.909 19.9522C197.564 21.4164 196.15 21.9456 194.403 21.9456C191.4 21.9456 189.898 20.111 189.584 17.2531H201.86C201.93 17.0061 202 16.2828 202 15.6125C202 11.8196 200.079 6.96828 194.089 6.96828C188.466 6.96828 185.777 11.4668 185.777 16.1946C185.777 21.0283 188.623 25.2622 194.386 25.2622ZM189.584 14.6069C189.95 11.9607 191.33 10.0378 194.054 10.0378C196.464 10.0378 197.983 11.5021 198.333 13.4955C198.42 13.8483 198.455 14.2188 198.437 14.6069H189.584Z" fill="white"/>
<path d="M0 24.927H3.6673V15.6301C3.6673 12.5605 5.11675 10.2848 7.96325 10.2848C10.705 10.2848 11.4908 12.1901 11.4908 14.6951V24.927H15.1581V14.1482C15.1232 10.4259 13.2372 6.96827 8.83642 6.96827C6.91546 6.96827 4.95958 7.7974 3.6673 9.66737V0H0V24.927Z" fill="white"/>
<path d="M25.6403 6.96828C22.3223 6.96828 20.1569 8.41485 18.4804 10.7611L21.2396 12.7722C22.1302 11.308 23.5622 10.1613 25.6578 10.1613C28.7139 10.1613 29.6394 11.5021 29.7093 14.5363H24.8545C20.7681 14.5363 17.7993 15.8594 17.7993 19.617C17.7993 23.1982 20.4537 25.2622 24.0337 25.2622C26.2166 25.2622 28.5916 24.239 29.7617 22.175L30.0061 24.927H32.9923V14.2012C32.9923 9.86143 30.303 6.96828 25.6403 6.96828ZM24.7497 22.1573C22.6017 22.1573 21.5015 21.1694 21.5015 19.7228C21.5015 18.2763 22.6366 17.1825 25.064 17.1825H29.7093V17.7294C29.3425 20.111 27.5787 22.1573 24.7497 22.1573Z" fill="white"/>
<path d="M45.2044 25.2622C49.9894 25.2622 52.6613 21.0283 52.6613 16.1064C52.6613 11.1669 49.9894 6.96826 45.1521 6.96826C42.9866 6.96826 40.9783 7.90324 39.8083 9.77321V0H36.0886V24.927H39.8083V22.4396C40.9783 24.3272 43.0739 25.2622 45.2044 25.2622ZM44.3138 21.8927C41.153 21.8927 39.4765 19.4053 39.4765 16.1064C39.4765 12.8251 41.153 10.2848 44.3138 10.2848C47.4921 10.2848 49.0114 12.8604 49.0114 16.1064C49.0114 19.37 47.4921 21.8927 44.3138 21.8927Z" fill="white"/>
<path d="M58.9875 25.2622V0H55.3906V21.3458C55.3906 24.2566 56.8221 25.2622 58.9875 25.2622Z" fill="white"/>
<path d="M69.341 6.96828C66.023 6.96828 63.8575 8.41485 62.1811 10.7611L64.9403 12.7722C65.8309 11.308 67.2629 10.1613 69.3585 10.1613C72.4146 10.1613 73.3401 11.5021 73.4099 14.5363H68.5552C64.4687 14.5363 61.5 15.8594 61.5 19.617C61.5 23.1982 64.1544 25.2622 67.7344 25.2622C69.9173 25.2622 72.2923 24.239 73.4623 22.175L73.7068 24.927H76.6931V14.2012C76.6931 9.86143 74.0037 6.96828 69.341 6.96828ZM68.4504 22.1573C66.3024 22.1573 65.2022 21.1694 65.2022 19.7228C65.2022 18.2763 66.3373 17.1825 68.7647 17.1825H73.4099V17.7294C73.0432 20.111 71.2794 22.1573 68.4504 22.1573Z" fill="white"/>
<path d="M158.406 24.9169C158.406 25.2007 158.351 25.4694 158.24 25.7229C158.13 25.9762 157.979 26.1992 157.789 26.3919C157.598 26.5743 157.372 26.7213 157.111 26.8329C156.86 26.9443 156.595 27 156.314 27C156.023 27 155.752 26.9443 155.501 26.8329C155.26 26.7213 155.044 26.5743 154.854 26.3919C154.663 26.1992 154.512 25.9762 154.402 25.7229C154.302 25.4694 154.251 25.2007 154.251 24.9169C154.251 24.6331 154.302 24.3645 154.402 24.111C154.512 23.8474 154.663 23.6244 154.854 23.442C155.044 23.2493 155.26 23.0973 155.501 22.9859C155.752 22.8743 156.023 22.8185 156.314 22.8185C156.595 22.8185 156.86 22.8743 157.111 22.9859C157.372 23.0973 157.598 23.2493 157.789 23.442C157.979 23.6244 158.13 23.8474 158.24 24.111C158.351 24.3645 158.406 24.6331 158.406 24.9169Z" fill="white"/>
</g>
<defs>
<clipPath id="clip0">
<rect width="202" height="27" fill="white"/>
</clipPath>
</defs>
</svg>
