<svg width="69" height="69" viewBox="0 0 69 69" fill="none" xmlns="http://www.w3.org/2000/svg">
<path d="M22.2539 20.7854V24.3296H22.0718C20.3781 24.3296 19 25.7073 19 27.4011V27.5635L19.0242 27.724L20.0926 34.7958V34.8155V46.0534C20.0926 47.7471 21.4705 49.1249 23.1644 49.1249H45.8356C47.5293 49.1249 48.9074 47.747 48.9074 46.0534V34.8155V34.7958L49.9758 27.724L50 27.5635V27.4011C50 25.7073 48.6219 24.3296 46.9282 24.3296H46.7461V20.7854C46.7461 20.2829 46.3384 19.8752 45.8356 19.8752H23.1644C22.6617 19.8752 22.2539 20.2829 22.2539 20.7854ZM24.4152 22.0366H44.5846V24.3296H24.4152V22.0366ZM46.9282 26.4909C47.4311 26.4909 47.8387 26.8985 47.8387 27.4011L46.7459 34.6334V34.8155V40.5904V46.0534C46.7459 46.5559 46.3383 46.9636 45.8354 46.9636H23.1644C22.6616 46.9636 22.2539 46.5559 22.2539 46.0534V40.5904V34.8155V34.6334L21.1613 27.4011C21.1613 26.8985 21.5691 26.4909 22.0718 26.4909H46.9282ZM27.01 39.4193L27.0111 39.3766L27.1058 39.0926H29.0566V39.3808C29.0566 39.8494 29.2208 40.2328 29.5587 40.5532C29.9009 40.8774 30.3361 41.0352 30.8889 41.0352C31.4291 41.0352 31.8383 40.8769 32.1402 40.5511C32.4478 40.2188 32.5974 39.7906 32.5974 39.2416C32.5974 38.6137 32.4582 38.146 32.1834 37.8517C31.914 37.5634 31.4653 37.417 30.8502 37.417H29.3083V35.6566H30.8502C31.4384 35.6566 31.8494 35.521 32.0721 35.2536C32.3076 34.9703 32.4271 34.5544 32.4271 34.0177C32.4271 33.5183 32.3 33.1313 32.0385 32.8345C31.7865 32.5488 31.4104 32.4099 30.8888 32.4099C30.3723 32.4099 29.9599 32.5626 29.6282 32.8765C29.3007 33.1862 29.1416 33.5644 29.1416 34.0331V34.3213H27.2205L27.0892 34.0589L27.0873 33.9957C27.0588 33.0649 27.4138 32.2609 28.1424 31.6056C28.8595 30.9608 29.7835 30.634 30.8889 30.634C32.0042 30.634 32.8968 30.9253 33.5417 31.5002C34.1963 32.0839 34.5282 32.9412 34.5282 34.0488C34.5282 34.6282 34.3737 35.1645 34.069 35.643C33.8605 35.9703 33.5933 36.2502 33.2711 36.4792C33.6586 36.7122 33.9724 37.0134 34.2076 37.3794C34.5332 37.8865 34.6983 38.5026 34.6983 39.2108C34.6983 40.3233 34.3367 41.2117 33.6236 41.8513C32.9194 42.4832 31.9993 42.8035 30.8888 42.8035C29.8681 42.8035 28.956 42.498 28.1779 41.8956C27.3745 41.274 26.9814 40.4409 27.01 39.4193ZM38.9668 32.7839L36.5135 32.8071V31.0805L41.0755 30.6021V42.6409H38.9668V32.7839Z" fill="#212322"/>
</svg>
