<svg width="31" height="31" viewBox="0 0 31 31" fill="none" xmlns="http://www.w3.org/2000/svg">
<path d="M3.25393 1.78545V5.32957H3.0718C1.37805 5.32957 0 6.70733 0 8.40108V8.56347L0.0242067 8.72398L1.09262 15.7958V15.8155V27.0534C1.09262 28.7471 2.47052 30.1249 4.16442 30.1249H26.8356C28.5293 30.1249 29.9074 28.747 29.9074 27.0534V15.8155V15.7958L30.9758 8.72398L31 8.56347V8.40108C31 6.70733 29.6219 5.32957 27.9282 5.32957H27.7461V1.78545C27.7461 1.28287 27.3384 0.875244 26.8356 0.875244H4.16442C3.6617 0.875244 3.25393 1.28287 3.25393 1.78545ZM5.41524 3.03656H25.5846V5.32957H5.41524V3.03656ZM27.9282 7.49088C28.4311 7.49088 28.8387 7.8985 28.8387 8.40108L27.7459 15.6334V15.8155V21.5904V27.0534C27.7459 27.5559 27.3383 27.9636 26.8354 27.9636H4.16442C3.66155 27.9636 3.25393 27.5559 3.25393 27.0534V21.5904V15.8155V15.6334L2.16131 8.40108C2.16131 7.8985 2.56908 7.49088 3.0718 7.49088H27.9282ZM8.00997 20.4193L8.01112 20.3766L8.10579 20.0926H10.0566V20.3808C10.0566 20.8494 10.2208 21.2328 10.5587 21.5532C10.9009 21.8774 11.3361 22.0352 11.8889 22.0352C12.4291 22.0352 12.8383 21.8769 13.1402 21.5511C13.4478 21.2188 13.5974 20.7906 13.5974 20.2416C13.5974 19.6137 13.4582 19.146 13.1834 18.8517C12.914 18.5634 12.4653 18.417 11.8502 18.417H10.3083V16.6566H11.8502C12.4384 16.6566 12.8494 16.521 13.0721 16.2536C13.3076 15.9703 13.4271 15.5544 13.4271 15.0177C13.4271 14.5183 13.3 14.1313 13.0385 13.8345C12.7865 13.5488 12.4104 13.4099 11.8888 13.4099C11.3723 13.4099 10.9599 13.5626 10.6282 13.8765C10.3007 14.1862 10.1416 14.5644 10.1416 15.0331V15.3213H8.22048L8.08922 15.0589L8.08734 14.9957C8.05882 14.0649 8.41385 13.2609 9.14235 12.6056C9.85948 11.9608 10.7835 11.634 11.8889 11.634C13.0042 11.634 13.8968 11.9253 14.5417 12.5002C15.1963 13.0839 15.5282 13.9412 15.5282 15.0488C15.5282 15.6282 15.3737 16.1645 15.069 16.643C14.8605 16.9703 14.5933 17.2502 14.2711 17.4792C14.6586 17.7122 14.9724 18.0134 15.2076 18.3794C15.5332 18.8865 15.6983 19.5026 15.6983 20.2108C15.6983 21.3233 15.3367 22.2117 14.6236 22.8513C13.9194 23.4832 12.9993 23.8035 11.8888 23.8035C10.8681 23.8035 9.95602 23.498 9.17794 22.8956C8.37451 22.274 7.98144 21.4409 8.00997 20.4193ZM19.9668 13.7839L17.5135 13.8071V12.0805L22.0755 11.6021V23.6409H19.9668V13.7839Z" fill="#212322"/>
</svg>
