<svg width="14" height="17" viewBox="0 0 14 17" fill="none" xmlns="http://www.w3.org/2000/svg">
<path d="M7 16.5L6.58397 16.7773C6.67671 16.9164 6.83282 17 7 17C7.16718 17 7.32329 16.9164 7.41603 16.7773L7 16.5ZM8.70313 13.9453L8.28711 13.6679L8.70313 13.9453ZM5.29687 13.9453L4.88084 14.2226L5.29687 13.9453ZM1.5 1H12.5V0H1.5V1ZM13 1.5V12.5H14V1.5H13ZM12.5 13H9.53518V14H12.5V13ZM8.28711 13.6679L6.58397 16.2226L7.41603 16.7773L9.11916 14.2226L8.28711 13.6679ZM7.41603 16.2226L5.71289 13.6679L4.88084 14.2226L6.58397 16.7773L7.41603 16.2226ZM4.46482 13H1.5V14H4.46482V13ZM1 12.5V1.5H0V12.5H1ZM1.5 13C1.22386 13 1 12.7761 1 12.5H0C0 13.3284 0.671573 14 1.5 14V13ZM9.53518 13C9.03365 13 8.56531 13.2507 8.28711 13.6679L9.11916 14.2226C9.21189 14.0836 9.36801 14 9.53518 14V13ZM13 12.5C13 12.7761 12.7761 13 12.5 13V14C13.3284 14 14 13.3284 14 12.5H13ZM12.5 1C12.7761 1 13 1.22386 13 1.5H14C14 0.671573 13.3284 0 12.5 0V1ZM5.71289 13.6679C5.43469 13.2507 4.96635 13 4.46482 13V14C4.63199 14 4.78811 14.0836 4.88084 14.2226L5.71289 13.6679ZM1.5 0C0.671573 0 0 0.671573 0 1.5H1C1 1.22386 1.22386 1 1.5 1V0Z" fill="#212322"/>
<circle cx="5" cy="6" r="1" fill="#212322"/>
<circle cx="9" cy="6" r="1" fill="#212322"/>
<path d="M6.99449 10C6.66301 10 6.33335 9.9662 6.00553 9.89862C5.68142 9.83409 5.37016 9.74807 5.0718 9.64055C4.77714 9.53611 4.50277 9.41629 4.24862 9.2811C3.99816 9.14593 3.77899 9.00922 3.59114 8.87097C3.40698 8.73579 3.26333 8.60369 3.1602 8.47468C3.0534 8.34872 3 8.24118 3 8.15208C3 8.11214 3.01472 8.07681 3.04418 8.04609C3.06995 8.01536 3.11969 8 3.19336 8C3.26335 8 3.33334 8.02459 3.40333 8.07375C3.47698 8.1229 3.56903 8.18433 3.67954 8.25807C3.79372 8.33181 3.93369 8.41169 4.09943 8.49771C4.26887 8.58679 4.48251 8.66821 4.74035 8.74195C5.00185 8.81569 5.31677 8.87712 5.68509 8.92627C6.05711 8.97543 6.50091 9.00002 7.01656 9.00002C7.53221 9.00002 7.97238 8.97543 8.33702 8.92627C8.70168 8.87712 9.01108 8.81569 9.2652 8.74195C9.51935 8.66821 9.72747 8.58679 9.88955 8.49771C10.0553 8.41169 10.1934 8.33181 10.3039 8.25807C10.4144 8.18433 10.5064 8.1229 10.5801 8.07375C10.6574 8.02459 10.7366 8 10.8177 8C10.8766 8 10.9208 8.01229 10.9503 8.03688C10.9834 8.06453 11 8.11216 11 8.17974C11 8.25654 10.9466 8.35485 10.8398 8.47468C10.7367 8.59756 10.5912 8.72658 10.4034 8.86175C10.2155 8.99694 9.99449 9.13212 9.74037 9.26729C9.48989 9.40246 9.21549 9.52381 8.91715 9.63135C8.61881 9.74195 8.30571 9.83104 7.97791 9.89862C7.65378 9.9662 7.32598 10 6.99449 10Z" fill="#212322"/>
</svg>
