<svg width="152" height="152" viewBox="0 0 152 152" fill="none" xmlns="http://www.w3.org/2000/svg">
<g clip-path="url(#clip0)">
<path d="M121.888 83.4069V137.455C121.888 144.241 104.271 149.74 82.5405 149.74C76.2996 149.74 70.3966 149.285 65.1555 148.478C52.1426 146.476 43.1934 142.293 43.1934 137.455V83.8377L65.1555 83.718L121.888 83.4069Z" fill="#768590"/>
<path d="M65.1551 83.718V148.477C52.1422 146.476 43.1929 142.293 43.1929 137.455V83.8377L65.1551 83.718Z" fill="#4A5E6E"/>
<path d="M121.888 83.4069V91.6464C110.959 94.2378 97.3264 95.7765 82.5403 95.7765C67.7542 95.7765 54.1223 94.2375 43.1929 91.6464V83.8374L65.155 83.7177L121.888 83.4069Z" fill="#4A5E6E"/>
<path d="M82.5381 87.4058C118.502 87.4058 147.657 78.303 147.657 67.0741C147.657 55.8451 118.502 46.7423 82.5381 46.7423C46.5738 46.7423 17.4189 55.8451 17.4189 67.0741C17.4189 78.303 46.5738 87.4058 82.5381 87.4058Z" fill="#768590"/>
<path d="M82.5398 72.5205C69.5931 72.5205 56.8946 71.2095 46.7836 68.8292C46.7593 68.8236 46.7349 68.8176 46.7103 68.812C44.8798 68.3797 44.8798 65.7663 46.7103 65.3338C46.7346 65.3282 46.759 65.3222 46.7836 65.3166C56.8949 62.9362 69.5931 61.6252 82.5398 61.6252C95.4865 61.6252 108.185 62.9362 118.296 65.3166C118.32 65.3222 118.345 65.3282 118.369 65.3338C120.2 65.766 120.2 68.3794 118.369 68.812C118.345 68.8176 118.321 68.8236 118.296 68.8292C108.185 71.2092 95.4865 72.5205 82.5398 72.5205Z" fill="#4A5E6E"/>
<path d="M112.574 51.3236C112.574 57.8118 112.032 64.1551 110.999 70.2879C108.541 70.7006 105.984 71.0622 103.351 71.3632C100.818 71.6553 98.2158 71.8934 95.565 72.0739C94.3633 72.1582 93.1523 72.2307 91.9354 72.2877C90.6734 65.5344 90.0078 58.5192 90.0078 51.3233C90.0078 33.4405 94.1192 16.684 101.291 2.25885C108.463 16.684 112.574 33.4405 112.574 51.3236Z" fill="white"/>
<path d="M75.1727 51.3241C75.1727 58.52 74.5071 65.5381 73.2418 72.2914C71.9887 72.2341 70.7448 72.159 69.5128 72.0744C66.862 71.8936 64.2596 71.6558 61.7263 71.3637C59.1299 71.0624 56.6088 70.7129 54.184 70.3036C53.1479 64.1678 52.6055 57.8182 52.6055 51.3241C52.6055 33.4413 56.7139 16.6848 63.8858 2.25964C71.058 16.6845 75.1727 33.441 75.1727 51.3241Z" fill="white"/>
<path d="M140.286 26.9889L142.493 26.5412C145.407 25.9504 145.407 21.7861 142.493 21.1957L140.286 20.748C134.724 19.6202 130.377 15.2733 129.25 9.71197L128.802 7.50411C128.211 4.59059 124.047 4.59059 123.456 7.50411L123.009 9.71197C121.881 15.2739 117.534 19.6207 111.973 20.748L109.765 21.1957C106.851 21.7864 106.851 25.9507 109.765 26.5412L111.973 26.9889C117.535 28.1167 121.881 32.4635 123.009 38.0249L123.456 40.2327C124.047 43.1463 128.211 43.1463 128.802 40.2327L129.25 38.0249C130.377 32.4635 134.724 28.1167 140.286 26.9889Z" fill="#FDDA24"/>
<path d="M47.5055 123.55L54.1089 122.211C57.2263 121.579 57.2263 117.124 54.1089 116.492L47.5055 115.153C40.998 113.834 35.9125 108.748 34.5929 102.241L33.254 95.6371C32.622 92.5196 28.1665 92.5196 27.5347 95.6371L26.1958 102.241C24.8765 108.748 19.7905 113.833 13.2833 115.153L6.67991 116.492C3.56243 117.124 3.56243 121.579 6.67991 122.211L13.2833 123.55C19.7908 124.869 24.8762 129.956 26.1958 136.462L27.5347 143.066C28.1668 146.183 32.6223 146.183 33.254 143.066L34.5929 136.462C35.9119 129.956 40.998 124.869 47.5055 123.55Z" fill="#FDDA24"/>
<path d="M31.1318 33.1823C32.3795 33.1823 33.391 32.1708 33.391 30.923V25.0497C33.391 23.8019 32.3795 22.7905 31.1318 22.7905C29.884 22.7905 28.8726 23.8019 28.8726 25.0497V30.923C28.8726 32.1705 29.884 33.1823 31.1318 33.1823Z" fill="#212322"/>
<path d="M31.1318 48.9953C32.3795 48.9953 33.391 47.9839 33.391 46.7361V40.8627C33.391 39.615 32.3795 38.6035 31.1318 38.6035C29.884 38.6035 28.8726 39.615 28.8726 40.8627V46.7361C28.8726 47.9839 29.884 48.9953 31.1318 48.9953Z" fill="#212322"/>
<path d="M36.1015 38.1519H41.9749C43.2226 38.1519 44.2341 37.1405 44.2341 35.8927C44.2341 34.6449 43.2226 33.6335 41.9749 33.6335H36.1015C34.8537 33.6335 33.8423 34.6449 33.8423 35.8927C33.8423 37.1405 34.8537 38.1519 36.1015 38.1519Z" fill="#212322"/>
<path d="M20.2885 38.1519H26.1619C27.4096 38.1519 28.4211 37.1405 28.4211 35.8927C28.4211 34.6449 27.4096 33.6335 26.1619 33.6335H20.2885C19.0407 33.6335 18.0293 34.6449 18.0293 35.8927C18.0293 37.1405 19.0407 38.1519 20.2885 38.1519Z" fill="#212322"/>
<path d="M134.244 76.9864C122.275 82.0951 102.946 85.1451 82.5394 85.1451C65.3679 85.1451 49.2542 83.0667 37.1672 79.2929C26.2173 75.8738 19.6804 71.3057 19.6804 67.0723C19.6804 61.8818 29.5203 56.2907 44.7491 52.8283C45.9657 52.5519 46.7278 51.3412 46.4514 50.1246C46.175 48.9078 44.9632 48.1466 43.7477 48.4224C25.3145 52.6133 15.1626 59.2366 15.1626 67.0723C15.1626 71.6721 18.7468 78.2743 35.8209 83.6055C48.3321 87.5118 64.9238 89.6633 82.5397 89.6633C103.838 89.6633 123.331 86.5571 136.018 81.1418C137.166 80.652 137.699 79.3246 137.209 78.1772C136.719 77.0298 135.392 76.4972 134.244 76.9864Z" fill="#212322"/>
<path d="M121.308 48.4176C120.091 48.1403 118.881 48.9036 118.604 50.1202C118.328 51.3368 119.09 52.5471 120.307 52.8235C135.549 56.286 145.399 61.8791 145.399 67.0729C145.399 69.8125 142.641 72.2332 140.327 73.7814C139.29 74.4755 139.012 75.8785 139.706 76.9152C140.142 77.5662 140.857 77.9183 141.586 77.9183C142.017 77.9183 142.454 77.7945 142.84 77.5362C147.536 74.3938 149.917 70.8732 149.917 67.0726C149.917 59.2333 139.757 52.608 121.308 48.4176Z" fill="#212322"/>
<path d="M121.887 86.8933C120.639 86.8933 119.628 87.9048 119.628 89.1525V137.455C119.628 141.543 105.18 147.482 82.5399 147.482C59.9 147.482 45.452 141.543 45.452 137.455V133.066C45.452 131.819 44.4406 130.807 43.1928 130.807C41.945 130.807 40.9336 131.819 40.9336 133.066V137.455C40.9336 141.871 45.4672 145.621 54.0439 148.299C61.6875 150.686 71.8076 152 82.5396 152C93.2717 152 103.392 150.686 111.035 148.299C119.612 145.621 124.146 141.871 124.146 137.455V89.1522C124.146 87.9045 123.135 86.8933 121.887 86.8933Z" fill="#212322"/>
<path d="M45.452 104.849V89.1525C45.452 87.9048 44.4406 86.8933 43.1928 86.8933C41.945 86.8933 40.9336 87.9048 40.9336 89.1525V104.849C40.9336 106.097 41.945 107.109 43.1928 107.109C44.4406 107.109 45.452 106.097 45.452 104.849Z" fill="#212322"/>
<path d="M43.0786 67.0722C43.0786 68.9868 44.3293 70.5694 46.1634 71.0034L46.2359 71.0216C46.2457 71.0239 46.2558 71.0266 46.2659 71.0287C48.6236 71.5838 51.1631 72.0891 53.8082 72.53C56.1672 72.9287 58.7438 73.2909 61.4682 73.607C64.0359 73.903 66.6908 74.1456 69.3588 74.3275C70.7497 74.4228 71.9865 74.4947 73.1291 74.5472C76.1953 74.701 79.3617 74.7791 82.5409 74.7791C85.7116 74.7791 88.9101 74.7001 92.0421 74.5449C93.2355 74.4884 94.4741 74.4157 95.7189 74.3278C98.3875 74.1459 101.043 73.9036 103.609 73.6076C106.239 73.3066 108.851 72.9397 111.373 72.5157C111.378 72.5151 111.381 72.5142 111.386 72.5136C111.395 72.5122 111.404 72.5107 111.413 72.5089C113.988 72.076 116.478 71.5785 118.815 71.0293C118.826 71.0269 118.836 71.0242 118.846 71.0218L118.891 71.0103C120.753 70.5694 122.004 68.9871 122.004 67.0722C122.004 65.1577 120.753 63.5753 118.919 63.141C118.864 63.1271 118.735 63.095 118.572 63.0751C117.335 62.924 116.207 63.8057 116.056 65.0443C115.97 65.7461 116.217 66.412 116.671 66.8849C115.707 67.0998 114.718 67.3059 113.709 67.5021C114.453 62.1774 114.835 56.7502 114.835 51.3233C114.835 45.3588 114.38 39.3816 113.483 33.5581C113.293 32.3249 112.14 31.4794 110.906 31.6691C109.673 31.8588 108.828 33.0124 109.017 34.2456C109.879 39.842 110.316 45.5877 110.316 51.323C110.316 57.0322 109.878 62.7399 109.023 68.317C107.234 68.5961 105.408 68.8446 103.567 69.0607C102.529 62.7557 99.6676 42.4334 103.8 31.3425C104.235 30.1731 103.641 28.8725 102.472 28.437C101.303 28.0018 100.002 28.5961 99.5661 29.7652C95.067 41.8418 97.9161 62.5912 99.0599 69.5301C97.8511 69.6387 96.6318 69.7361 95.4078 69.8195C94.8737 69.8572 94.3435 69.8905 93.8165 69.9222C92.7917 63.8271 92.2677 57.5812 92.2677 51.3224C92.2677 36.0711 95.3766 21.0537 101.292 7.5872C102.439 10.1952 103.485 12.8665 104.417 15.5719C104.823 16.7514 106.109 17.3784 107.288 16.972C108.468 16.5656 109.095 15.2801 108.689 14.1003C107.171 9.69323 105.363 5.37074 103.315 1.2522C102.932 0.485076 102.148 -0.000610352 101.291 -0.000610352C100.434 -0.000610352 99.6501 0.485076 99.2683 1.25279C91.7319 16.4106 87.7487 33.7246 87.7487 51.323C87.7487 57.6494 88.2596 63.966 89.2669 70.1386C84.8144 70.2972 80.2933 70.2975 75.912 70.1416C76.9208 63.9732 77.4323 57.6554 77.4323 51.3227C77.4323 33.7285 73.448 16.4145 65.9097 1.2525C65.5274 0.48567 64.7439 -1.66027e-05 63.8862 -1.66027e-05C63.0286 -1.66027e-05 62.2451 0.48567 61.8633 1.25339C54.3293 16.4073 50.3467 33.7214 50.3467 51.3236C50.3467 56.7621 50.7294 62.1949 51.4748 67.5211C50.4263 67.3186 49.4023 67.1067 48.4102 66.8852C48.865 66.4126 49.1114 65.7464 49.0256 65.0446C48.8748 63.806 47.7481 62.924 46.5096 63.0754C46.3469 63.0953 46.2187 63.1274 46.1899 63.1345C44.3293 63.5753 43.0786 65.158 43.0786 67.0722ZM63.8862 7.58898C69.8035 21.0585 72.9133 36.0756 72.9133 51.3233C72.9133 57.5892 72.3887 63.8372 71.3621 69.9282C70.8212 69.8958 70.2607 69.8605 69.6664 69.8198C68.4777 69.7388 67.2935 69.6438 66.1179 69.539C67.2611 62.6084 70.1144 41.8471 65.6135 29.7658C65.1779 28.5967 63.877 28.0018 62.7079 28.4376C61.5389 28.8734 60.9439 30.174 61.3797 31.3431C65.5104 42.4308 62.645 62.7806 61.6095 69.0735C59.7068 68.8484 57.8823 68.6008 56.161 68.3334C55.3042 62.7566 54.8654 57.0432 54.8654 51.3227C54.8651 36.0699 57.9731 21.0522 63.8862 7.58898Z" fill="#212322"/>
<path d="M105.32 23.8683C105.32 26.2686 106.963 28.2784 109.315 28.7552L111.523 29.2029C116.206 30.1523 119.845 33.7914 120.794 38.474L121.242 40.6821C121.719 43.0345 123.729 44.6777 126.129 44.6774C128.529 44.6774 130.539 43.0342 131.016 40.6821L131.464 38.4743C132.413 33.7917 136.052 30.1526 140.735 29.2032L142.943 28.7555C145.295 28.2787 146.938 26.2689 146.938 23.8686C146.938 21.4684 145.295 19.4586 142.943 18.9818L140.735 18.5341C136.053 17.5847 132.413 13.9456 131.464 9.263L131.016 7.05514C130.539 4.70271 128.53 3.05951 126.129 3.05951C123.729 3.05951 121.719 4.70271 121.242 7.05514L120.795 9.263C119.845 13.9456 116.206 17.5847 111.524 18.5341L109.316 18.9818C106.963 19.4586 105.32 21.4678 105.32 23.8683ZM110.213 23.4097L112.421 22.962C118.887 21.651 123.911 16.6264 125.223 10.1604L125.67 7.95259C125.695 7.83088 125.746 7.57734 126.129 7.57764C126.512 7.57764 126.563 7.83088 126.588 7.95259L127.035 10.1604C128.346 16.6261 133.371 21.6507 139.837 22.962L142.045 23.4097C142.166 23.4343 142.42 23.486 142.42 23.8683C142.42 24.251 142.166 24.3024 142.045 24.327L139.837 24.7747C133.371 26.0857 128.347 31.1103 127.035 37.5759L126.588 39.7841C126.563 39.9058 126.512 40.159 126.129 40.159C125.746 40.159 125.695 39.9058 125.67 39.7841L125.223 37.5762C123.912 31.1106 118.887 26.086 112.421 24.7747L110.213 24.327C110.091 24.3024 109.838 24.2507 109.838 23.8683C109.838 23.4857 110.091 23.4343 110.213 23.4097Z" fill="#212322"/>
<path d="M54.5579 124.425C57.0003 123.93 58.7062 121.844 58.7062 119.352C58.7062 116.859 57.0003 114.773 54.5579 114.278L47.9546 112.939C42.3243 111.797 37.9487 107.422 36.8072 101.792L35.4683 95.1883C34.9728 92.7456 32.8867 91.04 30.3944 91.04C27.9022 91.04 25.816 92.7462 25.3209 95.1883L23.9819 101.792C22.8405 107.422 18.4648 111.797 12.8346 112.939L6.23123 114.278C3.78885 114.773 2.08301 116.859 2.08301 119.352C2.08301 121.844 3.78914 123.93 6.23123 124.425L12.8346 125.764C18.4648 126.906 22.8405 131.281 23.9819 136.912L25.3209 143.515C25.816 145.958 27.9022 147.663 30.3944 147.663C32.8864 147.663 34.9728 145.957 35.4683 143.515L36.8072 136.912C37.9487 131.281 42.3243 126.906 47.9546 125.764L54.5579 124.425ZM32.379 136.014L31.0401 142.617C31.0137 142.748 30.9333 143.146 30.3944 143.146C29.8559 143.146 29.7754 142.748 29.749 142.617L28.4101 136.014C26.907 128.601 21.1456 122.839 13.7324 121.336L7.12898 119.997C6.99836 119.971 6.60084 119.891 6.60084 119.352C6.60084 118.813 6.99806 118.732 7.12898 118.706L13.7324 117.367C21.1456 115.864 26.907 110.103 28.4101 102.689L29.749 96.086C29.7754 95.9554 29.8559 95.5582 30.3944 95.5582C30.9333 95.5582 31.0137 95.9554 31.0401 96.086L32.379 102.689C33.8821 110.103 39.6433 115.864 47.0568 117.367L53.6602 118.706C53.7908 118.732 54.1883 118.813 54.1883 119.352C54.1883 119.891 53.7911 119.971 53.6602 119.997L47.0568 121.336C39.6433 122.839 33.8821 128.601 32.379 136.014Z" fill="#212322"/>
</g>
<defs>
<clipPath id="clip0">
<rect width="152" height="152" fill="white"/>
</clipPath>
</defs>
</svg>
