<svg width="69" height="69" viewBox="0 0 69 69" fill="none" xmlns="http://www.w3.org/2000/svg">
<path d="M28.9026 30.9152C27.4286 30.9152 26.2295 32.3301 26.2295 34.069C26.2295 35.8082 27.4287 37.223 28.9026 37.223C30.3766 37.223 31.5757 35.8081 31.5757 34.069C31.5758 32.3299 30.3766 30.9152 28.9026 30.9152ZM28.9026 35.3733C28.5132 35.3733 28.0792 34.8377 28.0792 34.069C28.0792 33.3006 28.5132 32.7648 28.9026 32.7648C29.292 32.7648 29.726 33.3005 29.726 34.069C29.7261 34.8376 29.2921 35.3733 28.9026 35.3733Z" fill="#212322"/>
<path d="M41.0383 30.9152C39.5644 30.9152 38.3652 32.3301 38.3652 34.069C38.3652 35.8082 39.5645 37.223 41.0383 37.223C42.5122 37.223 43.7114 35.8081 43.7114 34.069C43.7115 32.3299 42.5123 30.9152 41.0383 30.9152ZM41.0383 35.3733C40.6489 35.3733 40.2149 34.8377 40.2149 34.069C40.2149 33.3006 40.6489 32.7648 41.0383 32.7648C41.4277 32.7648 41.8617 33.3005 41.8617 34.069C41.8619 34.8376 41.4278 35.3733 41.0383 35.3733Z" fill="#212322"/>
<path d="M66.5655 26.6907C66.5658 21.3204 61.6002 17.2462 56.2881 18.3865C50.0458 6.65542 34.5188 2.52612 22.715 9.17993C22.2701 9.4306 22.1127 9.99459 22.3635 10.4397C22.6143 10.8847 23.178 11.0422 23.6232 10.7913C27.037 8.86711 30.9608 7.84998 34.9705 7.84998C47.5672 7.84998 57.141 17.6553 56.9237 28.4668C56.9277 28.5145 56.8906 28.7441 57.0306 29.0072C60.0041 34.5932 60.6097 40.8627 59.6361 44.739C59.4894 45.3234 59.9322 45.8894 60.5338 45.8894C60.9477 45.8894 61.3245 45.6094 61.4301 45.1896C62.2582 41.8917 61.9154 37.8029 61.1361 34.6106C64.3735 33.357 66.5655 30.2211 66.5655 26.6907ZM59.5692 30.0015C59.3234 29.4446 59.0588 28.8938 58.7755 28.3503C58.7887 26.6933 58.5697 24.8418 58.1082 23.0556C60.0962 23.0755 61.7075 24.6981 61.7075 26.6907C61.7073 28.1284 60.8422 29.421 59.5692 30.0015ZM60.6376 32.8194C60.5204 32.4507 60.3947 32.083 60.2614 31.7178C62.2205 30.8576 63.5571 28.886 63.5571 26.6906C63.5571 23.472 60.7794 20.9232 57.5515 21.2295C57.4176 20.8539 57.273 20.4817 57.1184 20.114C61.12 19.5362 64.7162 22.6466 64.7162 26.6905C64.7161 29.3908 63.0775 31.7969 60.6376 32.8194Z" fill="#212322"/>
<path d="M59.6861 49.4254C59.9452 48.9853 59.7982 48.4183 59.3581 48.1592C58.9178 47.9001 58.3511 48.0472 58.0919 48.4872C56.6013 51.0211 54.3084 53.1623 51.8042 54.6997L51.1105 53.9146C54.4493 49.1458 54.8207 43.0068 51.7357 37.8197C51.3408 37.1571 51.3535 36.3023 51.7688 35.6415C54.8985 30.6593 54.4972 23.4488 50.7159 19.0591C50.3825 18.672 49.7987 18.629 49.4115 18.9622C49.0246 19.2954 48.9812 19.8793 49.3146 20.2665C52.3946 23.8419 53.0221 29.9919 50.2397 34.5959C49.3617 36.0761 49.4469 37.5919 50.1464 38.7659C52.2532 42.3072 52.6815 46.7115 50.8088 50.7478C52.3181 45.1979 48.2658 40.0453 43.69 41.6716C42.4154 40.4479 38.7388 37.3172 34.9708 37.8592C31.2021 37.3174 27.526 40.4479 26.2517 41.6716C21.6765 40.0454 17.6234 45.197 19.1329 50.7476C17.3133 46.8256 17.6175 42.4226 19.7952 38.7663C20.4975 37.5874 20.5777 36.0607 19.7027 34.5968C15.3296 27.3671 19.5578 17.3678 26.2306 17.5904C28.9611 17.6805 30.3555 19.6637 30.9562 20.1028C33.2074 22.1915 36.734 22.1915 38.9851 20.1028C39.4505 19.8329 41.8556 16.3915 46.1538 17.994C46.632 18.1726 47.165 17.9295 47.3436 17.4509C47.5221 16.9724 47.2791 16.4397 46.8006 16.2612C45.7965 15.8865 44.7378 15.7053 43.6497 15.7417C40.1105 15.8589 38.2864 18.3479 37.7272 18.7469C36.1817 20.1809 33.76 20.1809 32.2143 18.7469C31.6242 18.3257 29.1564 14.979 24.4723 15.8854C16.9702 17.3352 13.5468 28.2815 18.1735 35.6422C18.588 36.3023 18.6009 37.157 18.2059 37.8199C15.1999 42.8575 15.3993 49.0319 18.8465 53.936L18.1619 54.7145C13.5641 51.9004 10.1625 47.459 9.91206 42.0948C9.74572 38.5353 10.3683 34.9553 11.6947 31.6319C12.8528 28.7225 13.0156 29.3078 13.0156 28.3047C13.0152 22.5488 15.6416 17.0265 20.2211 13.1542C20.6111 12.8245 20.6599 12.241 20.3301 11.8509C20.0004 11.461 19.4168 11.4119 19.0268 11.7419C16.7874 13.6355 14.9778 15.8937 13.6608 18.3761C8.36078 17.2713 3.43457 21.3444 3.43457 26.6908C3.43457 30.1927 5.60495 33.3199 8.81047 34.5885C8.20036 37.0793 7.94525 39.636 8.06411 42.1811C8.33809 48.0495 11.9159 52.9615 16.9233 56.1229L12.3633 61.3087C11.4392 62.3552 12.1831 63.9999 13.5769 63.9999H24.7675C25.6497 63.9999 26.4697 63.562 26.9628 62.8251L28.3235 60.771C32.6033 62.1745 37.3742 62.1729 41.6598 60.7574L43.0459 62.8288C43.5365 63.562 44.3564 64 45.2387 64H56.4293C57.0744 64 57.64 63.6347 57.9054 63.0466C58.1707 62.4586 58.0701 61.7926 57.6429 61.3088L53.0464 56.1055C55.6968 54.4269 58.095 52.1299 59.6861 49.4254ZM11.1657 28.3505C10.8869 28.8853 10.6262 29.4274 10.3837 29.9753C9.13895 29.3831 8.29321 28.104 8.29321 26.6908C8.29321 24.7168 9.8747 23.1064 11.8368 23.0572C11.382 24.8128 11.1657 26.5585 11.1657 28.3505ZM9.31108 32.7963C6.90149 31.7605 5.28424 29.3646 5.28424 26.6909C5.28424 22.6944 8.81836 19.5617 12.8263 20.1068C12.671 20.4753 12.526 20.8486 12.3917 21.2251C9.20491 20.9536 6.44366 23.4769 6.44366 26.691C6.44366 28.8976 7.73539 30.8316 9.68715 31.6985C9.55386 32.0624 9.42822 32.429 9.31108 32.7963ZM25.4227 61.8002C25.2761 62.0194 25.031 62.1503 24.7673 62.1503H14.0862L20.8705 54.4349C22.4635 56.818 24.8822 58.3002 27.4973 58.6679C27.024 59.3829 25.9093 61.0654 25.4227 61.8002ZM22.0817 52.8951C21.9497 52.6777 21.8615 52.5168 21.7998 52.4121C19.9122 48.9874 20.6835 46.4254 21.7377 44.8287C22.4447 43.7576 23.6017 43.1159 24.8536 43.2385C24.2094 44.0498 23.37 45.2186 22.7917 46.4381C22.4986 47.0559 22.9551 47.7595 23.6266 47.7595C23.9727 47.7595 24.3046 47.5642 24.4627 47.2308C25.3104 45.443 26.7966 43.8224 27.1457 43.3944C27.1712 43.3668 28.8495 41.5714 31.0179 40.4754C30.2312 41.6589 29.7507 43.2028 29.7678 45.0079L28.5879 46.47C28.0961 47.0796 28.5411 47.9757 29.307 47.9757C29.8215 47.9757 30.0689 47.571 30.0909 47.5528C30.7128 50.1894 32.4047 53.2461 33.7182 54.9099C30.2803 58.095 24.9043 57.5157 22.0817 52.8951ZM29.3856 59.1669L29.6884 58.7097C31.6621 58.5159 33.4349 57.6977 34.9744 56.2677C36.8111 57.9619 38.7359 58.5633 40.2922 58.7139L40.5887 59.1569C36.9835 60.2398 32.9938 60.243 29.3856 59.1669ZM34.4691 52.7813V52.7811C32.347 49.495 31.3909 46.5136 31.6488 44.1101L36.0988 50.1338C36.2802 50.3793 36.5599 50.5092 36.8433 50.5092C37.5891 50.5092 38.0423 49.652 37.5864 49.0348L32.3176 41.9031C32.7011 41.1948 33.2167 40.6104 33.9059 40.187L39.7389 47.4151C40.0607 47.8139 40.6433 47.8737 41.0395 47.5541C41.437 47.2332 41.4991 46.6511 41.1784 46.2535L35.8473 39.6473C38.2982 39.6458 41.2155 41.7007 42.7983 43.3976C42.8159 43.4164 44.5651 45.305 45.4781 47.2307C45.6362 47.5642 45.9683 47.7594 46.3143 47.7594C46.9861 47.7594 47.4421 47.0554 47.1491 46.4379C46.5706 45.2177 45.7305 44.0486 45.0863 43.2371C46.2469 43.1228 47.4431 43.6774 48.2031 44.8285C50.1486 47.7752 49.2759 51.1604 47.1647 53.9131C44.2335 57.6462 38.1908 58.5451 34.4691 52.7813ZM55.9176 62.1503H45.2383C44.9744 62.1503 44.7294 62.0194 44.5828 61.8002C44.4711 61.6332 44.0642 61.0251 42.4832 58.6623C45.0548 58.2934 47.4643 56.8335 49.0841 54.4149C49.0951 54.4274 49.2432 54.5947 49.2322 54.5824L55.9176 62.1503Z" fill="#212322"/>
</svg>
