<svg width="69" height="69" viewBox="0 0 69 69" fill="none" xmlns="http://www.w3.org/2000/svg">
<path d="M69 34.5C69 53.5538 53.5538 69 34.5 69C15.4462 69 0 53.5538 0 34.5C0 15.4462 15.4462 0 34.5 0C53.5538 0 69 15.4462 69 34.5Z" fill="#F2F0E8"/>
<path d="M62.6449 36.5978C62.6449 32.1389 59.7587 28.3513 55.7443 26.984C55.8269 26.227 55.8413 25.4516 55.7802 24.6648C55.2466 17.8032 49.2257 12.6712 42.3321 13.2023C37.0879 13.6062 32.8501 17.1713 31.3568 21.8747C30.2817 21.4009 29.0931 21.1356 27.8415 21.1356C24.0543 21.1356 20.8345 23.5468 19.6428 26.9105C18.6707 26.6045 17.6357 26.4389 16.5619 26.4389C10.9251 26.4389 6.35547 30.9872 6.35547 36.5978C6.35547 42.2084 10.9251 46.7567 16.5619 46.7567H53.1741V46.7301C58.4675 46.3549 62.6449 41.9622 62.6449 36.5978Z" fill="#FDF2B8"/>
<path d="M55.815 26.984C55.8967 26.2269 55.9111 25.4516 55.8505 24.6647C55.3224 17.8032 49.3633 12.6712 42.5403 13.2023C42.432 13.2107 42.3247 13.2226 42.2173 13.2337C48.0463 13.8515 52.2266 18.577 52.695 24.6647C52.7556 25.4516 52.7412 26.2269 52.6595 26.984C56.6327 28.3512 59.4894 32.1388 59.4894 36.5977C59.4894 41.962 55.9183 46.3548 50.6791 46.7301V46.7567H53.2711V46.7301C58.5103 46.3548 62.6449 41.9621 62.6449 36.5977C62.6449 32.1388 59.7883 28.3512 55.815 26.984Z" fill="#FDDA24"/>
<path d="M32.941 39.5062V56.2894C37.17 56.2894 40.5983 52.8138 40.5983 48.5265V39.5063H44.0327L36.7695 31.3223L29.5063 39.5063H32.941V39.5062Z" fill="#FAB6DC"/>
<path d="M37.8132 48.5206C37.8132 51.8971 35.673 54.7693 32.6841 55.8403V56.2895C36.9461 56.2895 40.4012 52.8112 40.4012 48.5206V39.4934H37.8132V48.5206Z" fill="#D9017A"/>
<path d="M36.7034 31.3223L35.4077 32.7667L41.4414 39.4933H44.0327L36.7034 31.3223Z" fill="#D9017A"/>
<path d="M29.1842 45.5119H16.4548C11.3225 45.5119 7.14706 41.3392 7.14706 36.2104C7.14706 31.0814 11.3225 26.9088 16.4548 26.9088C17.4131 26.9088 18.3586 27.054 19.2648 27.3405C19.7023 27.4787 20.1701 27.2452 20.3226 26.8132C21.4209 23.7008 24.3779 21.6096 27.6806 21.6096C28.7752 21.6096 29.8365 21.8336 30.8349 22.2755C31.0561 22.3733 31.3083 22.3724 31.5287 22.2731C31.749 22.1737 31.9167 21.9852 31.9894 21.7549C32.4002 20.4561 33.0325 19.248 33.869 18.1642C34.1557 17.7928 34.0868 17.2594 33.7151 16.973C33.3435 16.6865 32.8099 16.7554 32.5231 17.1268C31.7495 18.1289 31.1282 19.2242 30.6697 20.3923C29.7082 20.0726 28.7063 19.911 27.6806 19.911C23.9255 19.911 20.5374 22.1309 19.0155 25.5101C18.1797 25.3109 17.3216 25.2103 16.4548 25.2103C10.3852 25.21 5.44727 30.1447 5.44727 36.2104C5.44727 42.276 10.3852 47.2106 16.4548 47.2106H29.1842C29.6537 47.2106 30.0341 46.8303 30.0341 46.3613C30.0341 45.8922 29.6536 45.5119 29.1842 45.5119Z" fill="#212322"/>
<path d="M56.709 26.222C56.7444 25.6233 56.7388 25.0209 56.6919 24.4237C56.4165 20.9128 54.772 17.7178 52.0613 15.4274C49.3505 13.1369 45.8974 12.0249 42.3398 12.2969C39.7706 12.4931 37.333 13.4071 35.2908 14.9399C34.9157 15.2215 34.843 15.7496 35.1283 16.1196C35.4135 16.4896 35.949 16.5614 36.3239 16.2799C38.1042 14.9435 40.2301 14.1467 42.4715 13.9755C45.5749 13.7383 48.5868 14.7083 50.9514 16.7062C53.3159 18.7042 54.7504 21.4911 54.9907 24.5536C55.0464 25.2656 55.0353 25.986 54.9574 26.6949C54.9144 27.0863 55.1519 27.4548 55.5293 27.5822C59.3078 28.858 61.8464 32.3644 61.8464 36.3073C61.8464 41.122 58.0383 45.161 53.1769 45.5027C53.1251 45.5063 53.0745 45.5145 53.0257 45.5268H43.9434C43.4721 45.5268 43.0902 45.9038 43.0902 46.3687C43.0902 46.8336 43.4721 47.2105 43.9434 47.2105H53.2376C53.3349 47.2105 53.4287 47.1944 53.5158 47.1647C56.2145 46.9225 58.714 45.7161 60.5749 43.7528C62.4952 41.7269 63.5528 39.0826 63.5528 36.3072C63.5528 31.8662 60.8291 27.8934 56.709 26.222Z" fill="#212322"/>
<path d="M44.4135 40.1286C44.5492 39.8263 44.493 39.473 44.2699 39.2269L36.9434 31.146C36.7833 30.9693 36.5551 30.8684 36.3156 30.8684C36.076 30.8684 35.8479 30.9693 35.6877 31.146L28.3612 39.2269C28.1381 39.473 28.0819 39.8263 28.2177 40.1286C28.3534 40.4309 28.6556 40.6257 28.9892 40.6257H31.609V56.3592C31.609 56.8221 31.9871 57.1974 32.4537 57.1974C37.1785 57.1974 41.0224 53.3828 41.0224 48.6941V40.6258H43.6422C43.9755 40.6257 44.2778 40.4309 44.4135 40.1286ZM40.1776 38.9493C39.711 38.9493 39.3329 39.3246 39.3329 39.7875V48.694C39.3329 52.1746 36.6944 55.0551 33.2982 55.4696V39.7874C33.2982 39.3245 32.9202 38.9492 32.4536 38.9492H30.8853L36.3156 32.9597L41.7458 38.9492H40.1776V38.9493Z" fill="#212322"/>
</svg>
