<svg width="152" height="152" viewBox="0 0 152 152" fill="none" xmlns="http://www.w3.org/2000/svg">
<g clip-path="url(#clip0)">
<path d="M105.098 73.4728C105.098 45.1259 82.1168 22.1465 53.7727 22.1465C25.4257 22.1465 2.44629 45.1259 2.44629 73.4728C2.44629 101.821 25.4271 124.801 53.7727 124.801C82.1168 124.801 105.098 101.821 105.098 73.4728Z" fill="#FAB6DC"/>
<path d="M105.097 73.4731H107.542C107.541 43.7752 83.4676 19.7049 53.7724 19.7021C24.0744 19.7049 0.00139854 43.7752 0 73.4731C0.00139854 103.171 24.0744 127.243 53.7724 127.244C83.4676 127.243 107.539 103.171 107.542 73.4731H102.653C102.651 86.9788 97.1858 99.1839 88.3359 108.038C79.4817 116.887 67.2767 122.353 53.7724 122.356C40.2653 122.353 28.0603 116.888 19.2061 108.038C10.3562 99.1839 4.89069 86.9788 4.88929 73.4731C4.89069 59.9675 10.3562 47.761 19.2061 38.9083C28.0603 30.0583 40.2653 24.5914 53.7724 24.59C67.2767 24.5914 79.4817 30.0583 88.3359 38.9083C97.1858 47.761 102.651 59.9675 102.653 73.4731H105.097Z" fill="#212322"/>
<path d="M39.4094 77.7273C42.6232 81.2223 47.8762 83.2278 53.771 83.2488C59.6085 83.2292 64.8139 81.26 68.0375 77.8336C68.9563 76.8449 68.9004 75.2995 67.9102 74.3792C66.9215 73.4604 65.3761 73.5177 64.4558 74.5065C62.5105 76.6449 58.4729 78.3818 53.771 78.3623C49.0202 78.3832 44.9504 76.6085 43.0288 74.4436C42.1212 73.4436 40.5744 73.3681 39.5758 74.2771C38.5759 75.1834 38.5017 76.7288 39.4094 77.7273Z" fill="#212322"/>
<path d="M36.6629 51.4758C36.6629 54.1764 34.4742 56.3651 31.775 56.3651C29.0745 56.3651 26.8857 54.1764 26.8857 51.4758C26.8857 48.7766 29.0745 46.5879 31.775 46.5879C34.4742 46.5879 36.6629 48.7766 36.6629 51.4758Z" fill="#212322"/>
<path d="M80.6566 51.4758C80.6566 54.1764 78.4679 56.3651 75.7687 56.3651C73.0682 56.3651 70.8809 54.1764 70.8809 51.4758C70.8809 48.7766 73.0682 46.5879 75.7687 46.5879C78.4679 46.5879 80.6566 48.7766 80.6566 51.4758Z" fill="#212322"/>
<path d="M80.6566 66.1398C80.6566 68.8404 78.4679 71.0277 75.7687 71.0277C73.0682 71.0277 70.8809 68.8404 70.8809 66.1398C70.8809 63.4407 73.0682 61.252 75.7687 61.252C78.4679 61.252 80.6566 63.4407 80.6566 66.1398Z" fill="#D9017A"/>
<path d="M36.6629 66.1398C36.6629 68.8404 34.4742 71.0277 31.775 71.0277C29.0745 71.0277 26.8857 68.8404 26.8857 66.1398C26.8857 63.4407 29.0745 61.252 31.775 61.252C34.4742 61.252 36.6629 63.4407 36.6629 66.1398Z" fill="#D9017A"/>
<path d="M119.937 107.864C143.25 84.5489 154.988 58.3683 147.121 40.7397C146.575 38.6629 145.542 36.6868 143.914 35.0603L137.427 28.5725C135.404 26.5488 132.121 26.5488 130.098 28.5725L109.774 48.896C107.75 50.9197 107.75 54.2021 109.774 56.2243L123.035 69.4867C119.346 76.4878 113.145 84.5294 104.874 92.8003C96.5999 101.071 88.5597 107.274 81.5587 110.965L68.2991 97.7036C66.2726 95.6799 62.9931 95.6799 60.9694 97.7036L40.6458 118.026C38.6194 120.049 38.6194 123.33 40.6458 125.354L47.1337 131.843C48.7616 133.47 50.7363 134.506 52.8131 135.05C70.4403 142.914 96.6209 131.179 119.937 107.864Z" fill="#FDF2B8"/>
<path d="M119.937 107.865L121.666 109.593C131.018 100.237 138.564 90.4079 143.805 80.7496C149.036 71.0927 151.994 61.5953 152 52.8488C152.001 48.2112 151.157 43.7849 149.353 39.7431L147.12 40.7403L149.485 40.1207C148.848 37.6803 147.607 35.2957 145.642 33.3322L139.156 26.8444C137.672 25.3591 135.704 24.6095 133.763 24.6123C131.818 24.6095 129.853 25.3619 128.369 26.8458L108.045 47.1679C106.561 48.6504 105.809 50.6167 105.812 52.5593C105.809 54.5047 106.561 56.4682 108.045 57.9521L121.308 71.213L123.036 69.4872L120.873 68.3474C117.351 75.038 111.289 82.9356 103.145 91.0723C95.0054 99.2159 87.1106 105.28 80.4186 108.803L81.5584 110.965L83.287 109.236L70.0247 95.9755C68.5422 94.4903 66.5759 93.7393 64.6319 93.7421C62.6894 93.7393 60.7216 94.4903 59.2392 95.9755L38.9156 116.298C37.4304 117.782 36.6793 119.746 36.6821 121.69C36.6793 123.634 37.4304 125.599 38.9142 127.082L45.4062 133.572C47.367 135.536 49.7501 136.776 52.1933 137.414L52.8129 135.051L51.8171 137.281C55.8589 139.085 60.2853 139.93 64.92 139.929C73.6679 139.922 83.1639 136.967 92.8222 131.733C102.481 126.493 112.309 118.947 121.667 109.594L118.209 106.136C109.138 115.21 99.6415 122.474 90.4909 127.436C81.3402 132.405 72.5434 135.049 64.92 135.041C60.8727 135.04 57.1553 134.311 53.8072 132.817L53.431 132.686C51.7192 132.235 50.1557 131.405 48.862 130.114L42.3714 123.625C41.8316 123.083 41.5728 122.397 41.57 121.689C41.5728 120.98 41.8316 120.295 42.3714 119.753L62.6949 99.4313C63.2362 98.8915 63.9229 98.63 64.6319 98.6286C65.341 98.6313 66.0277 98.8915 66.5689 99.4299L79.8298 112.691C80.5864 113.449 81.7514 113.624 82.6968 113.124C90.0084 109.267 98.1968 102.926 106.602 94.528C114.999 86.1228 121.337 77.9358 125.197 70.6228C125.696 69.6774 125.519 68.5124 124.762 67.7572L111.501 54.4949C110.961 53.9522 110.7 53.2656 110.7 52.5579C110.7 51.8502 110.961 51.165 111.501 50.6223L131.825 30.3002C132.365 29.7603 133.051 29.5016 133.762 29.4988C134.471 29.5016 135.157 29.7603 135.697 30.3002L142.185 36.7894C143.476 38.0802 144.304 39.6452 144.754 41.3584L144.887 41.7346C146.379 45.0827 147.109 48.7986 147.112 52.8474C147.119 60.4722 144.476 69.2676 139.505 78.4197C134.543 87.5703 127.279 97.0664 118.207 106.136L119.937 107.865Z" fill="#212322"/>
<path d="M113.949 48.1777L111.503 50.6238C110.962 51.1664 110.702 51.8517 110.7 52.5594C110.702 53.267 110.962 53.9537 111.503 54.4963L124.645 67.6398C125.892 65.7532 126.993 63.9197 127.923 62.1533L113.949 48.1777Z" fill="#FDDA24"/>
<path d="M112.22 46.4492L109.773 48.8967C107.752 50.9203 107.752 54.2027 109.773 56.225L123.24 69.6929C123.727 69.002 124.194 68.3168 124.643 67.6399L111.501 54.4964C110.961 53.9538 110.701 53.2671 110.7 52.5594C110.701 51.8518 110.961 51.1665 111.501 50.6239L113.947 48.1778L112.22 46.4492Z" fill="#212322"/>
<path d="M147.043 55.041C142.775 68.0936 133.244 82.3349 119.937 95.6434C101.508 114.069 81.2897 125.264 64.9198 125.264C60.576 125.264 56.5076 124.477 52.8113 122.83C50.7344 122.284 48.7611 121.249 47.1332 119.623L44.8172 117.308L42.3712 119.754C41.8314 120.294 41.5726 120.981 41.5698 121.69C41.5726 122.397 41.8314 123.083 42.3712 123.625L48.8618 130.113C50.1555 131.405 51.7204 132.235 53.4322 132.685L53.807 132.818C57.1551 134.31 60.8725 135.04 64.9198 135.042H64.9534C72.5698 135.042 81.3554 132.398 90.4907 127.436C99.6427 122.474 109.137 115.209 118.208 106.137C127.281 97.0657 134.546 87.571 139.508 78.4218C144.007 70.134 146.6 62.1386 147.043 55.041Z" fill="#FDDA24"/>
<path d="M111.714 25.3057L101.938 15.5299C100.983 14.5747 99.4362 14.5747 98.481 15.5299C97.5272 16.4837 97.5272 18.0319 98.481 18.9857L108.258 28.7628C109.212 29.7166 110.76 29.7166 111.714 28.7628C112.669 27.8076 112.669 26.2609 111.714 25.3057Z" fill="#768590"/>
<path d="M119.762 24.591V14.8138C119.762 13.4642 118.669 12.3691 117.319 12.3691C115.968 12.3691 114.875 13.4642 114.875 14.8138V24.591C114.875 25.9406 115.968 27.0342 117.319 27.0342C118.669 27.0342 119.762 25.9406 119.762 24.591Z" fill="#768590"/>
<path d="M107.542 31.9219H97.7664C96.4154 31.9219 95.3218 33.0169 95.3218 34.3665C95.3218 35.7161 96.4154 36.8112 97.7664 36.8112H107.542C108.892 36.8112 109.987 35.7161 109.987 34.3665C109.987 33.0169 108.892 31.9219 107.542 31.9219Z" fill="#768590"/>
</g>
<defs>
<clipPath id="clip0">
<rect width="152" height="152" fill="white"/>
</clipPath>
</defs>
</svg>
