<svg width="152" height="152" viewBox="0 0 152 152" fill="none" xmlns="http://www.w3.org/2000/svg">
<g clip-path="url(#clip0)">
<path d="M149.743 91.7121C140.524 91.7121 140.524 84.4883 131.306 84.4883C122.088 84.4883 122.087 91.7121 112.869 91.7121C103.651 91.7121 103.651 84.4883 94.4332 84.4883C85.2155 84.4883 85.2155 91.7121 75.9979 91.7121C66.7808 91.7121 66.7808 84.4883 57.5634 84.4883C48.3461 84.4883 48.3461 91.7121 39.1281 91.7121C29.9102 91.7121 29.9102 84.4883 20.6925 84.4883C11.4755 84.4883 11.4755 91.7121 2.25781 91.7121V108.593C11.4749 108.593 11.4749 101.369 20.6925 101.369C29.9105 101.369 29.9105 108.593 39.1281 108.593C48.3455 108.593 48.3455 101.369 57.5634 101.369C66.7805 101.369 66.7805 108.593 75.9979 108.593C85.2155 108.593 85.2155 101.369 94.4332 101.369C103.651 101.369 103.651 108.593 112.869 108.593C122.088 108.593 122.088 101.369 131.306 101.369C140.524 101.369 140.524 108.593 149.743 108.593" fill="#F2F0E8"/>
<path d="M148.371 29.7445L147.254 34.154C146.424 37.4288 144.335 40.2399 141.439 41.9767L118.871 55.5183L99.8 94.1654L96.2966 101.266L96.2725 101.477C95.7008 101.404 95.0928 101.368 94.4334 101.368C85.214 101.368 85.214 108.592 75.9978 108.592C66.7816 108.592 66.7816 101.368 57.5622 101.368C56.9031 101.368 56.2922 101.404 55.7201 101.477L55.6961 101.266L44.3848 78.3423V78.3393L33.1217 55.5183L31.5685 54.5882L10.5536 41.977C7.66118 40.2402 5.56911 37.4291 4.73845 34.1543L3.62191 29.7448C3.08308 27.6198 5.27431 25.835 7.24882 26.7951L17.8588 31.9571L42.1518 43.7799L61.7342 69.5866C59.0766 72.7952 92.9196 72.789 90.262 69.5806L109.841 43.7799L144.747 26.7948C146.718 25.8347 148.91 27.6195 148.371 29.7445Z" fill="#FAB6DC"/>
<path d="M99.8 94.1659L96.2965 101.266L96.2725 101.477C95.7007 101.405 95.0927 110.094 94.4333 110.094C85.2139 110.094 85.2139 117.318 75.9977 117.318C66.7816 117.318 66.7816 110.094 57.5621 110.094C56.9031 110.094 56.2921 101.405 55.72 101.477L55.696 101.266L44.3848 78.3428V78.3398C44.3848 78.3398 54.9012 78.8214 69.4995 93.4193C76.0096 99.93 88.245 98.142 99.8 94.1659Z" fill="#D9017A"/>
<path d="M149.743 108.593C140.524 108.593 140.524 101.369 131.306 101.369C122.088 101.369 122.087 108.593 112.869 108.593C103.651 108.593 103.651 101.369 94.4332 101.369C85.2155 101.369 85.2155 108.593 75.9979 108.593C66.7808 108.593 66.7808 101.369 57.5634 101.369C48.3461 101.369 48.3461 108.593 39.1281 108.593C29.9102 108.593 29.9102 101.369 20.6925 101.369C11.4755 101.369 11.4755 108.593 2.25781 108.593V125.474C11.4749 125.474 11.4749 118.25 20.6925 118.25C29.9105 118.25 29.9105 125.474 39.1281 125.474C48.3455 125.474 48.3455 118.25 57.5634 118.25C66.7805 118.25 66.7805 125.474 75.9979 125.474C85.2155 125.474 85.2155 118.25 94.4332 118.25C103.651 118.25 103.651 125.474 112.869 125.474C122.088 125.474 122.088 118.25 131.306 118.25C140.524 118.25 140.524 125.474 149.743 125.474" fill="#F9F9F9"/>
<path d="M79.8843 63.3986C72.4678 65.1894 66.7942 71.441 65.8611 79.1526C61.7949 80.6575 58.7638 83.0865 57.5629 85.9549C57.1927 84.4981 56.9971 82.9722 56.9971 81.4008C56.9971 71.1702 65.2894 62.8779 75.52 62.8779C77.0218 62.8779 78.4816 63.0555 79.8784 63.3957C79.8813 63.3957 79.8843 63.3986 79.8843 63.3986Z" fill="#E52E66"/>
<path d="M75.9999 99.9227C86.2298 99.9227 94.5228 91.6297 94.5228 81.3998C94.5228 71.1699 86.2298 62.877 75.9999 62.877C65.77 62.877 57.4771 71.1699 57.4771 81.3998C57.4771 91.6297 65.77 99.9227 75.9999 99.9227Z" fill="#FAB6DC"/>
<path d="M66.2055 81.399C66.2055 72.6732 72.241 65.3612 80.3638 63.3989C78.964 63.0604 77.5037 62.877 76 62.877C65.7706 62.877 57.478 71.1696 57.478 81.399C57.478 91.6284 65.7706 99.921 76 99.921C77.5037 99.921 78.9637 99.7375 80.3638 99.399C72.241 97.4367 66.2055 90.1247 66.2055 81.399Z" fill="#D9017A"/>
<path d="M94.5228 81.4008C94.5228 82.9719 94.3272 84.4981 93.957 85.9549H93.954C91.9222 81.0998 84.6535 77.5061 75.9999 77.5061C67.3434 77.5061 60.0747 81.0998 58.0429 85.9549C57.6727 84.4981 57.4771 82.9722 57.4771 81.4008C57.4771 71.1702 65.7693 62.8779 75.9999 62.8779C86.2305 62.8779 94.5228 71.1702 94.5228 81.4008Z" fill="#FDF2B8"/>
<path d="M79.8843 63.3986C72.4678 65.1894 66.7942 71.441 65.8611 79.1526C61.7949 80.6575 58.7638 83.0865 57.5629 85.9549C57.1927 84.4981 56.9971 82.9722 56.9971 81.4008C56.9971 71.1702 65.2894 62.8779 75.52 62.8779C77.0218 62.8779 78.4816 63.0555 79.8784 63.3957C79.8813 63.3957 79.8843 63.3986 79.8843 63.3986Z" fill="#FDDA24"/>
<path d="M31.5688 54.5879L10.5536 41.9767C7.66118 40.2399 5.56911 37.4288 4.73845 34.154L3.62191 29.7445C3.08308 27.6195 5.27431 25.8347 7.24882 26.7948L17.8588 31.9568C17.8585 31.9566 17.0881 45.4438 31.5688 54.5879Z" fill="#D9017A"/>
<path d="M149.743 123.217C145.913 123.217 144.149 121.835 141.917 120.086C139.469 118.167 136.694 115.993 131.306 115.993C125.917 115.993 123.143 118.167 120.695 120.086C118.462 121.835 116.699 123.217 112.869 123.217C109.039 123.217 107.275 121.835 105.043 120.086C102.595 118.167 99.8213 115.993 94.433 115.993C89.0447 115.993 86.2704 118.167 83.8227 120.086C81.5902 121.835 79.8271 123.217 75.9974 123.217C72.168 123.217 70.4049 121.835 68.1727 120.086C65.7249 118.167 62.9509 115.993 57.563 115.993C52.175 115.993 49.4007 118.167 46.953 120.086C44.7205 121.835 42.9573 123.217 39.1276 123.217C36.1657 123.217 34.4928 122.366 33.126 121.446C32.0917 120.75 30.689 121.024 29.9931 122.059C29.2969 123.093 29.5718 124.496 30.6059 125.192C32.3631 126.374 34.9197 127.732 39.1276 127.732C44.5156 127.732 47.2902 125.557 49.7379 123.639C51.9704 121.89 53.7333 120.508 57.563 120.508C61.3923 120.508 63.1555 121.89 65.3877 123.639C67.8354 125.558 70.6094 127.732 75.9974 127.732C81.3854 127.732 84.1599 125.557 86.6077 123.639C88.8402 121.889 90.6033 120.508 94.433 120.508C98.2627 120.508 100.026 121.89 102.258 123.639C104.706 125.557 107.481 127.732 112.869 127.732C118.257 127.732 121.032 125.557 123.48 123.639C125.712 121.889 127.476 120.508 131.306 120.508C135.136 120.508 136.899 121.89 139.132 123.639C141.58 125.557 144.354 127.732 149.743 127.732C150.989 127.732 152 126.721 152 125.474C152 124.228 150.99 123.217 149.743 123.217Z" fill="#212322"/>
<path d="M27.175 117.359C25.2391 116.44 23.1185 115.992 20.6921 115.992C15.3042 115.992 12.5299 118.166 10.0822 120.085C7.84966 121.834 6.08682 123.216 2.25743 123.216C1.01056 123.216 0 124.227 0 125.473C0 126.72 1.01056 127.731 2.25743 127.731C7.64511 127.731 10.4194 125.557 12.8671 123.638C15.0996 121.889 16.8625 120.507 20.6921 120.507C22.4577 120.507 23.9023 120.803 25.2379 121.437C26.3639 121.972 27.7106 121.493 28.2455 120.367C28.7805 119.241 28.3013 117.894 27.175 117.359Z" fill="#212322"/>
<path d="M149.742 106.335C145.912 106.335 144.149 104.953 141.916 103.204C139.468 101.286 136.694 99.1118 131.306 99.1118C125.917 99.1118 123.143 101.286 120.695 103.204C118.462 104.954 116.699 106.335 112.869 106.335C109.039 106.335 107.275 104.953 105.043 103.204C103.509 102.002 101.846 100.699 99.491 99.8944L113.204 72.1025C113.755 70.9845 113.296 69.6307 112.178 69.0791C111.059 68.5275 109.706 68.9871 109.155 70.1045L94.8375 99.1219C94.7022 99.119 94.5721 99.1118 94.4329 99.1118C89.0449 99.1118 86.2703 101.286 83.8226 103.204C81.5901 104.954 79.827 106.335 75.9973 106.335C72.1679 106.335 70.4048 104.953 68.1726 103.204C65.7248 101.286 62.9508 99.1118 57.5629 99.1118C57.4233 99.1118 57.2927 99.1193 57.1561 99.1219L35.1474 54.5177C34.9556 54.1291 34.656 53.8038 34.2843 53.5811L11.7166 40.0401C9.31662 38.6005 7.61642 36.3131 6.92797 33.6003L5.80994 29.1902C5.79628 29.1362 5.76006 28.9922 5.918 28.8633C6.07653 28.7348 6.20953 28.7995 6.2603 28.8238L40.6802 45.5723L58.9101 69.5975C56.5864 72.9519 55.2205 77.0178 55.2205 81.3982C55.2205 92.8561 64.5421 102.178 76 102.178C87.4578 102.178 96.7794 92.8561 96.7794 81.3982C96.7794 77.0158 95.4123 72.9483 93.0869 69.5927L111.313 45.572L145.733 28.8232C145.784 28.7989 145.917 28.7342 146.075 28.8627C146.233 28.9916 146.197 29.1356 146.183 29.1896L145.065 33.5994C144.377 36.3122 142.677 38.599 140.277 40.0392L117.709 53.5802C117.337 53.8032 117.038 54.1282 116.846 54.5171L112.074 64.1872C111.523 65.305 111.982 66.6587 113.1 67.2103C114.219 67.7625 115.572 67.3026 116.123 66.1849L120.601 57.1097L142.599 43.9104C146.029 41.8531 148.458 38.5854 149.441 34.7088L150.559 30.299C151.027 28.4542 150.401 26.5617 148.924 25.3605C147.448 24.1594 145.468 23.9302 143.757 24.7629L108.853 41.7474C108.534 41.9023 108.257 42.1304 108.042 42.4127L90.0587 66.1128C86.3564 62.7049 81.4179 60.6188 76.0003 60.6188C70.5802 60.6188 65.6405 62.7064 61.937 66.1175L43.9509 42.4136C43.7365 42.1312 43.459 41.9032 43.1404 41.7483L8.2354 24.7647C6.52392 23.9319 4.54377 24.1605 3.06801 25.362C1.59195 26.5631 0.965541 28.4554 1.43342 30.3002L2.55144 34.7103C3.53469 38.5869 5.96461 41.8543 9.39321 43.9116L31.3919 57.1109L52.5023 99.8947C50.149 100.7 48.4862 102.002 46.9523 103.204C44.7198 104.954 42.9566 106.335 39.127 106.335C35.2973 106.335 33.5339 104.953 31.3017 103.204C28.8539 101.286 26.0796 99.1115 20.6917 99.1115C15.3037 99.1115 12.5294 101.286 10.0817 103.204C7.84917 104.953 6.08633 106.335 2.25694 106.335C1.01007 106.335 -0.000488281 107.346 -0.000488281 108.593C-0.000488281 109.839 1.01007 110.85 2.25694 110.85C7.64462 110.85 10.4189 108.676 12.8666 106.758C15.0991 105.008 16.862 103.626 20.6917 103.626C24.5213 103.626 26.2845 105.008 28.5167 106.758C30.9644 108.676 33.7387 110.85 39.127 110.85C44.5152 110.85 47.2895 108.676 49.7373 106.758C51.9698 105.008 53.7326 103.626 57.5623 103.626C61.3917 103.626 63.1548 105.008 65.387 106.758C67.8347 108.676 70.6087 110.85 75.9967 110.85C81.3847 110.85 84.1593 108.676 86.607 106.758C88.8395 105.008 90.6026 103.626 94.4323 103.626C98.262 103.626 100.025 105.008 102.258 106.758C104.706 108.676 107.48 110.85 112.868 110.85C118.256 110.85 121.031 108.676 123.479 106.758C125.712 105.008 127.475 103.626 131.305 103.626C135.135 103.626 136.899 105.008 139.131 106.758C141.579 108.676 144.354 110.85 149.742 110.85C150.989 110.85 151.999 109.839 151.999 108.593C151.999 107.346 150.99 106.335 149.742 106.335ZM76 97.6634C68.6924 97.6634 62.496 92.8187 60.4515 86.1729C62.3417 82.8894 68.0464 79.7642 76.0008 79.7642C83.9544 79.7642 89.6588 82.8903 91.5482 86.1744C89.503 92.8196 83.3072 97.6634 76 97.6634ZM76 65.1343C84.5627 65.1343 91.5963 71.7869 92.2152 80.1947C88.3971 77.1167 82.5466 75.2494 76.0008 75.2494C69.4545 75.2494 63.6034 77.1164 59.7847 80.1941C60.4043 71.7866 67.4375 65.1343 76 65.1343Z" fill="#212322"/>
<path d="M141.916 86.3239C139.468 84.4058 136.694 82.2314 131.306 82.2314C125.917 82.2314 123.143 84.4058 120.695 86.3239C118.462 88.0736 116.699 89.455 112.869 89.455C111.622 89.455 110.611 90.4658 110.611 91.7124C110.611 92.959 111.622 93.9699 112.869 93.9699C118.257 93.9699 121.032 91.7955 123.48 89.8774C125.712 88.1277 127.476 86.7463 131.306 86.7463C135.136 86.7463 136.899 88.1283 139.132 89.8774C141.58 91.7955 144.354 93.9699 149.742 93.9699C150.989 93.9699 152 92.959 152 91.7124C152 90.4658 150.989 89.455 149.742 89.455C145.912 89.455 144.149 88.073 141.916 86.3239Z" fill="#212322"/>
<path d="M2.25792 93.9699C7.6456 93.9699 10.4199 91.7955 12.8676 89.8774C15.1001 88.1277 16.863 86.7463 20.6926 86.7463C24.5223 86.7463 26.2855 88.1283 28.5176 89.8774C30.9654 91.7958 33.7397 93.9699 39.1279 93.9699C40.3748 93.9699 41.3854 92.959 41.3854 91.7124C41.3854 90.4658 40.3748 89.455 39.1279 89.455C35.2983 89.455 33.5348 88.073 31.3026 86.3239C28.8549 84.4058 26.0806 82.2314 20.6926 82.2314C15.3047 82.2314 12.5304 84.4058 10.0826 86.3239C7.85015 88.0733 6.0873 89.455 2.25792 89.455C1.01105 89.455 0.000488281 90.4658 0.000488281 91.7124C0.000488281 92.959 1.01105 93.9699 2.25792 93.9699Z" fill="#212322"/>
<path d="M72.4879 83.6377H67.8727C66.6258 83.6377 65.6152 84.6485 65.6152 85.8951C65.6152 87.1417 66.6258 88.1525 67.8727 88.1525H72.4879C73.7347 88.1525 74.7453 87.1417 74.7453 85.8951C74.7453 84.6485 73.735 83.6377 72.4879 83.6377Z" fill="#212322"/>
<path d="M84.1265 83.6377H79.5113C78.2645 83.6377 77.2539 84.6485 77.2539 85.8951C77.2539 87.1417 78.2645 88.1525 79.5113 88.1525H84.1265C85.3734 88.1525 86.384 87.1417 86.384 85.8951C86.384 84.6485 85.3737 83.6377 84.1265 83.6377Z" fill="#212322"/>
</g>
<defs>
<clipPath id="clip0">
<rect width="152" height="152" fill="white"/>
</clipPath>
</defs>
</svg>
