<svg width="153" height="153" viewBox="0 0 153 153" fill="none" xmlns="http://www.w3.org/2000/svg">
<path d="M153 76.5C153 118.75 118.75 153 76.5 153C34.2502 153 0 118.75 0 76.5C0 34.2502 34.2502 0 76.5 0C118.75 0 153 34.2502 153 76.5Z" fill="#F2F0E8"/>
<path d="M45.2421 47.3633L75.4394 77.5606L77.5608 75.4393L47.3634 45.242L45.2421 47.3633ZM75.4394 77.5606L105.637 107.758L107.758 105.637L77.5608 75.4393L75.4394 77.5606ZM47.3634 107.758L77.5608 77.5606L75.4394 75.4393L45.2421 105.637L47.3634 107.758ZM77.5608 77.5606L107.758 47.3633L105.637 45.242L75.4394 75.4393L77.5608 77.5606Z" fill="#212322"/>
</svg>
