<svg width="177" height="176" viewBox="0 0 177 176" fill="none" xmlns="http://www.w3.org/2000/svg">
<path d="M173.422 32.7182L118.14 88.0004L173.422 143.282L166.131 150.577L103.5 88.0004L166.131 25.4272L173.422 32.7182Z" fill="#4A5E6E"/>
<path d="M166.131 25.4273L103.555 88.0003L166.131 150.577L143.282 173.423L87.9998 118.14L32.7178 173.423L2.57764 143.282L57.8597 88.0003L2.57764 32.7182L32.7178 2.57812L87.9998 57.8602L143.282 2.57812L166.131 25.4273Z" fill="#768590"/>
<path d="M121.787 88.0004L175.246 34.5419C176.253 33.5347 176.253 31.9025 175.246 30.8957L145.105 0.755222C144.622 0.271564 143.966 0 143.282 0C142.599 0 141.943 0.271564 141.459 0.754878L88.0004 54.2137L34.5422 0.755222C33.535 -0.251282 31.9029 -0.251282 30.896 0.755222L0.755222 30.8957C0.271564 31.3794 0 32.0352 0 32.719C0 33.4027 0.271564 34.0582 0.754878 34.5422L54.2141 88.0004L32.0418 110.172C31.0349 111.179 31.0349 112.811 32.0418 113.818C33.0486 114.824 34.6807 114.825 35.6879 113.818L59.6832 89.8233C60.1665 89.3396 60.438 88.6841 60.438 88C60.438 87.316 60.1665 86.6608 59.6832 86.1768L6.22431 32.719L32.7189 6.22431L86.1774 59.6832C87.1846 60.6897 88.8168 60.6897 89.8236 59.6832L143.282 6.22431L169.777 32.719L116.318 86.1775C115.311 87.1847 115.311 88.8168 116.318 89.8236L169.777 143.282L143.282 169.777L89.8236 116.318C88.8164 115.311 87.1843 115.311 86.1774 116.318L32.7189 169.777L6.22431 143.282L28.3963 121.111C29.4031 120.103 29.4031 118.471 28.3963 117.464C27.3887 116.458 25.7566 116.458 24.7501 117.464L0.755222 141.459C-0.251626 142.466 -0.251626 144.098 0.755222 145.105L30.896 175.246C31.3996 175.749 32.0596 176.001 32.7193 176.001C33.3789 176.001 34.0389 175.749 34.5425 175.246L88.0004 121.787L141.459 175.246C141.943 175.729 142.598 176.001 143.282 176.001C143.967 176.001 144.622 175.729 145.106 175.246L175.246 145.105C176.253 144.098 176.253 142.466 175.246 141.459L121.787 88.0004Z" fill="#212322"/>
</svg>
