<svg width="266" height="209" viewBox="0 0 266 209" fill="none" xmlns="http://www.w3.org/2000/svg">
<path d="M90.1654 146.421L232.252 3.89062L261.505 33.2349L90.1655 205.109L4.49561 119.172L33.7481 89.8281L90.1654 146.421Z" fill="url(#paint0_linear)"/>
<path d="M264.247 30.4841L234.994 1.13966C234.267 0.41032 233.28 0 232.252 0C231.223 0 230.237 0.409801 229.51 1.13966L90.1653 140.919L36.4908 87.0772C35.7632 86.3478 34.777 85.9375 33.7485 85.9375C32.7199 85.9375 31.7332 86.3473 31.0062 87.0772L1.75317 116.421C0.238526 117.94 0.238526 120.404 1.75317 121.923L87.423 207.86C88.1801 208.62 89.1729 209 90.1653 209C91.1576 209 92.1505 208.62 92.9076 207.86L264.247 35.9858C265.762 34.4664 265.762 32.0035 264.247 30.4841ZM90.1653 199.607L9.98056 119.172L33.7485 95.3303L87.423 149.173C88.9376 150.692 91.3934 150.692 92.9076 149.173L232.252 9.39276L256.02 33.2349L90.1653 199.607Z" fill="#212322"/>
<defs>
<linearGradient id="paint0_linear" x1="133" y1="205.109" x2="133" y2="3.89063" gradientUnits="userSpaceOnUse">
<stop stop-color="#D9017A"/>
<stop offset="0.0001" stop-color="#D9017A"/>
<stop offset="1" stop-color="#FDDA24"/>
</linearGradient>
</defs>
</svg>
