<?xml version="1.0" standalone="yes"?>
<svg width="33" height="39" viewBox="0 0 33 39" fill="none" xmlns="http://www.w3.org/2000/svg">
<path d="M29.0413 9.85679C28.551 4.33585 23.9023 0 18.2554 0H5.45382C5.05712 0 4.72097 0.283893 4.66575 0.676787L0.191412 32.509C0.159191 32.7375 0.227517 32.9746 0.378719 33.1487C0.52992 33.3228 0.749066 33.4285 0.979563 33.4285H4.96648C4.5908 36.0324 4.1835 38.0182 4.17962 38.0385C4.1314 38.2724 4.19127 38.5192 4.34247 38.7042C4.49368 38.89 4.71983 39 4.95924 39H13.1734C13.569 39 13.9048 38.6685 13.9612 38.2767L15.4558 27.8571H22.3556C28.1237 27.8571 32.8164 23.3146 32.8164 17.6816C32.8163 14.6186 31.4414 11.8069 29.0413 9.85679ZM6.14569 1.59184H18.2555C23.3501 1.59184 27.4948 5.75022 27.4948 10.8518C27.4948 15.9417 23.3501 20.0969 18.2555 20.0969H10.5916C10.1948 20.0969 9.85869 20.3751 9.80347 20.7684L8.24621 31.8366H1.89522L6.14569 1.59184ZM22.3555 26.2653H14.7663C14.3707 26.2653 14.0348 26.5968 13.9785 26.9885L12.4838 37.4082H5.92327C6.0811 36.6122 6.31776 35.2151 6.54278 33.6543C6.55405 33.5758 6.54978 33.4286 6.53866 33.4286H8.93785C9.33463 33.4286 9.67078 33.1503 9.726 32.757L11.2833 21.6888H18.2553C23.8234 21.6888 28.4215 17.446 29.0189 12.0328C30.4341 13.5961 31.2244 15.5594 31.2244 17.6888C31.2244 22.4441 27.2461 26.2653 22.3555 26.2653Z" fill="#212322"/>
</svg>
