<svg width="100" height="100" viewBox="0 0 100 100" fill="none" xmlns="http://www.w3.org/2000/svg">
<path d="M61.6391 47.5219C62.2696 47.5219 62.7811 47.011 62.7811 46.3799V44.2511C62.7811 43.6207 62.2696 43.1091 61.6391 43.1091C61.008 43.1091 60.4971 43.6207 60.4971 44.2511V46.3799C60.4971 47.011 61.008 47.5219 61.6391 47.5219Z" fill="white"/>
<path d="M39.7416 47.5219C40.3727 47.5219 40.8836 47.011 40.8836 46.3799V44.2511C40.8836 43.6207 40.3727 43.1091 39.7416 43.1091C39.1111 43.1091 38.5996 43.6207 38.5996 44.2511V46.3799C38.5996 47.011 39.1111 47.5219 39.7416 47.5219Z" fill="white"/>
<path d="M50.6903 50.5309C51.783 50.5309 52.8102 50.0729 53.5085 49.2741C53.9236 48.7994 53.8749 48.0779 53.4002 47.6628C52.925 47.2476 52.2041 47.2958 51.7889 47.771C51.5242 48.0732 51.1239 48.2469 50.6903 48.2469C50.2567 48.2469 49.8564 48.0732 49.5917 47.771C49.1772 47.2958 48.4551 47.2476 47.9804 47.6628C47.5052 48.0779 47.457 48.7994 47.8722 49.2741C48.5699 50.0729 49.5977 50.5309 50.6903 50.5309Z" fill="white"/>
<path d="M90.2931 19.2151C91.0408 20.7235 92.5962 21.7638 94.3907 21.7638C96.9108 21.7644 98.9611 19.7141 98.9611 17.194C98.9611 14.6738 96.9108 12.6236 94.3907 12.6236C91.9591 12.6236 89.9654 14.5335 89.8286 16.9317C85.2011 18.7833 82.145 23.2502 82.145 28.2976V71.9758C82.145 77.0292 85.1987 81.4913 89.8292 83.3423C89.9654 85.7405 91.9591 87.6498 94.3913 87.6498C96.9108 87.6498 98.9611 85.5996 98.9611 83.0794C98.9611 80.5599 96.9108 78.5096 94.3913 78.5096C92.5962 78.5096 91.0402 79.5499 90.2931 81.0595C86.7446 79.4654 84.4296 75.9449 84.4296 71.9758V67.7504H89.9654C90.4739 69.7197 92.2655 71.1782 94.3913 71.1782C96.9108 71.1782 98.9611 69.1285 98.9611 66.6084C98.9611 64.0882 96.9108 62.0379 94.3913 62.0379C92.2655 62.0379 90.4739 63.497 89.9654 65.4663H84.4296V51.2787H89.9654C90.4739 53.2481 92.2655 54.7071 94.3913 54.7071C96.9108 54.7071 98.9611 52.6568 98.9611 50.1367C98.9611 47.6171 96.9108 45.5669 94.3907 45.5669C92.2649 45.5669 90.4739 47.0259 89.9654 48.9947H84.429V34.8076H89.9654C90.4739 36.7764 92.2649 38.2354 94.3907 38.2354C96.9108 38.2354 98.9611 36.1852 98.9611 33.6656C98.9611 31.1455 96.9108 29.0952 94.3907 29.0952C92.2649 29.0952 90.4739 30.5543 89.9654 32.5236H84.429V28.2976C84.429 24.3333 86.7458 20.8091 90.2931 19.2151ZM94.3907 14.9076C95.6516 14.9076 96.6771 15.933 96.6771 17.194C96.6771 18.4543 95.6516 19.4798 94.3907 19.4798C93.1303 19.4798 92.1049 18.4543 92.1049 17.194C92.1049 15.933 93.1303 14.9076 94.3907 14.9076ZM94.3907 80.7936C95.6516 80.7936 96.6771 81.819 96.6771 83.08C96.6771 84.3404 95.6516 85.3658 94.3907 85.3658C93.1303 85.3658 92.1049 84.3404 92.1049 83.08C92.1049 81.819 93.1303 80.7936 94.3907 80.7936ZM94.3907 64.3226C95.6516 64.3226 96.6771 65.348 96.6771 66.6084C96.6771 67.8693 95.6516 68.8947 94.3907 68.8947C93.1303 68.8947 92.1049 67.8693 92.1049 66.6084C92.1049 65.348 93.1303 64.3226 94.3907 64.3226ZM94.3907 47.8509C95.6516 47.8509 96.6771 48.8763 96.6771 50.1367C96.6771 51.3977 95.6516 52.4231 94.3907 52.4231C93.1303 52.4231 92.1049 51.3977 92.1049 50.1367C92.1049 48.8763 93.1303 47.8509 94.3907 47.8509ZM94.3907 31.3792C95.6516 31.3792 96.6771 32.4047 96.6771 33.6656C96.6771 34.926 95.6516 35.9514 94.3907 35.9514C93.1303 35.9514 92.1049 34.926 92.1049 33.6656C92.1049 32.4047 93.1303 31.3792 94.3907 31.3792Z" fill="white"/>
<path d="M78.8534 54.6993V49.1166C79.8068 47.9573 80.3808 46.4739 80.3808 44.8584C80.3808 43.0187 79.6361 41.3491 78.4322 40.1357C77.4746 34.7832 74.9212 29.872 71.0294 25.913C70.5875 25.4633 69.8648 25.4568 69.4145 25.8987C68.9649 26.3407 68.9589 27.0639 69.4009 27.5136C72.4587 30.6256 74.616 34.3746 75.7218 38.4673C75.7134 38.465 75.7057 38.4632 75.698 38.4602C74.735 38.1539 73.7 38.073 72.7008 38.2169C71.9823 38.321 71.2923 38.5387 70.6464 38.8647C65.549 40.2244 60.2987 39.585 55.905 38.3734C55.8954 38.371 55.8853 38.368 55.8758 38.3656C50.9741 37.0113 46.1117 34.7725 41.9314 31.8556C41.4342 31.5088 40.7401 31.4862 40.3124 32.0019C39.1389 33.4175 37.7506 34.6708 36.2113 35.6902C33.9992 37.1552 31.2602 38.1955 28.5753 38.1961C28.1054 38.1961 27.6486 38.1301 27.1752 38.1682C26.6696 38.2092 26.1682 38.3067 25.684 38.4602C25.6769 38.4626 25.6691 38.465 25.6614 38.4667C26.9866 33.5853 29.8238 29.1606 33.8125 25.819C38.5066 21.8868 44.501 19.7212 50.6904 19.7212C56.2815 19.7212 61.6085 21.4342 66.0956 24.6746C66.6065 25.044 67.3203 24.9286 67.6902 24.4177C68.059 23.9062 67.9442 23.1924 67.4327 22.823C62.5536 19.2995 56.7644 17.4372 50.6904 17.4372C43.965 17.4372 37.4503 19.792 32.3457 24.0685C27.3899 28.2202 24.0638 33.9136 22.9491 40.1346C21.7453 41.3485 21 43.0181 21 44.8584C21 46.4739 21.5734 47.9573 22.5274 49.1166V54.6993C22.5274 57.7149 23.2525 60.7305 24.6241 63.4208C24.9108 63.9829 25.5984 64.2059 26.1604 63.9192C26.7219 63.6331 26.9456 62.9455 26.6589 62.3835C25.4503 60.0126 24.8114 57.3557 24.8114 54.6993V50.917C25.2998 51.1514 25.8167 51.3232 26.352 51.4321C26.754 51.5148 27.1686 51.5618 27.5796 51.5701C29.7149 58.4995 35.03 64.0435 41.9166 66.6428C41.0975 67.1638 40.1738 67.8633 39.2602 68.7799C39.2525 68.7876 39.2447 68.7954 39.237 68.8031C38.4257 69.6203 37.6233 70.6083 36.9114 71.8009L32.3862 68.8031C31.1175 67.9627 29.9659 66.9521 28.9631 65.7988C28.5497 65.3229 27.8282 65.2724 27.3524 65.6864C26.876 66.0998 26.8254 66.8212 27.2394 67.2977C28.3772 68.6062 29.684 69.7536 31.1246 70.7076L35.8812 73.8589C35.0086 75.9371 34.4097 78.5197 34.4097 81.6947C34.4097 82.3252 34.9212 82.8367 35.5517 82.8367H65.8285C66.459 82.8367 66.9705 82.3252 66.9705 81.6947C66.9705 78.5197 66.3716 75.9371 65.4984 73.8589L70.2556 70.7076C75.6391 67.1412 78.8534 61.157 78.8534 54.6993ZM76.6134 48.1625C75.9912 48.7192 75.2132 49.0928 74.3888 49.2284C74.4013 49.1647 74.412 49.1011 74.4239 49.0375C74.6803 47.6605 74.8099 46.2592 74.8099 44.8584C74.8099 43.6082 74.707 42.3555 74.5018 41.1219C74.4673 40.9108 74.4299 40.7002 74.3894 40.4902C75.0342 40.5973 75.6534 40.8465 76.1905 41.2201C77.3414 42.0207 78.0968 43.353 78.0968 44.8584C78.0968 46.1033 77.5412 47.3328 76.6134 48.1625ZM24.8923 48.2708C23.883 47.4363 23.284 46.1682 23.284 44.8584C23.284 43.353 24.0394 42.0207 25.1915 41.2201C25.1963 41.2171 25.2004 41.2135 25.2052 41.2099C25.6965 40.8733 26.277 40.6259 26.8724 40.5111C26.9117 40.5033 26.9515 40.4968 26.9914 40.4902C26.9497 40.7032 26.9123 40.9161 26.8772 41.1302C26.6738 42.3603 26.5703 43.6111 26.5703 44.8584C26.5703 46.3228 26.7112 47.7914 26.992 49.2284C26.2062 49.0993 25.4895 48.7627 24.9001 48.2767C24.8977 48.2749 24.8947 48.2725 24.8923 48.2708ZM31.1359 40.2089C34.4656 39.5659 37.5811 37.8642 40.0626 35.579C40.3493 35.3149 41.3753 34.2395 41.3872 34.2467C44.2821 36.15 53.9386 41.9225 64.5485 41.9225C67.2061 41.9225 69.7482 41.5514 72.1244 40.818C72.128 40.8376 72.1328 40.8566 72.1369 40.8757C72.6722 43.6046 72.6586 46.4685 72.0632 49.1867C70.296 57.342 63.6391 63.7806 55.2019 65.4996C52.2404 66.1027 49.1392 66.1099 46.1783 65.4996C37.7417 63.78 31.0853 57.342 29.3176 49.1879C28.9566 47.5207 28.8049 45.7714 28.8721 44.0525C28.9197 42.8415 29.0738 41.6334 29.3343 40.4492C29.9398 40.4046 30.5411 40.3237 31.1359 40.2089ZM50.6904 68.2374C51.7741 68.2374 54.0153 68.0162 54.0569 68.0108C52.9673 69.5145 51.6409 70.8724 50.6904 70.8724C49.7393 70.8724 48.4129 69.5133 47.3233 68.0108C47.3655 68.0162 49.6079 68.2374 50.6904 68.2374ZM38.3121 73.9974C38.3222 73.9802 38.3341 73.9641 38.343 73.9457C39.9121 70.7659 42.2943 69.0232 43.8259 68.1732V80.5527H36.7222C36.8459 78.0932 37.3801 75.9044 38.3121 73.9974ZM46.1099 70.1961C47.3375 71.7045 48.9661 73.1564 50.6904 73.1564C52.4147 73.1564 54.0433 71.7045 55.2703 70.1961V80.5527H46.1099V70.1961ZM57.5543 80.5527V68.1732C59.0865 69.0232 61.4681 70.7659 63.0372 73.9457C63.0508 73.9737 63.0669 73.9992 63.0824 74.0254C64.0061 75.9252 64.5348 78.1051 64.6586 80.5527H57.5543ZM64.4688 71.8015C62.9485 69.2528 61.0166 67.6296 59.4654 66.6428C66.3514 64.0429 71.6653 58.4995 73.8012 51.5701C73.8363 51.5695 73.8708 51.5665 73.9053 51.5653C74.8248 51.5338 75.7396 51.3155 76.5693 50.917V54.6999C76.5693 60.3891 73.7375 65.662 68.994 68.8037L64.4688 71.8015Z" fill="white"/>
</svg>
