<?xml version="1.0" standalone="yes"?>
<svg width="100" height="100" viewBox="0 0 100 100" fill="none" xmlns="http://www.w3.org/2000/svg">
<path d="M88.6754 43.2237H87.3717C86.4237 43.2237 85.5348 43.48 84.7705 43.9267V33.1136C84.7705 29.3651 81.7211 26.3158 77.9727 26.3158H55.7318C53.4615 26.3158 51.4474 27.4343 50.2124 29.1494C48.9773 27.4343 46.9633 26.3158 44.693 26.3158H22.4521C18.7037 26.3158 15.6543 29.3651 15.6543 33.1136V34.8886C15.6543 35.595 16.2269 36.1669 16.9326 36.1669C17.6384 36.1669 18.211 35.595 18.211 34.8886V33.1136C18.211 30.7746 20.1131 28.8724 22.4521 28.8724H44.693C47.0319 28.8724 48.9341 30.7746 48.9341 33.1136V54.3478H24.4628C22.0266 54.3478 19.8182 55.3438 18.2236 56.949L18.211 40.8508C18.211 40.1444 17.6384 39.5724 16.9326 39.5724C16.2262 39.5724 15.6543 40.1444 15.6543 40.8508V43.9267C14.8893 43.48 14.0005 43.2237 13.053 43.2237H11.7494C8.89849 43.2237 6.57886 45.5433 6.57886 48.3942V68.6058C6.57886 71.3109 8.77931 73.5113 11.4844 73.5113H88.9404C91.6455 73.5113 93.8459 71.3109 93.8459 68.6058V48.3942C93.8459 45.5433 91.5263 43.2237 88.6754 43.2237ZM51.4907 33.1136C51.4907 30.7746 53.3929 28.8724 55.7318 28.8724H77.9727C80.3117 28.8724 82.2138 30.7746 82.2138 33.1136L82.2005 56.9364C80.6073 55.3385 78.4048 54.3484 75.9753 54.3484H51.4907V33.1136ZM24.4628 56.9051H75.9753C78.9781 56.9051 81.4914 59.037 82.082 61.8666H18.3554C18.946 59.037 21.46 56.9051 24.4628 56.9051ZM91.2893 68.6058C91.2893 69.9014 90.2353 70.9547 88.9404 70.9547H11.4844C10.1888 70.9547 9.13551 69.9014 9.13551 68.6058V48.3942C9.13551 46.9528 10.308 45.7803 11.7494 45.7803H13.053C14.4106 45.7803 15.5305 46.821 15.6556 48.1465C15.657 48.1758 15.6676 63.1449 15.6676 63.1449C15.6676 63.8507 16.2395 64.4232 16.946 64.4232C16.946 64.4232 83.5754 64.4206 83.6227 64.4153C84.2678 64.35 84.7705 63.8054 84.7705 63.1436C84.7705 62.9811 84.7678 48.1752 84.7692 48.1452C84.895 46.8203 86.0142 45.7803 87.3717 45.7803H88.6747C90.1162 45.7803 91.2893 46.9528 91.2893 48.3942V68.6058Z" fill="white"/>
<path d="M23.3874 77.0087C22.7303 76.7504 21.9886 77.0746 21.7309 77.7324C21.7309 77.7324 17.1722 89.3625 17.1722 89.3632C16.8566 90.1688 15.0517 89.9584 15.2654 88.9651L17.5224 78.4675C17.6709 77.777 17.2315 77.0972 16.541 76.9488C15.8513 76.7996 15.1708 77.2397 15.0224 77.9302C15.0224 77.9302 12.7666 88.4224 12.7653 88.4278C12.3658 90.2867 13.6655 92.0277 15.5064 92.3253C17.1676 92.5943 18.9113 91.9312 19.5524 90.296L24.1111 78.6652C24.3688 78.0081 24.0446 77.2664 23.3874 77.0087Z" fill="white"/>
<path d="M85.4017 77.9302C85.2539 77.2398 84.5728 76.801 83.8837 76.9488C83.1932 77.0973 82.7538 77.7771 82.9023 78.4675C82.9023 78.4675 85.158 88.9564 85.1593 88.9651C85.3691 89.9378 83.5614 90.1529 83.2525 89.3632L78.6938 77.7325C78.4361 77.0753 77.6944 76.7504 77.0373 77.0087C76.3802 77.2664 76.0559 78.0081 76.3136 78.6652C76.3136 78.6652 80.8703 90.2913 80.8723 90.296C81.628 92.2255 84.124 92.9339 85.917 92.0237C87.2366 91.354 87.9723 89.8839 87.6587 88.4278L85.4017 77.9302Z" fill="white"/>
</svg>
