<svg width="69" height="69" viewBox="0 0 69 69" fill="none" xmlns="http://www.w3.org/2000/svg">
<path d="M12.8789 27.9962V52.6055C12.8789 54.5471 14.4529 56.1212 16.3945 56.1212H52.6055C54.5471 56.1212 56.1211 54.5471 56.1211 52.6055V27.9962L36.6712 13.6064C35.381 12.6519 33.6189 12.6519 32.3288 13.6064L12.8789 27.9962Z" fill="#F2F0E8"/>
<path d="M20.5254 12.8789H43.5088L51.5068 20.8758V53.2207C51.5068 54.8225 50.2083 56.1211 48.6064 56.1211H20.5254C18.9236 56.1211 17.625 54.8225 17.625 53.2207V51.375V15.7793C17.625 14.1775 18.9236 12.8789 20.5254 12.8789Z" fill="#F2F0E8"/>
<path d="M43.5088 12.9814V18.7236C43.5088 19.9129 44.4729 20.8769 45.6621 20.8769H51.4043L43.5088 12.9814Z" fill="#F2F0E8"/>
<path d="M40.8697 43.2475H28.1303L12.8789 27.9961V52.6055C12.8789 54.5471 14.4529 56.1211 16.3945 56.1211H52.6055C54.5471 56.1211 56.1211 54.5471 56.1211 52.6055V27.9961L40.8697 43.2475Z" fill="#F2F0E8"/>
<path d="M38.9801 41.3579C36.5059 38.8836 32.4943 38.8836 30.0201 41.3579L15.4004 55.9776C15.7157 56.0704 16.0492 56.1211 16.3946 56.1211H52.6055C52.951 56.1211 53.2844 56.0704 53.5998 55.9776L38.9801 41.3579Z" fill="#F2F0E8"/>
<path d="M56.7354 27.3681C56.7151 27.3453 56.6832 27.3178 56.6364 27.284L52.2539 24.113V20.6118C52.2539 20.5999 52.2533 20.5893 52.2525 20.5787C52.2442 20.3616 52.1563 20.1502 51.9964 19.9902L44.262 12.2573C44.1166 12.1119 43.9284 12.0276 43.7323 12.0069C43.7205 12.0048 43.7076 12.0033 43.6933 12.0021C43.6899 12.0019 43.6866 12.0013 43.6833 12.0012C43.6701 12.0004 43.6559 12 43.6406 12H19.3828C17.9289 12 16.7461 13.1828 16.7461 14.6367C16.7461 15.1221 17.1397 15.5156 17.625 15.5156C18.1103 15.5156 18.5039 15.1221 18.5039 14.6367C18.5039 14.1521 18.8982 13.7578 19.3828 13.7578H42.7617V18.854C42.7617 20.3079 43.9446 21.4907 45.3984 21.4907H50.4961V32.3781L40.8697 42.0045L39.6015 40.7364C36.7885 37.9233 32.2115 37.9233 29.3985 40.7364L28.1303 42.0045L18.5039 32.3781V22.1953H23.4065C23.8919 22.1953 24.2854 21.8017 24.2854 21.3164C24.2854 20.8311 23.8919 20.4375 23.4065 20.4375H15.0322C14.5469 20.4375 14.1533 20.8311 14.1533 21.3164C14.1533 21.8017 14.5469 22.1953 15.0322 22.1953H16.7461V24.113L12.3637 27.284C12.3546 27.2906 12.3471 27.2968 12.3395 27.3032C12.1332 27.4641 12 27.7142 12 27.9961V52.6055C12 55.0286 13.9714 57 16.3945 57H52.6055C55.0286 57 57 55.0286 57 52.6055V27.9961C57 27.7499 56.8985 27.5277 56.7354 27.3681ZM45.3984 19.7329C44.9138 19.7329 44.5195 19.3386 44.5195 18.854V15.0005L49.2528 19.733L45.3984 19.7329ZM52.2539 26.2828L54.7705 28.1038L52.2539 30.6202V26.2828ZM30.6415 41.9794C32.7691 39.8518 36.231 39.8518 38.3586 41.9794L46.8753 50.4961H32.7433C32.258 50.4961 31.8644 50.8897 31.8644 51.375C31.8644 51.8603 32.258 52.2539 32.7433 52.2539H48.3644C48.4461 52.2539 48.525 52.2419 48.6001 52.2209L51.6214 55.2422H17.3786L24.5857 48.0352H30.6328C31.1181 48.0352 31.5117 47.6416 31.5117 47.1562C31.5117 46.6709 31.1181 46.2773 30.6328 46.2773H26.3435L30.6415 41.9794ZM16.7461 30.6202L14.2295 28.1037L16.7461 26.2828V30.6202ZM13.7578 52.6055V30.118L26.8874 43.2476L15.2505 54.8844C15.2293 54.9056 15.2095 54.9275 15.1909 54.9503C14.3409 54.5121 13.7578 53.6259 13.7578 52.6055ZM53.809 54.9502C53.7905 54.9275 53.7706 54.9055 53.7495 54.8843L52.7812 53.9161V44.5927C52.7812 44.1073 52.3877 43.7138 51.9023 43.7138C51.417 43.7138 51.0234 44.1073 51.0234 44.5927V52.1583L42.1126 43.2475L55.2422 30.118V52.6055C55.2422 53.6259 54.6591 54.5121 53.809 54.9502Z" fill="#212322"/>
<path d="M51.9023 40.1171C51.6712 40.1171 51.4444 40.211 51.281 40.3746C51.1175 40.5381 51.0234 40.7648 51.0234 40.996C51.0234 41.2271 51.1174 41.4539 51.281 41.6173C51.4444 41.7807 51.6712 41.8749 51.9023 41.8749C52.1335 41.8749 52.3603 41.7808 52.5236 41.6173C52.6871 41.4539 52.7812 41.2271 52.7812 40.996C52.7812 40.7648 52.6872 40.5381 52.5236 40.3746C52.3603 40.211 52.1335 40.1171 51.9023 40.1171Z" fill="#212322"/>
<path d="M23.4064 18.6797C23.8917 18.6797 24.2853 18.2861 24.2853 17.8008C24.2853 17.3154 23.8917 16.9219 23.4064 16.9219H19.3406C18.8552 16.9219 18.4617 17.3154 18.4617 17.8008C18.4617 18.2861 18.8552 18.6797 19.3406 18.6797H23.4064Z" fill="#212322"/>
<path d="M16.0869 18.6797C16.3181 18.6797 16.5448 18.5856 16.7082 18.4221C16.8718 18.2587 16.9658 18.0319 16.9658 17.8008C16.9658 17.5696 16.8718 17.3429 16.7082 17.1794C16.5448 17.0158 16.3181 16.9219 16.0869 16.9219C15.8558 16.9219 15.629 17.0158 15.4655 17.1794C15.3021 17.343 15.208 17.5696 15.208 17.8008C15.208 18.0319 15.302 18.2587 15.4655 18.4221C15.629 18.5856 15.8558 18.6797 16.0869 18.6797Z" fill="#212322"/>
<path d="M12.8789 18.6797C13.1101 18.6797 13.3368 18.5856 13.5002 18.4221C13.6638 18.2587 13.7578 18.0319 13.7578 17.8008C13.7578 17.5696 13.6638 17.3429 13.5002 17.1794C13.3368 17.0158 13.1101 16.9219 12.8789 16.9219C12.6478 16.9219 12.421 17.0158 12.2575 17.1794C12.094 17.343 12 17.5687 12 17.8008C12 18.0319 12.094 18.2587 12.2575 18.4221C12.421 18.5856 12.6478 18.6797 12.8789 18.6797Z" fill="#212322"/>
<path d="M29.3145 31.1602V28.875H30.5759C31.9329 28.875 33.0369 27.771 33.0369 26.4141C33.0369 25.0571 31.9329 23.9531 30.5759 23.9531H28.4355C27.9502 23.9531 27.5566 24.3467 27.5566 24.832V27.9961V31.1602C27.5566 31.6455 27.9502 32.0391 28.4355 32.0391C28.9209 32.0391 29.3145 31.6455 29.3145 31.1602ZM29.3145 25.7109H30.5759C30.9636 25.7109 31.2791 26.0264 31.2791 26.4141C31.2791 26.8017 30.9636 27.1172 30.5759 27.1172H29.3145V25.7109Z" fill="#212322"/>
<path d="M23.4673 25.7109C23.9439 25.7109 24.3316 26.0264 24.3316 26.4141C24.3316 26.8994 24.7251 27.293 25.2105 27.293C25.6958 27.293 26.0894 26.8994 26.0894 26.4141C26.0894 25.0571 24.9131 23.9531 23.4673 23.9531C22.0215 23.9531 20.8452 25.0571 20.8452 26.4141C20.8452 27.771 22.0215 28.875 23.4673 28.875C23.9439 28.875 24.3316 29.1904 24.3316 29.5781C24.3316 29.9658 23.9439 30.2812 23.4673 30.2812C22.9907 30.2812 22.603 29.9658 22.603 29.5781C22.603 29.0928 22.2095 28.6992 21.7241 28.6992C21.2388 28.6992 20.8452 29.0928 20.8452 29.5781C20.8452 30.9351 22.0215 32.0391 23.4673 32.0391C24.9131 32.0391 26.0894 30.9351 26.0894 29.5781C26.0894 28.2212 24.9131 27.1172 23.4673 27.1172C22.9907 27.1172 22.603 26.8017 22.603 26.4141C22.603 26.0264 22.9907 25.7109 23.4673 25.7109Z" fill="#212322"/>
<path d="M39.6295 30.8515L37.2565 24.5234C37.1278 24.1804 36.7999 23.9531 36.4335 23.9531C36.0672 23.9531 35.7393 24.1804 35.6106 24.5234L33.2376 30.8515C33.0672 31.3061 33.2974 31.8127 33.7519 31.9831C34.2068 32.1534 34.7131 31.923 34.8835 31.4687L35.0652 30.9843H37.8021L37.9838 31.4687C38.1161 31.8216 38.4509 32.0392 38.8069 32.0392C38.9093 32.0392 39.0137 32.0211 39.1154 31.983C39.5697 31.8127 39.8 31.3061 39.6295 30.8515ZM35.0675 30.978L35.0682 30.9762C35.0733 30.9768 35.0723 30.9774 35.0675 30.978ZM35.7243 29.2266L36.4335 27.3352L37.1428 29.2266H35.7243Z" fill="#212322"/>
<path d="M47.2758 32.0391C47.7611 32.0391 48.1547 31.6455 48.1547 31.1602V24.8321C48.1547 24.466 47.9278 24.1383 47.5852 24.0094C47.2426 23.8806 46.856 23.9776 46.6147 24.2529L44.7698 26.3592L42.9248 24.2529C42.6835 23.9775 42.2969 23.8806 41.9543 24.0094C41.6117 24.1383 41.3848 24.466 41.3848 24.8321V31.1602C41.3848 31.6455 41.7783 32.0391 42.2637 32.0391C42.749 32.0391 43.1426 31.6455 43.1426 31.1602V27.1692L44.1087 28.2721C44.2756 28.4626 44.5166 28.5719 44.7698 28.5719C45.023 28.5719 45.264 28.4626 45.4309 28.2721L46.3969 27.1692V31.1602C46.3969 31.6455 46.7905 32.0391 47.2758 32.0391Z" fill="#212322"/>
</svg>
