<svg width="320" height="456" viewBox="0 0 320 456" fill="none" xmlns="http://www.w3.org/2000/svg">
<path d="M69 146H286" stroke="#F2F0E8"/>
<path d="M69 213H286" stroke="#F2F0E8"/>
<path d="M69 283H286" stroke="#F2F0E8"/>
<path d="M69 353H286" stroke="#F2F0E8"/>
<path d="M69 424H286" stroke="#F2F0E8"/>
<rect x="251" y="111" width="69" height="345" fill="#FDF2B8"/>
<path d="M286 146L286 213" stroke="#D9017A"/>
<path d="M286 283L286 213" stroke="#D9017A"/>
<path d="M286 283L286 353" stroke="#FDDA24"/>
<path d="M286 353L286 424" stroke="#FDDA24"/>
<circle cx="286" cy="146" r="2" fill="#212322"/>
<circle cx="286" cy="213" r="2" fill="#212322"/>
<circle cx="286" cy="283" r="2" fill="#212322"/>
<circle cx="286" cy="353" r="2" fill="#212322"/>
<circle cx="286" cy="424" r="2" fill="#212322"/>
<path d="M272.414 90.1855C275.109 90.1855 277.434 88.7109 277.434 85.9863C277.434 84.3066 276.447 83.0762 274.582 82.627C275.998 82.0703 276.691 81.0156 276.691 79.7168C276.691 77.4121 274.66 76.0156 272.375 76.0156C270.012 76.0156 268.049 77.5 268.049 80.0195L270.031 80.1465C270.051 78.7988 270.998 77.9688 272.404 77.9688C273.693 77.9688 274.68 78.6719 274.68 79.9707C274.68 81.2891 273.996 81.9531 271.779 81.9531V83.5742C273.43 83.5742 275.432 83.7207 275.432 85.8203C275.432 87.4219 274.064 88.252 272.453 88.252C270.676 88.252 269.396 87.2754 269.396 85.6055L267.395 85.7227C267.395 88.6719 269.67 90.1855 272.414 90.1855ZM280.178 90H284.064C288.674 90 291.223 87.5098 291.223 83.2031C291.223 78.7207 288.742 76.2012 284.084 76.2012H280.178V90ZM282.277 88.0664V78.1348H284.055C287.609 78.1348 289.123 79.6484 289.123 83.1152C289.123 86.6895 287.121 88.0664 283.869 88.0664H282.277ZM297.473 88.9355H299.006V84.668H303.283V83.1348H299.006V78.8574H297.473V83.1348H293.205V84.668H297.473V88.9355Z" fill="#212322"/>
<rect width="22" height="1" transform="matrix(0.707107 -0.707107 -0.707107 -0.707107 262.707 26.5978)" fill="#212322"/>
<rect width="22" height="1" transform="matrix(0.707107 -0.707107 -0.707107 -0.707107 262.707 60.2634)" fill="#212322"/>
<rect width="22" height="1" transform="matrix(0.707107 -0.707107 -0.707107 -0.707107 295.707 27.2634)" fill="#212322"/>
<rect width="22" height="1" transform="matrix(0.707107 -0.707107 -0.707107 -0.707107 295.707 60.2634)" fill="#212322"/>
<rect x="278" y="44" width="32" height="1" fill="#D9017A"/>
<rect x="278" y="11" width="32" height="1" fill="#D9017A"/>
<rect x="310" y="44" width="32" height="1" transform="rotate(-90 310 44)" fill="#FDDA24"/>
<rect x="278" y="12" width="32" height="1" transform="rotate(90 278 12)" fill="#FDDA24"/>
<circle cx="277.5" cy="44.5" r="1.5" fill="#212322"/>
<circle cx="310.5" cy="44.5" r="1.5" fill="#212322"/>
<circle cx="277.5" cy="11.5" r="1.5" fill="#212322"/>
<circle cx="310.5" cy="11.5" r="1.5" fill="#212322"/>
<rect x="263" y="59" width="32" height="1" fill="#D9017A"/>
<rect x="263" y="26" width="32" height="1" fill="#D9017A"/>
<rect x="295" y="59" width="32" height="1" transform="rotate(-90 295 59)" fill="#FDDA24"/>
<rect x="263" y="27" width="32" height="1" transform="rotate(90 263 27)" fill="#FDDA24"/>
<circle cx="262.5" cy="59.5" r="1.5" fill="#212322"/>
<circle cx="295.5" cy="59.5" r="1.5" fill="#212322"/>
<circle cx="262.5" cy="26.5" r="1.5" fill="#212322"/>
<circle cx="295.5" cy="26.5" r="1.5" fill="#212322"/>
<rect x="168" y="111" width="68" height="138" fill="#FDF2B8"/>
<path d="M202 146L202 213" stroke="#D9017A"/>
<circle cx="202" cy="146" r="2" fill="#212322"/>
<circle cx="202" cy="213" r="2" fill="#212322"/>
<path d="M193.553 88.0957C195.936 86.709 199.266 83.4766 199.266 80.2344C199.266 77.5391 197.439 76.0352 194.92 76.0352C191.961 76.0352 190.252 78.3594 190.252 80.957L192.303 81.0938C192.352 79.4629 193.035 77.9199 194.939 77.9199C196.453 77.9199 197.166 78.8965 197.166 80.1855C197.166 83.6426 192.898 86.6309 190.184 88.291V90H199.969V88.0957H193.553ZM202.684 90H206.57C211.18 90 213.729 87.5098 213.729 83.2031C213.729 78.7207 211.248 76.2012 206.59 76.2012H202.684V90ZM204.783 88.0664V78.1348H206.561C210.115 78.1348 211.629 79.6484 211.629 83.1152C211.629 86.6895 209.627 88.0664 206.375 88.0664H204.783Z" fill="#212322"/>
<rect x="183" y="59" width="32" height="1" fill="#D9017A"/>
<rect x="183" y="26" width="32" height="1" fill="#D9017A"/>
<rect x="215" y="59" width="32" height="1" transform="rotate(-90 215 59)" fill="#FDDA24"/>
<rect x="183" y="27" width="32" height="1" transform="rotate(90 183 27)" fill="#FDDA24"/>
<circle cx="182.5" cy="59.5" r="1.5" fill="#212322"/>
<circle cx="215.5" cy="59.5" r="1.5" fill="#212322"/>
<circle cx="182.5" cy="26.5" r="1.5" fill="#212322"/>
<circle cx="215.5" cy="26.5" r="1.5" fill="#212322"/>
<rect x="84" y="111" width="69" height="69" fill="#FDF2B8"/>
<circle cx="119" cy="146" r="2" fill="#212322"/>
<path d="M111.508 76.2012V77.1582C111.508 78.0176 111.02 78.3789 110.131 78.3789H108.129V79.9805H111.43V90H113.49V76.2012H111.508ZM119.184 90H123.07C127.68 90 130.229 87.5098 130.229 83.2031C130.229 78.7207 127.748 76.2012 123.09 76.2012H119.184V90ZM121.283 88.0664V78.1348H123.061C126.615 78.1348 128.129 79.6484 128.129 83.1152C128.129 86.6895 126.127 88.0664 122.875 88.0664H121.283Z" fill="#212322"/>
<rect x="102" y="59" width="32" height="1" fill="#D9017A"/>
<circle cx="101.5" cy="59.5" r="1.5" fill="#212322"/>
<circle cx="134.5" cy="59.5" r="1.5" fill="#212322"/>
<path d="M48.2033 413.811H41.907C42.4183 413.104 42.7211 412.236 42.7211 411.298C42.7211 408.928 40.7928 407 38.4227 407C37.0373 407 35.8036 407.659 35.0169 408.68C34.2305 407.659 32.9968 407 31.6114 407C29.2413 407 27.313 408.928 27.313 411.298C27.313 412.236 27.6156 413.104 28.1271 413.811H21.8304C21.3374 413.811 20.9375 414.211 20.9375 414.704V422.215C20.9375 422.708 21.3374 423.108 21.8304 423.108H23.2277V436.107C23.2277 436.6 23.6275 437 24.1206 437H45.9133C46.4063 437 46.8062 436.6 46.8062 436.107V423.108H48.2035C48.6965 423.108 49.0961 422.708 49.0961 422.215V414.704C49.0961 414.211 48.6965 413.811 48.2033 413.811ZM33.0215 435.214V415.597H37.0126V435.214H33.0215ZM29.0987 411.298C29.0987 409.913 30.226 408.786 31.6114 408.786C32.9971 408.786 34.1241 409.913 34.1241 411.298V413.811H31.6114C30.226 413.811 29.0987 412.684 29.0987 411.298ZM35.9098 411.298C35.9098 409.913 37.037 408.786 38.4227 408.786C39.8081 408.786 40.9354 409.913 40.9354 411.298C40.9354 412.684 39.8081 413.811 38.4227 413.811H35.9098V411.298ZM22.7232 415.597H31.2358V421.312L22.7232 421.322V415.597ZM25.0134 423.108H31.2358V435.214H25.0134V423.108ZM45.0204 435.214H38.7983V423.108H45.0202V435.214H45.0204ZM47.3104 421.322L38.7983 421.312V415.597H47.3104V421.322Z" fill="#212322"/>
<path d="M22.2539 338.785V342.33H22.0718C20.3781 342.33 19 343.707 19 345.401V345.563L19.0242 345.724L20.0926 352.796V352.816V364.053C20.0926 365.747 21.4705 367.125 23.1644 367.125H45.8356C47.5293 367.125 48.9074 365.747 48.9074 364.053V352.816V352.796L49.9758 345.724L50 345.563V345.401C50 343.707 48.6219 342.33 46.9282 342.33H46.7461V338.785C46.7461 338.283 46.3384 337.875 45.8356 337.875H23.1644C22.6617 337.875 22.2539 338.283 22.2539 338.785ZM24.4152 340.037H44.5846V342.33H24.4152V340.037ZM46.9282 344.491C47.4311 344.491 47.8387 344.899 47.8387 345.401L46.7459 352.633V352.816V358.59V364.053C46.7459 364.556 46.3383 364.964 45.8354 364.964H23.1644C22.6616 364.964 22.2539 364.556 22.2539 364.053V358.59V352.816V352.633L21.1613 345.401C21.1613 344.899 21.5691 344.491 22.0718 344.491H46.9282ZM27.01 357.419L27.0111 357.377L27.1058 357.093H29.0566V357.381C29.0566 357.849 29.2208 358.233 29.5587 358.553C29.9009 358.877 30.3361 359.035 30.8889 359.035C31.4291 359.035 31.8383 358.877 32.1402 358.551C32.4478 358.219 32.5974 357.791 32.5974 357.242C32.5974 356.614 32.4582 356.146 32.1834 355.852C31.914 355.563 31.4653 355.417 30.8502 355.417H29.3083V353.657H30.8502C31.4384 353.657 31.8494 353.521 32.0721 353.254C32.3076 352.97 32.4271 352.554 32.4271 352.018C32.4271 351.518 32.3 351.131 32.0385 350.834C31.7865 350.549 31.4104 350.41 30.8888 350.41C30.3723 350.41 29.9599 350.563 29.6282 350.877C29.3007 351.186 29.1416 351.564 29.1416 352.033V352.321H27.2205L27.0892 352.059L27.0873 351.996C27.0588 351.065 27.4138 350.261 28.1424 349.606C28.8595 348.961 29.7835 348.634 30.8889 348.634C32.0042 348.634 32.8968 348.925 33.5417 349.5C34.1963 350.084 34.5282 350.941 34.5282 352.049C34.5282 352.628 34.3737 353.165 34.069 353.643C33.8605 353.97 33.5933 354.25 33.2711 354.479C33.6586 354.712 33.9724 355.013 34.2076 355.379C34.5332 355.886 34.6983 356.503 34.6983 357.211C34.6983 358.323 34.3367 359.212 33.6236 359.851C32.9194 360.483 31.9993 360.803 30.8888 360.803C29.8681 360.803 28.956 360.498 28.1779 359.896C27.3745 359.274 26.9814 358.441 27.01 357.419ZM38.9668 350.784L36.5135 350.807V349.08L41.0755 348.602V360.641H38.9668V350.784Z" fill="#212322"/>
<path d="M40.7934 275.962H28.9227C28.5079 275.962 28.1719 276.299 28.1719 276.713V280.014C28.1719 280.429 28.5079 280.765 28.9227 280.765C29.3374 280.765 29.6735 280.429 29.6735 280.014V277.464H34.1072V288.395H32.5821C32.1673 288.395 31.8313 288.732 31.8313 289.146C31.8313 289.561 32.1673 289.897 32.5821 289.897H37.1341C37.5488 289.897 37.8849 289.561 37.8849 289.146C37.8849 288.732 37.5488 288.395 37.1341 288.395H35.6089V277.464H40.0427V280.014C40.0427 280.429 40.3787 280.765 40.7935 280.765C41.2082 280.765 41.5443 280.429 41.5443 280.014V276.713C41.5442 276.299 41.2081 275.962 40.7934 275.962Z" fill="#212322"/>
<path d="M49.2492 275.216C49.6639 275.216 50 274.88 50 274.465V268.823C50 268.408 49.6639 268.072 49.2492 268.072H43.6064C43.1917 268.072 42.8556 268.408 42.8556 268.823V270.893H27.1444V268.823C27.1444 268.408 26.8083 268.072 26.3936 268.072H20.7508C20.3361 268.072 20 268.408 20 268.823V274.465C20 274.88 20.3361 275.216 20.7508 275.216H22.8214V290.784H20.7508C20.3361 290.784 20 291.12 20 291.535V297.178C20 297.592 20.3361 297.928 20.7508 297.928H26.3936C26.8083 297.928 27.1444 297.592 27.1444 297.178V295.107H42.8555V297.178C42.8555 297.592 43.1916 297.928 43.6063 297.928H49.2491C49.6638 297.928 49.9999 297.592 49.9999 297.178V291.535C49.9999 291.12 49.6638 290.784 49.2491 290.784H47.1785V275.216H49.2492ZM44.3572 269.573H48.4984V273.715H44.3572V269.573ZM21.5016 269.573H25.6428V273.715H21.5016V269.573ZM25.6428 296.427H21.5016V292.286H25.6428V296.427ZM48.4984 296.427H44.3572V292.286H48.4984V296.427ZM45.677 290.784H43.6063C43.1916 290.784 42.8555 291.12 42.8555 291.535V293.605H27.1444V291.535C27.1444 291.12 26.8083 290.784 26.3936 290.784H24.323V275.216H26.3937C26.8084 275.216 27.1445 274.88 27.1445 274.465V272.395H42.8556V274.465C42.8556 274.88 43.1917 275.216 43.6064 275.216H45.6771V290.784H45.677Z" fill="#212322"/>
<path d="M42.0312 200H27.9688C26.5149 200 25.332 201.183 25.332 202.637V227.363C25.332 228.817 26.5149 230 27.9688 230H42.0312C43.4851 230 44.668 228.817 44.668 227.363V202.637C44.668 201.183 43.4851 200 42.0312 200ZM42.9102 227.363C42.9102 227.848 42.5158 228.242 42.0312 228.242H27.9688C27.4842 228.242 27.0898 227.848 27.0898 227.363V202.637C27.0898 202.152 27.4842 201.758 27.9688 201.758H42.0312C42.5158 201.758 42.9102 202.152 42.9102 202.637V227.363Z" fill="#212322"/>
<path d="M35 214.121C31.6075 214.121 28.8477 216.881 28.8477 220.273C28.8477 223.698 31.6075 226.484 35 226.484C38.3925 226.484 41.1523 223.698 41.1523 220.273C41.1523 216.881 38.3925 214.121 35 214.121ZM35 224.727C32.5768 224.727 30.6055 222.729 30.6055 220.273C30.6055 217.85 32.5768 215.879 35 215.879C37.4232 215.879 39.3945 217.85 39.3945 220.273C39.3945 222.729 37.4232 224.727 35 224.727Z" fill="#212322"/>
<path d="M35 217.637C33.5461 217.637 32.3633 218.82 32.3633 220.273C32.3633 221.727 33.5461 222.91 35 222.91C36.4539 222.91 37.6367 221.727 37.6367 220.273C37.6367 218.82 36.4539 217.637 35 217.637ZM35 221.152C34.5155 221.152 34.1211 220.758 34.1211 220.273C34.1211 219.789 34.5155 219.395 35 219.395C35.4845 219.395 35.8789 219.789 35.8789 220.273C35.8789 220.758 35.4848 221.152 35 221.152Z" fill="#212322"/>
<path d="M35 212.363C37.4232 212.363 39.3945 210.392 39.3945 207.969C39.3945 206.795 38.94 205.684 38.1144 204.839C37.2801 203.986 36.1742 203.516 35 203.516C33.8258 203.516 32.7199 203.986 31.8856 204.839C31.06 205.684 30.6055 206.795 30.6055 207.969C30.6055 210.392 32.5768 212.363 35 212.363ZM35 205.273C36.4294 205.273 37.6367 206.508 37.6367 207.969C37.6367 209.423 36.4539 210.605 35 210.605C33.5461 210.605 32.3633 209.423 32.3633 207.969C32.3633 206.508 33.5709 205.273 35 205.273Z" fill="#212322"/>
<path d="M35.8789 207.969C35.8789 208.454 35.4855 208.848 35 208.848C34.5145 208.848 34.1211 208.454 34.1211 207.969C34.1211 207.483 34.5145 207.09 35 207.09C35.4855 207.09 35.8789 207.483 35.8789 207.969Z" fill="#212322"/>
<path d="M42.0312 203.516C42.0312 204.001 41.6378 204.395 41.1523 204.395C40.6669 204.395 40.2734 204.001 40.2734 203.516C40.2734 203.03 40.6669 202.637 41.1523 202.637C41.6378 202.637 42.0312 203.03 42.0312 203.516Z" fill="#212322"/>
<path d="M29.7266 203.516C29.7266 204.001 29.3331 204.395 28.8477 204.395C28.3622 204.395 27.9688 204.001 27.9688 203.516C27.9688 203.03 28.3622 202.637 28.8477 202.637C29.3331 202.637 29.7266 203.03 29.7266 203.516Z" fill="#212322"/>
<path d="M42.0312 226.484C42.0312 226.97 41.6378 227.363 41.1523 227.363C40.6669 227.363 40.2734 226.97 40.2734 226.484C40.2734 225.999 40.6669 225.605 41.1523 225.605C41.6378 225.605 42.0312 225.999 42.0312 226.484Z" fill="#212322"/>
<path d="M29.7266 226.484C29.7266 226.97 29.3331 227.363 28.8477 227.363C28.3622 227.363 27.9688 226.97 27.9688 226.484C27.9688 225.999 28.3622 225.605 28.8477 225.605C29.3331 225.605 29.7266 225.999 29.7266 226.484Z" fill="#212322"/>
<path d="M48.4997 207.347L46.7419 209.105C46.3985 209.448 46.3985 210.005 46.7419 210.348C47.085 210.691 47.6416 210.691 47.9847 210.348L49.7425 208.59C50.0858 208.247 50.0858 207.691 49.7425 207.347C49.3994 207.004 48.8428 207.004 48.4997 207.347Z" fill="#212322"/>
<path d="M47.9847 216.136C47.6416 215.793 47.0852 215.793 46.7419 216.136C46.3985 216.48 46.3985 217.036 46.7419 217.379L48.4997 219.137C48.8428 219.48 49.3994 219.48 49.7425 219.137C50.0858 218.794 50.0858 218.238 49.7425 217.894L47.9847 216.136Z" fill="#212322"/>
<path d="M49.1211 214.121C49.6066 214.121 50 213.728 50 213.242C50 212.757 49.6066 212.363 49.1211 212.363H47.3633C46.8778 212.363 46.4844 212.757 46.4844 213.242C46.4844 213.728 46.8778 214.121 47.3633 214.121H49.1211Z" fill="#212322"/>
<path d="M22.0153 210.348C22.3584 210.691 22.915 210.691 23.2581 210.348C23.6015 210.005 23.6015 209.448 23.2581 209.105L21.5003 207.347C21.1572 207.004 20.6008 207.004 20.2575 207.347C19.9142 207.691 19.9142 208.247 20.2575 208.59L22.0153 210.348Z" fill="#212322"/>
<path d="M21.5003 219.137L23.2581 217.379C23.6015 217.036 23.6015 216.48 23.2581 216.136C22.915 215.793 22.3586 215.793 22.0153 216.136L20.2575 217.894C19.9142 218.238 19.9142 218.794 20.2575 219.137C20.6006 219.48 21.1572 219.48 21.5003 219.137Z" fill="#212322"/>
<path d="M20.8789 212.363C20.3934 212.363 20 212.757 20 213.242C20 213.728 20.3934 214.121 20.8789 214.121H22.6367C23.1222 214.121 23.5156 213.728 23.5156 213.242C23.5156 212.757 23.1222 212.363 22.6367 212.363H20.8789Z" fill="#212322"/>
<path d="M50.7057 140.956C50.4493 140.803 50.1314 140.796 49.8686 140.937L44.3838 143.889V141.359C44.3838 140.891 44.0039 140.511 43.5356 140.511H42.1562C43.8765 139.116 44.9783 136.986 44.9783 134.604C44.9784 130.411 41.5673 127 37.3744 127C33.7958 127 30.787 129.485 29.9824 132.821C28.9298 131.55 27.3412 130.74 25.5666 130.74C22.4049 130.74 19.8328 133.312 19.8328 136.474C19.8328 138.047 20.47 139.474 21.4997 140.511H20.7252C20.2567 140.511 19.877 140.891 19.877 141.36V145.21H17.7296C17.2611 145.21 16.8813 145.59 16.8813 146.058V149.394C16.8813 149.862 17.2611 150.242 17.7296 150.242H19.8769V154.093C19.8769 154.561 20.2567 154.941 20.7251 154.941H30.7317L26.1341 163.76C25.9175 164.175 26.0787 164.687 26.4941 164.904C26.6194 164.969 26.7535 165 26.8855 165C27.1915 165 27.487 164.834 27.6383 164.544L32.1302 155.927L36.6222 164.544C36.7735 164.834 37.0691 165 37.3751 165C37.5071 165 37.6413 164.969 37.7665 164.904C38.1819 164.687 38.3431 164.175 38.1264 163.76L33.5289 154.941H43.5355C44.0039 154.941 44.3838 154.561 44.3838 154.093V151.563L49.8686 154.515C49.9944 154.582 50.1325 154.616 50.2706 154.616C50.4213 154.616 50.5718 154.576 50.7057 154.496C50.962 154.343 51.1188 154.066 51.1188 153.768V141.684C51.1188 141.385 50.962 141.109 50.7057 140.956ZM19.877 148.545H18.5778V146.906H19.877V148.545ZM37.3744 128.696C40.6317 128.696 43.2819 131.346 43.2819 134.604C43.2819 137.861 40.6318 140.511 37.3744 140.511C34.1171 140.511 31.4671 137.861 31.4671 134.604C31.4672 131.347 34.1172 128.696 37.3744 128.696ZM30.8972 138.582C31.3502 139.317 31.9249 139.969 32.5928 140.511H29.6336C30.1761 139.965 30.6083 139.31 30.8972 138.582ZM25.5666 132.436C27.7928 132.436 29.604 134.248 29.604 136.474C29.604 138.7 27.7929 140.511 25.5666 140.511C23.3404 140.511 21.5292 138.7 21.5292 136.474C21.5293 134.248 23.3404 132.436 25.5666 132.436ZM42.6874 145.309V150.142V153.244H32.1456C32.144 153.244 32.1425 153.244 32.141 153.244H32.1186C32.1176 153.244 32.1166 153.244 32.1157 153.244H21.5734V149.394V146.058V142.208H42.6874V145.309ZM49.4224 152.348L44.3838 149.636V145.816L49.4224 143.104V152.348Z" fill="#212322"/>
<path d="M25.5663 133.897C24.1456 133.897 22.9897 135.053 22.9897 136.474C22.9897 137.895 24.1456 139.05 25.5663 139.05C26.9871 139.05 28.1429 137.894 28.1429 136.474C28.143 135.053 26.9871 133.897 25.5663 133.897ZM25.5663 137.524C24.9874 137.524 24.5165 137.053 24.5165 136.474C24.5165 135.895 24.9874 135.424 25.5663 135.424C26.1452 135.424 26.6161 135.895 26.6161 136.474C26.6161 137.053 26.1452 137.524 25.5663 137.524Z" fill="#212322"/>
<path d="M37.3746 130.904C35.3342 130.904 33.6743 132.564 33.6743 134.604C33.6743 136.644 35.3342 138.304 37.3746 138.304C39.4149 138.304 41.0748 136.644 41.0748 134.604C41.0748 132.564 39.415 130.904 37.3746 130.904ZM37.3746 136.608C36.2697 136.608 35.3707 135.709 35.3707 134.604C35.3707 133.499 36.2697 132.6 37.3746 132.6C38.4794 132.6 39.3784 133.499 39.3784 134.604C39.3784 135.709 38.4794 136.608 37.3746 136.608Z" fill="#212322"/>
<path d="M34.6376 144.674H25.4152C24.9701 144.674 24.6094 145.035 24.6094 145.48V149.972C24.6094 150.417 24.9702 150.778 25.4152 150.778H34.6376C35.0827 150.778 35.4434 150.417 35.4434 149.972V145.48C35.4434 145.035 35.0826 144.674 34.6376 144.674ZM33.8317 149.166H26.221V146.286H33.8318V149.166H33.8317Z" fill="#212322"/>
<path d="M39.0865 147.176C39.555 147.176 39.9348 146.797 39.9348 146.328C39.9348 145.86 39.555 145.48 39.0865 145.48C38.6181 145.48 38.2383 145.86 38.2383 146.328C38.2383 146.797 38.6181 147.176 39.0865 147.176Z" fill="#212322"/>
<path d="M39.0865 149.971C39.555 149.971 39.9348 149.591 39.9348 149.123C39.9348 148.654 39.555 148.275 39.0865 148.275C38.6181 148.275 38.2383 148.654 38.2383 149.123C38.2383 149.591 38.6181 149.971 39.0865 149.971Z" fill="#212322"/>
</svg>
