<svg width="30" height="30" viewBox="0 0 30 30" fill="none" xmlns="http://www.w3.org/2000/svg">
<path d="M20.7934 7.96216H8.9227C8.50794 7.96216 8.17188 8.29833 8.17188 8.71298V12.014C8.17188 12.4286 8.50794 12.7648 8.9227 12.7648C9.33745 12.7648 9.67352 12.4286 9.67352 12.014V9.4638H14.1072V20.3953H12.5821C12.1673 20.3953 11.8313 20.7314 11.8313 21.1461C11.8313 21.5607 12.1673 21.8969 12.5821 21.8969H17.1341C17.5488 21.8969 17.8849 21.5607 17.8849 21.1461C17.8849 20.7314 17.5488 20.3953 17.1341 20.3953H15.6089V9.4638H20.0427V12.014C20.0427 12.4286 20.3787 12.7648 20.7935 12.7648C21.2082 12.7648 21.5443 12.4286 21.5443 12.014V8.71298C21.5442 8.29833 21.2081 7.96216 20.7934 7.96216Z" fill="#212322"/>
<path d="M29.2492 7.21607C29.6639 7.21607 30 6.8799 30 6.46525V0.822476C30 0.407823 29.6639 0.0716553 29.2492 0.0716553H23.6064C23.1917 0.0716553 22.8556 0.407823 22.8556 0.822476V2.89304H7.14441V0.822476C7.14441 0.407823 6.80834 0.0716553 6.39359 0.0716553H0.750821C0.336067 0.0716553 0 0.407823 0 0.822476V6.46525C0 6.8799 0.336067 7.21607 0.750821 7.21607H2.82138V22.7839H0.750821C0.336067 22.7839 0 23.1201 0 23.5347V29.1775C0 29.5921 0.336067 29.9283 0.750821 29.9283H6.39359C6.80834 29.9283 7.14441 29.5921 7.14441 29.1775V27.1069H22.8555V29.1775C22.8555 29.5921 23.1916 29.9283 23.6063 29.9283H29.2491C29.6638 29.9283 29.9999 29.5921 29.9999 29.1775V23.5347C29.9999 23.1201 29.6638 22.7839 29.2491 22.7839H27.1785V7.21607H29.2492ZM24.3572 1.5733H28.4984V5.71442H24.3572V1.5733ZM1.50164 1.5733H5.64277V5.71442H1.50164V1.5733ZM5.64277 28.4267H1.50164V24.2855H5.64277V28.4267ZM28.4984 28.4267H24.3572V24.2855H28.4984V28.4267ZM25.677 22.7839H23.6063C23.1916 22.7839 22.8555 23.1201 22.8555 23.5347V25.6053H7.14441V23.5347C7.14441 23.1201 6.80834 22.7839 6.39359 22.7839H4.32303V7.21607H6.39369C6.80844 7.21607 7.14451 6.8799 7.14451 6.46525V4.39468H22.8556V6.46525C22.8556 6.8799 23.1917 7.21607 23.6064 7.21607H25.6771V22.7839H25.677Z" fill="#212322"/>
</svg>
