<svg width="69" height="69" viewBox="0 0 69 69" fill="none" xmlns="http://www.w3.org/2000/svg">
<g clip-path="url(#clip0)">
<path d="M42.6747 13.8251C42.2241 14.2652 42.0167 14.8984 42.1235 15.5181L42.6084 18.3402L42.8469 19.7321C43.1148 21.2951 41.4739 22.488 40.0705 21.7499L36.286 19.7605C35.7285 19.4668 35.062 19.4668 34.5045 19.7605L30.7216 21.7499C29.3166 22.488 27.6757 21.2951 27.9437 19.7321L28.667 15.5181C28.7738 14.8984 28.568 14.2652 28.1174 13.8251L25.0557 10.8402C23.9196 9.73313 24.5466 7.8043 26.1164 7.57688L29.7251 7.05203L30.3463 6.96096C30.9706 6.87199 31.5092 6.47928 31.7882 5.91494L33.6791 2.08149C34.3814 0.659084 36.4092 0.659084 37.1114 2.08149L39.0039 5.91494C39.2829 6.47928 39.8215 6.87199 40.4442 6.96096L44.6751 7.57688C46.2439 7.8043 46.8719 9.73313 45.7348 10.8402L42.6747 13.8251Z" fill="#FDDA24"/>
<path d="M67.0154 34.9028C63.7984 34.9801 64.7997 34.3 62.8545 37.0469C62.3997 37.6965 61.3953 37.5423 61.1558 36.7853L60.5114 34.7443C60.4166 34.4437 60.1798 34.2084 59.8781 34.1163L57.8314 33.4893C57.0722 33.2582 56.9096 32.2548 57.5555 31.7937L59.2975 30.5508C59.5549 30.367 59.7049 30.0691 59.6996 29.7538L59.6617 27.6138C59.6481 26.8205 60.5509 26.3551 61.19 26.8273C61.3658 26.9574 60.5525 26.3562 62.9103 28.0997C63.1646 28.2877 63.4936 28.3377 63.7911 28.235L65.8162 27.5391C66.5659 27.2806 67.2876 27.9955 67.036 28.7478L66.3574 30.7782C66.2574 31.0777 66.3116 31.4062 66.5011 31.6584L67.7882 33.3677C68.2662 34.0026 67.8098 34.9096 67.0154 34.9028Z" fill="#FDDA24"/>
<path d="M11.1688 33.4893L9.12204 34.1162C8.83882 34.2026 8.61456 34.4142 8.50875 34.6874C8.50085 34.7064 8.49401 34.7253 8.48875 34.7443L7.8444 36.7852C7.60487 37.5422 6.60045 37.6965 6.14561 37.0469L4.91798 35.2939C4.73637 35.0354 4.43999 34.8822 4.12466 34.8848L1.98473 34.9027C1.19035 34.9096 0.733932 34.0025 1.21193 33.3677L2.49905 31.6583C2.68856 31.4062 2.74278 31.0777 2.64223 30.7782L1.9642 28.7477C1.71256 27.9955 2.43377 27.2806 3.18393 27.539L4.97747 28.155C5.06644 28.1692 5.58497 28.4729 6.08981 28.0997L7.81018 26.8273C8.44927 26.3551 9.35209 26.8205 9.3384 27.6138L9.3005 29.7537C9.29523 30.0691 9.44527 30.367 9.70269 30.5507L11.4446 31.7936C12.09 32.2548 11.9279 33.2582 11.1688 33.4893Z" fill="#FDDA24"/>
<path d="M52.2807 26.4467C52.2807 27.0926 52.0764 27.6907 51.7274 28.1797C50.0512 30.5339 46.3052 29.3605 46.3052 26.4467C46.3052 24.7969 47.6423 23.4582 49.2921 23.4582C50.9393 23.4582 52.2807 24.7927 52.2807 26.4467Z" fill="#D9017A"/>
<path d="M65.5582 44.5885C65.5582 46.2399 64.2158 47.5775 62.5696 47.5775C60.9182 47.5775 59.5806 46.2388 59.5806 44.5885C59.5806 42.7102 61.2894 41.3067 63.1229 41.6515C64.509 41.911 65.5582 43.1281 65.5582 44.5885Z" fill="#D9017A"/>
<path d="M22.1415 28.1797C21.5998 28.9404 20.7122 29.4358 19.7078 29.4358C18.0564 29.4358 16.7188 28.0981 16.7188 26.4467C16.7188 24.7969 18.0564 23.4582 19.7078 23.4582C19.8973 23.4582 20.081 23.4761 20.2611 23.5098C22.4115 23.913 23.3965 26.423 22.1415 28.1797Z" fill="#D9017A"/>
<path d="M9.42046 44.5885C9.42046 45.2344 9.21568 45.8324 8.86666 46.3199C7.18946 48.6825 3.44287 47.4965 3.44287 44.5885C3.44287 42.9387 4.78158 41.5999 6.4314 41.5999C6.62092 41.5999 6.80675 41.6178 6.98521 41.6515C8.37234 41.9111 9.42046 43.1282 9.42046 44.5885Z" fill="#D9017A"/>
<path d="M52.282 26.4467C52.282 27.0926 52.0778 27.6907 51.7288 28.1797C49.5825 27.777 48.5897 25.2696 49.8473 23.5098C51.2344 23.7698 52.282 24.9864 52.282 26.4467Z" fill="#FAB6DC"/>
<path d="M65.0038 46.3199C62.846 45.9156 61.8705 43.4035 63.1224 41.6515C64.5085 41.911 66.2567 44.5716 65.0038 46.3199Z" fill="#FAB6DC"/>
<path d="M22.1407 28.1797C19.9913 27.7765 19.0048 25.2664 20.2603 23.5098C22.4108 23.913 23.3957 26.423 22.1407 28.1797Z" fill="#FAB6DC"/>
<path d="M9.42119 44.5885C9.42119 45.2344 9.21641 45.8324 8.86739 46.3199C7.4813 46.0598 6.43213 44.8443 6.43213 43.3824C6.43213 42.7381 6.63691 42.14 6.98593 41.6515C8.37307 41.911 9.42119 43.1282 9.42119 44.5885Z" fill="#FAB6DC"/>
<path d="M45.7348 10.8402L42.6747 13.8251C42.2241 14.2652 42.0167 14.8984 42.1235 15.5181L42.6084 18.3402C35.8222 18.8203 30.1131 13.655 29.7251 7.05204C30.0036 6.96254 31.2107 7.08362 31.7882 5.91495L33.6791 2.0815C34.3814 0.659092 36.4092 0.659092 37.1114 2.0815L39.0039 5.91495C39.2829 6.47928 39.8215 6.872 40.4442 6.96096L44.6751 7.57688C46.2439 7.8043 46.8719 9.73313 45.7348 10.8402Z" fill="#FDF2B8"/>
<path d="M11.1697 33.4893L9.12294 34.1162C8.83972 34.2026 8.61546 34.4142 8.50965 34.6874C5.64851 33.9667 4.01448 30.9366 4.97837 28.155C5.06733 28.1692 5.58587 28.4729 6.09071 28.0997L7.81108 26.8273C8.45016 26.3551 9.35299 26.8205 9.3393 27.6138L9.3014 29.7537C9.29613 30.069 9.44617 30.367 9.70359 30.5507L11.4455 31.7936C12.0909 32.2548 11.9288 33.2581 11.1697 33.4893Z" fill="#FDF2B8"/>
<path d="M67.0158 34.9027C65.059 34.9496 64.7032 34.729 64.2504 35.1112C61.6925 33.5945 61.0413 30.2712 62.6669 27.9196C62.7922 27.9828 63.1765 28.4471 63.7914 28.235L65.8165 27.539C66.5662 27.2805 67.2879 27.9954 67.0363 28.7477L66.3577 30.7781C66.2577 31.0777 66.3119 31.4062 66.5014 31.6583L67.7885 33.3676C68.2665 34.0025 67.8101 34.9095 67.0158 34.9027Z" fill="#FDF2B8"/>
<path d="M43.8472 19.5605C43.0838 15.0843 43.1117 15.3385 43.1117 15.1948C43.1117 14.5331 43.5124 14.5473 46.4446 11.5677C48.1665 9.88948 47.2484 6.92463 44.8211 6.57193L40.5907 5.95706C40.2975 5.91442 40.0448 5.7307 39.9137 5.46538L38.0222 1.63193C36.9478 -0.544329 33.8429 -0.543276 32.769 1.63193L30.877 5.46538C30.6333 5.95969 30.1027 5.9639 30.0695 5.97601C29.5146 6.05655 29.1303 6.5714 29.2109 7.12626C29.2914 7.68111 29.8052 8.06698 30.3611 7.98539L30.4927 7.96591C31.4466 7.82746 32.271 7.22891 32.6979 6.36399L34.5899 2.53054C34.9205 1.86092 35.8713 1.86145 36.2013 2.53054L38.0933 6.36399C38.5202 7.22891 39.3446 7.82746 40.2985 7.96591L44.5294 8.58078C45.2738 8.68922 45.5591 9.5952 45.0269 10.1137L41.9657 13.0975C41.2982 13.7482 40.9566 14.7163 41.1234 15.6902C41.8767 20.1096 41.8604 19.9195 41.8604 20.069C41.8604 20.7013 41.1645 21.1782 40.5423 20.8508L36.7583 18.8614C35.9207 18.4213 34.8695 18.4213 34.033 18.8614L30.2485 20.8508C29.6273 21.1782 28.9308 20.7013 28.9308 20.069C28.9308 19.9206 28.9135 20.1153 29.6678 15.6902C29.8347 14.7158 29.4925 13.7482 28.8255 13.0975L25.7644 10.1137C25.2342 9.59731 25.5133 8.68975 26.2624 8.5813L26.3434 8.5692C26.8978 8.48865 27.2826 7.97328 27.2015 7.41842C27.121 6.86357 26.6066 6.47822 26.0513 6.55982L25.9702 6.57193C23.5418 6.92463 22.6253 9.88895 24.3472 11.5677C27.351 14.62 27.7964 14.5905 27.6669 15.347C26.9315 19.7147 26.9004 19.6242 26.9004 20.069C26.9004 22.2453 29.2293 23.6808 31.1939 22.648L34.9779 20.6586C35.2348 20.5239 35.557 20.5239 35.8139 20.6586C39.3573 22.4258 39.7837 22.9886 40.9613 22.9886C42.7617 22.9886 44.1588 21.3756 43.8472 19.5605Z" fill="#212322"/>
<path d="M35.3958 24.0709C34.8352 24.0709 34.3804 24.5258 34.3804 25.0864V67.9145C34.3804 68.4752 34.8352 68.9295 35.3958 68.9295C35.9565 68.9295 36.4108 68.4752 36.4108 67.9145V25.0864C36.4108 24.5258 35.9565 24.0709 35.3958 24.0709Z" fill="#212322"/>
<path d="M68.6003 32.757L67.3305 31.0713L67.9991 29.0699C68.5176 27.5195 67.031 26.0471 65.4859 26.5788L63.4902 27.2653L61.7935 26.0108C60.4785 25.039 58.6192 25.9976 58.6471 27.6317L58.6834 29.7416L56.9662 30.9682C55.6354 31.9178 55.9723 33.9825 57.5352 34.461L59.553 35.0785L60.1884 37.0905C60.6801 38.6477 62.7469 38.9694 63.6866 37.6286L64.8974 35.9003C65.3922 35.9045 66.9941 35.9177 67.0241 35.9177C68.6513 35.9177 69.5789 34.0567 68.6003 32.757ZM64.8842 33.8693C64.2293 33.8672 63.6244 34.1783 63.2517 34.7106L62.0899 36.3688L61.4803 34.4379C61.285 33.8188 60.797 33.3355 60.1758 33.1455L58.2401 32.5527L59.8879 31.3767C60.4164 30.9992 60.7254 30.3859 60.7143 29.7363L60.6791 27.7122L62.3073 28.9161C62.8295 29.302 63.5081 29.4068 64.1225 29.1952L66.0371 28.5366L65.3954 30.457C65.1895 31.0735 65.2995 31.751 65.6907 32.2695L66.9088 33.8867L64.8842 33.8693Z" fill="#212322"/>
<path d="M58.2663 38.1481C58.7101 37.8054 58.7922 37.1679 58.4495 36.7241C58.1068 36.2804 57.4693 36.1988 57.0255 36.5409C51.4164 40.8729 47.2824 46.7542 44.7382 54.0215C42.3403 60.8714 42.1887 66.6042 42.0465 67.6076C41.6775 68.7694 43.3042 69.4674 43.899 68.4125C44.0454 68.1535 44.0633 67.9392 44.1396 67.038C45.4868 51.1367 52.5651 42.5506 58.2663 38.1481Z" fill="#212322"/>
<path d="M65.1453 52.8066C59.6978 53.3251 55.2322 56.0778 52.2305 60.7661C49.9884 64.2685 49.3588 67.5908 49.333 67.7308C49.2182 68.353 49.6962 68.9295 50.3327 68.9295C50.8128 68.9295 51.2397 68.5873 51.3297 68.0982C51.3355 68.0677 51.9109 65.0313 53.9408 61.8606C56.6309 57.6576 60.4659 55.2918 65.3375 54.8275C65.896 54.7743 66.305 54.279 66.2519 53.721C66.1992 53.1624 65.7039 52.7523 65.1453 52.8066Z" fill="#212322"/>
<path d="M45.2905 26.4472C45.2905 28.6551 47.0867 30.4512 49.294 30.4512C51.5019 30.4512 53.298 28.6551 53.298 26.4472C53.298 24.2394 51.5019 22.4437 49.294 22.4437C47.0867 22.4437 45.2905 24.2399 45.2905 26.4472ZM49.294 24.4736C50.3821 24.4736 51.2676 25.3591 51.2676 26.4472C51.2676 27.5354 50.3821 28.4208 49.294 28.4208C48.2059 28.4208 47.321 27.5354 47.321 26.4472C47.321 25.3591 48.2059 24.4736 49.294 24.4736Z" fill="#212322"/>
<path d="M62.5684 40.585C60.3611 40.585 58.5649 42.3812 58.5649 44.5885C58.5649 46.7963 60.3611 48.5925 62.5684 48.5925C64.7763 48.5925 66.5724 46.7963 66.5724 44.5885C66.5724 42.3812 64.7763 40.585 62.5684 40.585ZM62.5684 46.562C61.4803 46.562 60.5954 45.6766 60.5954 44.5885C60.5954 43.5003 61.4803 42.6154 62.5684 42.6154C63.6566 42.6154 64.542 43.5003 64.542 44.5885C64.542 45.6766 63.6566 46.562 62.5684 46.562Z" fill="#212322"/>
<path d="M56.5793 21.1366C57.0394 21.4525 57.6721 21.3388 57.9912 20.8744L60.6407 17.0173C60.9581 16.5551 60.8413 15.9229 60.3791 15.6054C59.9168 15.288 59.2846 15.4054 58.9672 15.8676L56.3176 19.7253C56.0002 20.1869 56.1176 20.8192 56.5793 21.1366Z" fill="#212322"/>
<path d="M52.6503 13.9361C53.1015 13.9361 53.5131 13.6335 53.6316 13.1765L54.8103 8.64765C54.9513 8.1049 54.626 7.55057 54.0833 7.40949C53.541 7.26841 52.9862 7.59374 52.8456 8.13596L51.6669 12.6653C51.5 13.3071 51.9844 13.9361 52.6503 13.9361Z" fill="#212322"/>
<path d="M61.2398 9.82474L65.0664 7.13048C65.5249 6.80778 65.6349 6.17448 65.3117 5.71597C64.989 5.25745 64.3557 5.14742 63.8972 5.47012L60.0711 8.16438C59.6126 8.48708 59.5025 9.12038 59.8252 9.5789C60.1474 10.0369 60.7807 10.148 61.2398 9.82474Z" fill="#212322"/>
<path d="M5.31436 37.6285C6.25456 38.9709 8.32079 38.6461 8.81195 37.0905L9.44735 35.078L11.4651 34.4605C13.0286 33.9825 13.365 31.9173 12.0347 30.9676L10.317 29.7416L10.3533 27.6317C10.3665 26.8752 9.95693 26.1898 9.28416 25.8434C8.61138 25.4965 7.81595 25.5607 7.2074 26.0108L5.51072 27.2653L3.51503 26.5788C1.97154 26.0477 0.482804 27.5169 1.00134 29.0699L1.67043 31.0714L0.400681 32.757C-0.584792 34.0651 0.362252 35.9308 1.99313 35.9176L4.10358 35.8997L5.31436 37.6285ZM2.0921 33.8862L3.31025 32.2695C3.70086 31.7504 3.81141 31.0729 3.60558 30.4565L2.96386 28.5361L4.87848 29.1952C5.49282 29.4068 6.17139 29.302 6.6936 28.9156L8.32132 27.7122L8.28658 29.7363C8.27552 30.3859 8.58453 30.9987 9.11307 31.3767L10.7608 32.5527L8.82511 33.145C8.20393 33.335 7.71645 33.8183 7.52062 34.4379L6.91102 36.3683L5.74919 34.7105C4.85953 33.4403 3.44607 34.0083 2.0921 33.8862Z" fill="#212322"/>
<path d="M24.2614 54.022C21.7172 46.7542 17.5831 40.8729 11.9741 36.5409C11.5303 36.1988 10.8928 36.2804 10.5501 36.7241C10.2074 37.1679 10.2895 37.8054 10.7333 38.1487C25.0521 49.2058 24.4999 67.3486 25.1005 68.413C25.6943 69.4669 27.321 68.7652 26.953 67.6081C26.8099 66.6005 26.6582 60.8688 24.2614 54.022Z" fill="#212322"/>
<path d="M16.7702 60.7661C13.769 56.0772 9.30334 53.3251 3.85534 52.8065C3.29785 52.7528 2.80195 53.1624 2.74878 53.7209C2.69561 54.2789 3.10518 54.7743 3.66319 54.8275C8.51159 55.2892 12.3335 57.636 15.023 61.8027C17.0676 64.9702 17.6641 68.0598 17.6714 68.0993C17.7741 68.6541 18.3074 69.0137 18.8533 68.9126C19.405 68.811 19.7693 68.2819 19.6682 67.7308C19.6424 67.5907 19.0123 64.2684 16.7702 60.7661Z" fill="#212322"/>
<path d="M15.7036 26.4472C15.7036 28.6551 17.4998 30.4512 19.7076 30.4512C21.9149 30.4512 23.7111 28.6551 23.7111 26.4472C23.7111 24.2394 21.9149 22.4437 19.7076 22.4437C17.4998 22.4437 15.7036 24.2399 15.7036 26.4472ZM19.7071 24.4736C20.7952 24.4736 21.6807 25.3591 21.6807 26.4472C21.6807 27.5354 20.7952 28.4208 19.7071 28.4208C18.619 28.4208 17.734 27.5354 17.734 26.4472C17.734 25.3591 18.619 24.4736 19.7071 24.4736Z" fill="#212322"/>
<path d="M6.43175 48.5925C8.63906 48.5925 10.4352 46.7963 10.4352 44.5885C10.4352 42.3812 8.63906 40.585 6.43175 40.585C4.22391 40.585 2.42773 42.3812 2.42773 44.5885C2.42773 46.7963 4.22391 48.5925 6.43175 48.5925ZM6.43175 42.6154C7.51988 42.6154 8.4048 43.5003 8.4048 44.5885C8.4048 45.6766 7.51988 46.562 6.43175 46.562C5.34362 46.562 4.45817 45.6766 4.45817 44.5885C4.45817 43.5003 5.34362 42.6154 6.43175 42.6154Z" fill="#212322"/>
<path d="M8.62251 15.606C8.1603 15.9234 8.04344 16.5551 8.36035 17.0173L11.0104 20.8745C11.2073 21.1614 11.5247 21.3151 11.8479 21.3151C12.6544 21.3151 13.1498 20.4028 12.6839 19.7253L10.0344 15.8676C9.71695 15.4054 9.08471 15.288 8.62251 15.606Z" fill="#212322"/>
<path d="M15.368 13.1765C15.487 13.6334 15.8986 13.9361 16.3498 13.9361C17.0157 13.9361 17.5 13.307 17.3331 12.6648L16.1545 8.13594C16.0134 7.59319 15.4591 7.26786 14.9163 7.40894C14.3741 7.55002 14.0482 8.10435 14.1898 8.6471L15.368 13.1765Z" fill="#212322"/>
<path d="M3.93388 7.13048C7.83892 9.80263 7.77575 10.0095 8.34377 10.0095C9.32977 10.0095 9.73985 8.73503 8.92915 8.16438L5.10255 5.47012C4.64403 5.14742 4.01074 5.25745 3.68804 5.71597C3.36534 6.17448 3.47536 6.80778 3.93388 7.13048Z" fill="#212322"/>
</g>
<defs>
<clipPath id="clip0">
<rect width="69" height="69" fill="white"/>
</clipPath>
</defs>
</svg>
