<svg width="152" height="152" viewBox="0 0 152 152" fill="none" xmlns="http://www.w3.org/2000/svg">
<path d="M121.58 149.031H30.4209L37.8652 127.063H114.135L121.58 149.031Z" fill="#768590"/>
<path d="M110.734 127.063H41.2656V81.0445C41.2656 61.8619 56.8169 46.311 76 46.311C95.1831 46.311 110.734 61.8619 110.734 81.0445V127.063Z" fill="#FF5D5D"/>
<path d="M75.9999 91.1424C72.7205 91.1424 70.0625 88.4842 70.0625 85.2052V70.9555C70.0625 67.6762 72.7208 65.0183 75.9999 65.0183C79.2792 65.0183 81.9372 67.6765 81.9372 70.9555V85.2052C81.9372 88.4839 79.2792 91.1424 75.9999 91.1424Z" fill="white"/>
<path d="M75.9999 114.892C72.7205 114.892 70.0625 112.233 70.0625 108.954C70.0625 105.675 72.7208 103.017 75.9999 103.017C79.2792 103.017 81.9372 105.675 81.9372 108.954C81.9372 112.233 79.2792 114.892 75.9999 114.892Z" fill="white"/>
<path d="M116.946 126.11C116.538 124.905 115.407 124.094 114.135 124.094H113.703V81.0445C113.703 60.2556 96.7892 43.3423 75.9994 43.3423C55.2095 43.3423 38.2961 60.2553 38.2961 81.0445V124.094H37.8641C36.5917 124.094 35.4606 124.905 35.0524 126.11L27.6083 148.079C27.301 148.985 27.4498 149.983 28.0073 150.761C28.5649 151.539 29.4629 152 30.4201 152H121.579C122.536 152 123.434 151.539 123.992 150.761C124.549 149.983 124.698 148.985 124.391 148.079L116.946 126.11ZM44.2341 81.0448C44.2341 63.5298 58.4842 49.2801 75.9997 49.2801C93.5152 49.2801 107.765 63.5298 107.765 81.0448V124.095H44.2341V81.0448ZM34.561 146.063L39.9934 130.032H112.006L117.438 146.063H34.561Z" fill="#212322"/>
<path d="M76.0001 23.7497C77.6395 23.7497 78.9689 22.4203 78.9689 20.781V2.96875C78.9689 1.32941 77.6395 0 76.0001 0C74.3607 0 73.0312 1.32941 73.0312 2.96875V20.781C73.0312 22.4203 74.3604 23.7497 76.0001 23.7497Z" fill="#212322"/>
<path d="M76.0001 35.3145C76.7809 35.3145 77.5468 34.9996 78.0987 34.4477C78.6509 33.8925 78.9689 33.1295 78.9689 32.3488C78.9689 31.5647 78.6512 30.802 78.0987 30.2469C77.5468 29.6947 76.7809 29.38 76.0001 29.38C75.2193 29.38 74.4533 29.6947 73.9011 30.2469C73.3489 30.802 73.0312 31.5647 73.0312 32.3488C73.0312 33.1295 73.3486 33.8925 73.9011 34.4477C74.4533 34.9996 75.2193 35.3145 76.0001 35.3145Z" fill="#212322"/>
<path d="M31.3206 82.4301C31.3206 80.7907 29.9912 79.4613 28.3518 79.4613H14.7198C13.0804 79.4613 11.751 80.7907 11.751 82.4301C11.751 84.0694 13.0804 85.3988 14.7198 85.3988H28.3521C29.9912 85.3988 31.3206 84.0694 31.3206 82.4301Z" fill="#212322"/>
<path d="M2.96883 79.4617C2.18803 79.4617 1.42207 79.779 0.869868 80.3315C0.317665 80.884 0 81.6496 0 82.4304C0 83.2112 0.317368 83.9771 0.869868 84.529C1.42207 85.0812 2.18803 85.3992 2.96883 85.3992C3.74963 85.3992 4.51559 85.0815 5.0675 84.529C5.6197 83.9771 5.93766 83.2112 5.93766 82.4304C5.93766 81.6496 5.62 80.8837 5.0675 80.3315C4.51559 79.779 3.74963 79.4617 2.96883 79.4617Z" fill="#212322"/>
<path d="M50.5261 28.6904C50.9999 29.8337 52.1052 30.5239 53.2702 30.5239C53.6487 30.5239 54.0335 30.4509 54.4051 30.2971C55.9201 29.6695 56.6392 27.9328 56.0119 26.4181L51.9879 16.7041C51.3603 15.1894 49.6238 14.4713 48.1088 15.0974C46.5938 15.725 45.8748 17.4617 46.5021 18.9764L50.5261 28.6904Z" fill="#212322"/>
<path d="M21.1212 62.6692C22.2862 62.6692 23.3915 61.9789 23.8653 60.8357C24.4926 59.3207 23.7732 57.5843 22.2585 56.9567L12.5442 52.9332C11.0289 52.3074 9.29277 53.0255 8.66516 54.5399C8.03785 56.0548 8.75719 57.7912 10.2719 58.4188L19.9862 62.4427C20.3579 62.5958 20.7427 62.6692 21.1212 62.6692Z" fill="#212322"/>
<path d="M138.518 79.4617H124.886C123.246 79.4617 121.917 80.7911 121.917 82.4304C121.917 84.0698 123.246 85.3992 124.886 85.3992H138.518C140.157 85.3992 141.487 84.0698 141.487 82.4304C141.487 80.7911 140.157 79.4617 138.518 79.4617Z" fill="#212322"/>
<path d="M151.13 80.3315C150.578 79.7793 149.812 79.4617 149.031 79.4617C148.251 79.4617 147.485 79.779 146.932 80.3315C146.38 80.884 146.062 81.6496 146.062 82.4304C146.062 83.2112 146.38 83.9771 146.932 84.529C147.485 85.0812 148.251 85.3992 149.031 85.3992C149.812 85.3992 150.578 85.0815 151.13 84.529C151.682 83.9771 152 83.2112 152 82.4304C152 81.6493 151.683 80.8837 151.13 80.3315Z" fill="#212322"/>
<path d="M118.001 43.3983C118.761 43.3983 119.521 43.1083 120.101 42.5288L134.708 27.9214C135.867 26.7621 135.867 24.8822 134.708 23.7226C133.548 22.5636 131.669 22.5636 130.509 23.7226L115.902 38.3301C114.742 39.4894 114.742 41.3692 115.902 42.5288C116.482 43.1086 117.242 43.3983 118.001 43.3983Z" fill="#212322"/>
<path d="M31.8992 42.5292C32.479 43.1087 33.2387 43.3987 33.9985 43.3987C34.7582 43.3987 35.5179 43.1087 36.0977 42.5292C37.2571 41.3699 37.2571 39.4901 36.0977 38.3305L21.4902 23.7236C20.3306 22.5646 18.4513 22.5646 17.2914 23.7236C16.132 24.8829 16.132 26.7627 17.2914 27.9223L31.8992 42.5292Z" fill="#212322"/>
<path d="M97.5951 30.2969C97.9668 30.4507 98.3516 30.5237 98.7301 30.5237C99.8951 30.5237 101 29.8335 101.474 28.6902L105.498 18.9762C106.125 17.4612 105.406 15.7248 103.891 15.0972C102.376 14.4714 100.64 15.1896 100.012 16.7039L95.9884 26.418C95.3611 27.9326 96.0804 29.669 97.5951 30.2969Z" fill="#212322"/>
<path d="M139.456 52.9331L129.742 56.957C128.227 57.5846 127.508 59.3213 128.135 60.836C128.609 61.9792 129.714 62.6695 130.879 62.6695C131.258 62.6695 131.642 62.5964 132.014 62.4426L141.728 58.4188C143.243 57.7912 143.962 56.0545 143.335 54.5398C142.707 53.0249 140.971 52.3067 139.456 52.9331Z" fill="#212322"/>
<path d="M75.9999 62.0492C71.0889 62.0492 67.0938 66.0445 67.0938 70.9552V85.2049C67.0938 90.1158 71.0892 94.1108 75.9999 94.1108C80.9107 94.1108 84.9061 90.1155 84.9061 85.2049V70.9552C84.9061 66.0445 80.911 62.0492 75.9999 62.0492ZM78.9688 85.2049C78.9688 86.8418 77.637 88.1736 75.9999 88.1736C74.3629 88.1736 73.0311 86.8418 73.0311 85.2049V70.9552C73.0311 69.3182 74.3629 67.9864 75.9999 67.9864C77.637 67.9864 78.9688 69.3182 78.9688 70.9552V85.2049Z" fill="#212322"/>
<path d="M75.9999 100.048C71.0889 100.048 67.0938 104.044 67.0938 108.954C67.0938 113.865 71.0892 117.86 75.9999 117.86C80.9107 117.86 84.9061 113.865 84.9061 108.954C84.9061 104.044 80.911 100.048 75.9999 100.048ZM75.9999 111.923C74.3629 111.923 73.0311 110.591 73.0311 108.954C73.0311 107.317 74.3629 105.986 75.9999 105.986C77.637 105.986 78.9688 107.317 78.9688 108.954C78.9688 110.591 77.637 111.923 75.9999 111.923Z" fill="#212322"/>
</svg>
