<svg width="30" height="30" viewBox="0 0 30 30" fill="none" xmlns="http://www.w3.org/2000/svg">
<path d="M22.0312 0H7.96875C6.51489 0 5.33203 1.18286 5.33203 2.63672V27.3633C5.33203 28.8171 6.51489 30 7.96875 30H22.0312C23.4851 30 24.668 28.8171 24.668 27.3633V2.63672C24.668 1.18286 23.4851 0 22.0312 0ZM22.9102 27.3633C22.9102 27.8478 22.5158 28.2422 22.0312 28.2422H7.96875C7.48421 28.2422 7.08984 27.8478 7.08984 27.3633V2.63672C7.08984 2.15218 7.48421 1.75781 7.96875 1.75781H22.0312C22.5158 1.75781 22.9102 2.15218 22.9102 2.63672V27.3633Z" fill="#212322"/>
<path d="M15 14.1211C11.6075 14.1211 8.84766 16.881 8.84766 20.2734C8.84766 23.6982 11.6075 26.4844 15 26.4844C18.3925 26.4844 21.1523 23.6982 21.1523 20.2734C21.1523 16.881 18.3925 14.1211 15 14.1211ZM15 24.7266C12.5768 24.7266 10.6055 22.7289 10.6055 20.2734C10.6055 17.8503 12.5768 15.8789 15 15.8789C17.4232 15.8789 19.3945 17.8503 19.3945 20.2734C19.3945 22.7289 17.4232 24.7266 15 24.7266Z" fill="#212322"/>
<path d="M15 17.6367C13.5461 17.6367 12.3633 18.8196 12.3633 20.2734C12.3633 21.7273 13.5461 22.9102 15 22.9102C16.4539 22.9102 17.6367 21.7273 17.6367 20.2734C17.6367 18.8196 16.4539 17.6367 15 17.6367ZM15 21.1523C14.5155 21.1523 14.1211 20.758 14.1211 20.2734C14.1211 19.7889 14.5155 19.3945 15 19.3945C15.4845 19.3945 15.8789 19.7889 15.8789 20.2734C15.8789 20.758 15.4848 21.1523 15 21.1523Z" fill="#212322"/>
<path d="M15 12.3633C17.4232 12.3633 19.3945 10.3919 19.3945 7.96875C19.3945 6.79504 18.94 5.68359 18.1144 4.83925C17.2801 3.98575 16.1742 3.51562 15 3.51562C13.8258 3.51562 12.7199 3.98575 11.8856 4.83925C11.06 5.68359 10.6055 6.79504 10.6055 7.96875C10.6055 10.3919 12.5768 12.3633 15 12.3633ZM15 5.27344C16.4294 5.27344 17.6367 6.5078 17.6367 7.96875C17.6367 9.42261 16.4539 10.6055 15 10.6055C13.5461 10.6055 12.3633 9.42261 12.3633 7.96875C12.3633 6.5078 13.5709 5.27344 15 5.27344Z" fill="#212322"/>
<path d="M15.8789 7.96875C15.8789 8.45421 15.4855 8.84766 15 8.84766C14.5145 8.84766 14.1211 8.45421 14.1211 7.96875C14.1211 7.48329 14.5145 7.08984 15 7.08984C15.4855 7.08984 15.8789 7.48329 15.8789 7.96875Z" fill="#212322"/>
<path d="M22.0312 3.51562C22.0312 4.00108 21.6378 4.39453 21.1523 4.39453C20.6669 4.39453 20.2734 4.00108 20.2734 3.51562C20.2734 3.03017 20.6669 2.63672 21.1523 2.63672C21.6378 2.63672 22.0312 3.03017 22.0312 3.51562Z" fill="#212322"/>
<path d="M9.72656 3.51562C9.72656 4.00108 9.33311 4.39453 8.84766 4.39453C8.3622 4.39453 7.96875 4.00108 7.96875 3.51562C7.96875 3.03017 8.3622 2.63672 8.84766 2.63672C9.33311 2.63672 9.72656 3.03017 9.72656 3.51562Z" fill="#212322"/>
<path d="M22.0312 26.4844C22.0312 26.9698 21.6378 27.3633 21.1523 27.3633C20.6669 27.3633 20.2734 26.9698 20.2734 26.4844C20.2734 25.9989 20.6669 25.6055 21.1523 25.6055C21.6378 25.6055 22.0312 25.9989 22.0312 26.4844Z" fill="#212322"/>
<path d="M9.72656 26.4844C9.72656 26.9698 9.33311 27.3633 8.84766 27.3633C8.3622 27.3633 7.96875 26.9698 7.96875 26.4844C7.96875 25.9989 8.3622 25.6055 8.84766 25.6055C9.33311 25.6055 9.72656 25.9989 9.72656 26.4844Z" fill="#212322"/>
<path d="M28.4997 7.34734L26.7419 9.10515C26.3985 9.44847 26.3985 10.0049 26.7419 10.348C27.085 10.6913 27.6416 10.6913 27.9847 10.348L29.7425 8.59016C30.0858 8.24707 30.0858 7.69066 29.7425 7.34734C29.3994 7.00401 28.8428 7.00401 28.4997 7.34734Z" fill="#212322"/>
<path d="M27.9847 16.1364C27.6416 15.7931 27.0852 15.7931 26.7419 16.1364C26.3985 16.4797 26.3985 17.0361 26.7419 17.3792L28.4997 19.137C28.8428 19.4804 29.3994 19.4804 29.7425 19.137C30.0858 18.7939 30.0858 18.2375 29.7425 17.8942L27.9847 16.1364Z" fill="#212322"/>
<path d="M29.1211 14.1211C29.6066 14.1211 30 13.7276 30 13.2422C30 12.7567 29.6066 12.3633 29.1211 12.3633H27.3633C26.8778 12.3633 26.4844 12.7567 26.4844 13.2422C26.4844 13.7276 26.8778 14.1211 27.3633 14.1211H29.1211Z" fill="#212322"/>
<path d="M2.0153 10.348C2.3584 10.6913 2.91504 10.6913 3.25813 10.348C3.60146 10.0049 3.60146 9.44847 3.25813 9.10515L1.50032 7.34734C1.15723 7.00401 0.600815 7.00401 0.257492 7.34734C-0.0858307 7.69066 -0.0858307 8.24707 0.257492 8.59016L2.0153 10.348Z" fill="#212322"/>
<path d="M1.50032 19.137L3.25813 17.3792C3.60146 17.0361 3.60146 16.4797 3.25813 16.1364C2.91504 15.7931 2.35863 15.7931 2.0153 16.1364L0.257492 17.8942C-0.0858307 18.2375 -0.0858307 18.7939 0.257492 19.137C0.600586 19.4804 1.15723 19.4804 1.50032 19.137Z" fill="#212322"/>
<path d="M0.878906 12.3633C0.393448 12.3633 0 12.7567 0 13.2422C0 13.7276 0.393448 14.1211 0.878906 14.1211H2.63672C3.12218 14.1211 3.51562 13.7276 3.51562 13.2422C3.51562 12.7567 3.12218 12.3633 2.63672 12.3633H0.878906Z" fill="#212322"/>
</svg>
