<svg width="153" height="153" viewBox="0 0 153 153" fill="none" xmlns="http://www.w3.org/2000/svg">
<path d="M153 76.5C153 118.75 118.75 153 76.5 153C34.2502 153 0 118.75 0 76.5C0 34.2502 34.2502 0 76.5 0C118.75 0 153 34.2502 153 76.5Z" fill="url(#paint0_linear)"/>
<path d="M111.73 88.5789V43.2829C111.73 23.8257 96.1826 8.05263 77.0033 8.05263C57.8241 8.05263 42.2764 23.8257 42.2764 43.2829V88.5789H111.73Z" fill="#FECB66"/>
<path d="M86.5656 21.1382C69.2525 30.898 53.7944 33.1004 44.5195 32.4998C43.7082 35.1248 43.2926 37.8577 43.2827 40.6079V48.3158L49.4659 48.1155L86.5656 28.0952V21.1382Z" fill="#F5AD76"/>
<path d="M77.5066 56.3684H42.2764V88.579H77.5066V56.3684Z" fill="#F5AD76"/>
<path d="M24.1577 132.291V126.323C24.1551 116.292 31.7044 107.829 41.7727 106.575L52.5432 105.257L57.2743 104.684L77.0031 148.558L96.7573 104.684L101.488 105.256L112.233 106.575C122.302 107.828 129.851 116.292 129.849 126.323V131.329C116.068 144.74 97.2483 153 76.4998 153C56.2521 153 37.8416 145.134 24.1577 132.291Z" fill="#787D82"/>
<path d="M59.8916 128.899L57.375 138.936L77.5066 148.974L57.7778 104.684L53.0468 105.286L42.2764 128.899H59.8916Z" fill="#868C91"/>
<path d="M94.115 128.899H111.73L100.96 105.286L96.2288 104.684L76.5 148.974L96.6316 138.936L94.115 128.899Z" fill="#868C91"/>
<path d="M77.0034 148.974L86.5659 125.822H67.4409L77.0034 148.974Z" fill="#EBEBEB"/>
<path d="M93.9022 104.022C91.3834 103.707 89.5007 101.574 89.521 99.0565V88.5789H64.485V99.0815C64.505 101.599 62.6223 103.732 60.1038 104.047L57.375 104.395L66.9888 125.822H87.0177L96.6316 104.37L93.9022 104.022Z" fill="#FEDAC6"/>
<path d="M89.5854 99.9988V88.5789H64.4209V99.9988C73.8573 104.904 80.1487 104.904 89.5854 99.9988Z" fill="#F5C4B0"/>
<path d="M34.2235 140.267C30.6452 137.89 27.2786 135.22 24.1577 132.291V125.941C24.1654 118.832 28.0002 112.266 34.2235 108.711V140.267Z" fill="#717478"/>
<path d="M49.3223 45.7971L50.7062 68.4424C51.3429 82.9631 63.6307 94.2203 78.1531 93.5863C91.7874 92.9901 102.704 82.075 103.3 68.4424L104.684 45.7971L87.069 28.1842L49.3223 45.7971Z" fill="#FEDAC6"/>
<path d="M62.9559 56.7582L62.1842 39.2566C58.0658 41.8294 53.7674 44.1171 49.3223 46.1072L51.4831 69.2845C52.0438 81.0633 60.6381 91.0241 72.4736 93.6118L69.0524 87.4363C63.3418 77.1603 62.9559 68.4594 62.9559 56.7582Z" fill="#F5C4B0"/>
<path d="M62.4081 63.4145C67.9673 63.4145 72.4739 58.9079 72.4739 53.3487C72.4739 47.7895 67.9673 43.2829 62.4081 43.2829C56.8489 43.2829 52.3423 47.7895 52.3423 53.3487C52.3423 58.9079 56.8489 63.4145 62.4081 63.4145Z" fill="#EBEBEB"/>
<path d="M91.5985 63.4145C97.1577 63.4145 101.664 58.9079 101.664 53.3487C101.664 47.7895 97.1577 43.2829 91.5985 43.2829C86.0393 43.2829 81.5327 47.7895 81.5327 53.3487C81.5327 58.9079 86.0393 63.4145 91.5985 63.4145Z" fill="#EBEBEB"/>
<path d="M107.2 48.3158H104.684V63.4145H107.2C111.37 63.4145 114.75 60.035 114.75 55.8651C114.75 51.6953 111.37 48.3158 107.2 48.3158Z" fill="#FEDAC6"/>
<path d="M39.2563 55.8651C39.2563 60.035 42.6359 63.4145 46.8058 63.4145H49.3221V48.3158H46.8058C42.6359 48.3158 39.2563 51.6953 39.2563 55.8651Z" fill="#F5C4B0"/>
<path d="M76.0325 68.4474L69.0356 65.8899C67.8136 65.4424 67.1536 63.9948 67.5616 62.6545L72.2263 47.3092L76.6507 48.9283L72.7232 61.8465L77.5067 63.5959L76.0325 68.4474Z" fill="#212322"/>
<path d="M107.1 66.4342H104.684V61.4013H107.1C109.764 61.4013 111.932 59.1442 111.932 56.3684C111.932 53.5929 109.765 51.3355 107.1 51.3355H104.684V46.3026H107.1C112.429 46.3026 116.763 50.8171 116.763 56.3681C116.763 61.9191 112.429 66.4342 107.1 66.4342Z" fill="#212322"/>
<path d="M77.003 95.625C61.785 95.625 49.3384 83.7916 48.6679 68.6884L47.3091 46.6026L52.2491 46.3026L53.6102 68.4302C54.1645 80.9398 64.4405 90.7079 77.003 90.7079C89.5656 90.7079 99.8416 80.9398 100.393 68.4723L101.757 46.3029L106.697 46.6028L105.336 68.7304C104.67 83.7942 92.2211 95.625 77.003 95.625Z" fill="#212322"/>
<path d="M74.3063 78.5132C74.3038 78.5132 74.3015 78.5132 74.299 78.5132H72.4736V73.6453H74.299C74.3015 73.6453 74.3038 73.6453 74.3063 73.6453C77.4504 73.6453 80.5993 72.8932 83.4095 71.4671L85.5592 75.8213C82.0838 77.5833 78.1927 78.5132 74.3063 78.5132Z" fill="#212322"/>
<path d="M50.6815 50.3289L48.3159 46.0142L86.0236 26.4569C87.0518 25.9263 88.3315 26.1489 89.1007 27.0043L106.698 46.5617L102.912 49.7812L86.6296 31.6835L50.6815 50.3289Z" fill="#212322"/>
<path d="M49.3226 66.4342H46.9069C41.5774 66.4342 37.2437 61.9196 37.2437 56.3684C37.2437 50.8172 41.5777 46.3026 46.9069 46.3026H49.3226V51.3354H46.9069C44.2423 51.3354 42.0751 53.5925 42.0751 56.3684C42.0751 59.144 44.242 61.4015 46.9069 61.4015H49.3226V66.4342Z" fill="#212322"/>
<path d="M114.75 51.3355H109.717V43.7862C109.717 25.7483 95.041 11.0725 77.0031 11.0725C58.9651 11.0725 44.2893 25.7483 44.2893 43.7862V51.3355H39.2563V43.7862C39.2563 22.9727 56.1896 6.03947 77.0031 6.03947C97.8165 6.03947 114.75 22.9727 114.75 43.7862V51.3355Z" fill="black"/>
<path d="M89.5856 11.0724H84.5527V28.1842H89.5856V11.0724Z" fill="#212322"/>
<path d="M62.4077 90.5921H41.8286C40.4088 90.5921 39.2563 89.5049 39.2563 88.1596V61.4013H44.4012V85.7269H62.4077V90.5921Z" fill="black"/>
<path d="M112.178 90.5921H91.5986V85.7269H109.605V61.4013H114.75V88.1596C114.75 89.5049 113.6 90.5921 112.178 90.5921Z" fill="black"/>
<path d="M61.9045 66.4342C54.9668 66.4342 49.3223 60.7899 49.3223 53.852C49.3223 46.914 54.9665 41.2697 61.9045 41.2697C68.8425 41.2697 74.4867 46.914 74.4867 53.852C74.4867 60.7899 68.8422 66.4342 61.9045 66.4342ZM61.9045 46.3027C57.7424 46.3027 54.3552 49.6898 54.3552 53.852C54.3552 58.0141 57.7424 61.4013 61.9045 61.4013C66.0666 61.4013 69.4538 58.0141 69.4538 53.852C69.4538 49.6898 66.0666 46.3027 61.9045 46.3027Z" fill="#212322"/>
<path d="M92.1018 66.4342C85.1641 66.4342 79.5195 60.7899 79.5195 53.852C79.5195 46.914 85.1638 41.2697 92.1018 41.2697C99.0397 41.2697 104.684 46.914 104.684 53.852C104.684 60.7899 99.0394 66.4342 92.1018 66.4342ZM92.1018 46.3027C87.9396 46.3027 84.5525 49.6898 84.5525 53.852C84.5525 58.0141 87.9396 61.4013 92.1018 61.4013C96.2639 61.4013 99.651 58.0141 99.651 53.852C99.651 49.6898 96.2639 46.3027 92.1018 46.3027Z" fill="#212322"/>
<path d="M81.533 46.3026H69.4541V51.3355H81.533V46.3026Z" fill="#212322"/>
<path d="M77.0035 150.987C75.9998 150.987 75.0902 150.409 74.6814 149.508L54.3555 104.695L58.9973 102.671L77.0035 142.368L95.007 102.674L99.6515 104.698L79.3256 149.511C78.9168 150.409 78.0072 150.987 77.0035 150.987Z" fill="#212322"/>
<path d="M27.1797 134.981C25.4326 133.506 23.7524 131.954 22.1445 130.331V125.973C22.1419 114.584 30.6645 104.921 41.9714 103.496L60.2044 101.232C61.4657 101.073 62.4125 99.991 62.4049 98.7153V90.5921H67.4403V98.695C67.4704 102.505 64.628 105.751 60.8314 106.224L42.6007 108.489C33.8064 109.596 27.1774 117.113 27.1797 125.973V134.981Z" fill="#212322"/>
<path d="M126.826 134.117V125.973C126.829 117.113 120.199 109.596 111.404 108.492L93.1805 106.227C89.3787 105.754 86.5361 102.505 86.5662 98.6776V90.5921H91.6019V98.695C91.5919 99.991 92.5384 101.073 93.8025 101.232L112.029 103.496C123.339 104.918 131.865 114.581 131.862 125.973V129.295C130.257 130.977 128.577 132.586 126.826 134.117Z" fill="#212322"/>
<path d="M76.2414 150.987L55.9094 140.867C54.8446 140.335 54.2903 139.139 54.5801 137.99L56.3311 131.012H41.7964C40.9374 131.012 40.1342 130.58 39.6666 129.861C39.199 129.142 39.1251 128.237 39.476 127.455L49.6418 104.684L54.285 106.741L45.7075 125.952H59.5867C60.3694 125.952 61.1089 126.312 61.5893 126.926C62.0697 127.538 62.2424 128.34 62.0518 129.094L60.0033 137.246L78.5129 146.461L76.2414 150.987Z" fill="#212322"/>
<path d="M79.5197 148.974H74.4868V153H79.5197V148.974Z" fill="#212322"/>
<path d="M77.7679 150.987L75.4937 146.461L93.9982 137.247L91.9527 129.096C91.7621 128.339 91.9324 127.54 92.4151 126.927C92.8979 126.313 93.6376 125.953 94.4202 125.953H108.297L99.7211 106.741L104.366 104.684L114.531 127.454C114.881 128.238 114.808 129.141 114.34 129.86C113.873 130.578 113.069 131.013 112.208 131.013H97.6756L99.4239 137.991C99.7136 139.139 99.1597 140.336 98.0975 140.867L77.7679 150.987Z" fill="#212322"/>
<path d="M86.5659 123.809H67.4409V128.842H86.5659V123.809Z" fill="#212322"/>
<path d="M114.75 51.3355H109.717V43.7862C109.717 25.7483 95.041 11.0725 77.0031 11.0725C58.9651 11.0725 44.2893 25.7483 44.2893 43.7862V51.3355H39.2563V43.7862C39.2563 22.9727 56.1896 6.03947 77.0031 6.03947C97.8165 6.03947 114.75 22.9727 114.75 43.7862V51.3355Z" fill="#212322"/>
<path d="M62.4077 90.5921H41.8286C40.4088 90.5921 39.2563 89.5049 39.2563 88.1596V61.4013H44.4012V85.7269H62.4077V90.5921Z" fill="#212322"/>
<path d="M112.178 90.5921H91.5986V85.7269H109.605V61.4013H114.75V88.1596C114.75 89.5049 113.6 90.5921 112.178 90.5921Z" fill="#212322"/>
<defs>
<linearGradient id="paint0_linear" x1="0" y1="153" x2="153" y2="0" gradientUnits="userSpaceOnUse">
<stop stop-color="#D9017A"/>
<stop offset="0.0001" stop-color="#D9017A"/>
<stop offset="1" stop-color="#FDDA24"/>
</linearGradient>
</defs>
</svg>
