<svg width="150" height="150" viewBox="0 0 150 150" fill="none" xmlns="http://www.w3.org/2000/svg">
<path d="M129.903 21.3049L85.0011 86.1248L80.3208 92.8813V115.569L97.3831 98.8938L88.6691 82.6276" fill="#FDDA24"/>
<path d="M64.466 88.0306L31.5002 77.9452L130.734 19.2659V108.304L81.1172 93.1248" fill="#FDF2B8"/>
<path d="M80.3208 115.569L65.3376 88.2975L129.903 21.3049L81.7133 90.871L80.3208 115.569Z" fill="#FDDA24"/>
<path d="M131.857 17.2978C131.15 16.8945 130.281 16.9013 129.581 17.3154L88.0628 41.8665C86.9857 42.5034 86.6288 43.8927 87.2657 44.9697C87.9024 46.0466 89.2916 46.4034 90.3689 45.7668L120.158 28.1519L64.6714 85.724L37.0744 77.281L73.0898 55.9842C74.1668 55.3471 74.5237 53.9579 73.8868 52.8808C73.2502 51.804 71.8607 51.4467 70.7836 52.0838L30.3472 75.9948C29.5746 76.4518 29.1443 77.3216 29.2506 78.2131C29.3569 79.1046 29.9792 79.8491 30.8374 80.1117L63.7951 90.1945L78.3351 116.66C78.3503 116.687 78.3659 116.71 78.382 116.731C78.6247 117.136 78.9883 117.466 79.4419 117.657C79.7258 117.776 80.0241 117.835 80.3205 117.835C80.9011 117.835 81.4728 117.611 81.9044 117.189L98.6232 100.849L130.071 110.471C130.289 110.537 130.512 110.57 130.734 110.57C131.213 110.57 131.687 110.418 132.082 110.126C132.659 109.698 133 109.022 133 108.304V19.2657C133 18.4521 132.563 17.7008 131.857 17.2978ZM112.062 43.0818L78.4586 91.5908C78.1962 91.9699 78.0555 92.4198 78.0555 92.8809V106.74L68.1269 88.6682L112.062 43.0818ZM82.5868 110.187V95.9435L93.686 99.3392L82.5868 110.187ZM83.9495 91.6219L128.469 27.3548V105.242L83.9495 91.6219Z" fill="#212322"/>
<path d="M54.2523 95.7479C53.3674 94.8632 51.9333 94.8632 51.0481 95.7479L29.8982 116.898C29.0134 117.783 29.0134 119.217 29.8982 120.102C30.3409 120.544 30.9206 120.765 31.5004 120.765C32.0802 120.765 32.6599 120.544 33.1024 120.102L54.2523 98.9519C55.1371 98.0674 55.1371 96.6328 54.2523 95.7479Z" fill="#212322"/>
<path d="M22.8747 123.921L17.6638 129.132C16.7791 130.017 16.7791 131.451 17.6638 132.336C18.1063 132.779 18.686 133 19.2658 133C19.8456 133 20.4253 132.778 20.8678 132.336L26.0787 127.125C26.9634 126.24 26.9634 124.806 26.0787 123.921C25.1938 123.037 23.7596 123.037 22.8747 123.921Z" fill="#212322"/>
<path d="M47.7175 128.335C47.1192 128.335 46.5371 128.577 46.1157 128.999C45.6943 129.42 45.4519 130.002 45.4519 130.6C45.4519 131.196 45.6941 131.781 46.1157 132.202C46.5371 132.624 47.1217 132.866 47.7175 132.866C48.3134 132.866 48.8979 132.624 49.3191 132.202C49.7405 131.781 49.9831 131.196 49.9831 130.6C49.9831 130.002 49.7407 129.42 49.3191 128.999C48.8979 128.577 48.3134 128.335 47.7175 128.335Z" fill="#212322"/>
<path d="M62.9718 112.141L51.7693 123.344C50.8845 124.228 50.8845 125.663 51.7693 126.548C52.2117 126.99 52.7915 127.211 53.3713 127.211C53.951 127.211 54.5308 126.99 54.9733 126.548L66.1758 115.345C67.0605 114.461 67.0605 113.026 66.1758 112.141C65.2916 111.257 63.8574 111.257 62.9718 112.141Z" fill="#212322"/>
<path d="M101.635 111.281L90.4018 122.514C89.5171 123.399 89.5171 124.833 90.4018 125.718C90.8443 126.161 91.4241 126.382 92.0038 126.382C92.5836 126.382 93.1634 126.161 93.6058 125.718L104.839 114.486C105.723 113.601 105.723 112.166 104.839 111.281C103.954 110.397 102.52 110.397 101.635 111.281Z" fill="#212322"/>
<path d="M79.6286 51.7502C80.2245 51.7502 80.809 51.5101 81.2304 51.0864C81.6516 50.665 81.8943 50.0827 81.8943 49.4869C81.8943 48.8887 81.6518 48.3042 81.2304 47.8828C80.809 47.4614 80.2245 47.219 79.6286 47.219C79.0328 47.219 78.4483 47.4614 78.0269 47.8828C77.6057 48.3042 77.363 48.8887 77.363 49.4869C77.363 50.0827 77.6055 50.665 78.0269 51.0864C78.4483 51.5101 79.0328 51.7502 79.6286 51.7502Z" fill="#212322"/>
</svg>
