<svg width="100" height="100" viewBox="0 0 100 100" fill="none" xmlns="http://www.w3.org/2000/svg">
<path d="M18.823 66.829C19.3999 66.829 19.8679 66.3615 19.8679 65.7841V35.3505H81.6054V46.8364C81.6054 47.4138 82.0734 47.8813 82.6503 47.8813C83.2277 47.8813 83.6952 47.4138 83.6952 46.8364V26.1857C83.6952 22.6825 80.8451 19.8324 77.3425 19.8324H74.6023V18.5383C74.6023 17.1385 73.4638 16 72.064 16H70.1228C68.7236 16 67.585 17.1385 67.585 18.5383V19.8324H60.6549V18.5383C60.6549 17.1385 59.5164 16 58.1166 16H56.1754C54.7762 16 53.6376 17.1385 53.6376 18.5383V19.8324H46.7069V18.5383C46.7069 17.1385 45.5684 16 44.1687 16H42.228C40.8282 16 39.6897 17.1385 39.6897 18.5383V19.8324H32.7595V18.5383C32.7595 17.1385 31.621 16 30.2212 16H28.2805C26.8808 16 25.7423 17.1385 25.7423 18.5383V19.8324H24.1314C20.6282 19.8324 17.7781 22.6825 17.7781 26.1857V65.7841C17.7781 66.3615 18.2461 66.829 18.823 66.829ZM69.6749 18.5383C69.6749 18.2912 69.8762 18.0898 70.1233 18.0898H72.0646C72.3116 18.0898 72.5125 18.2912 72.5125 18.5383V23.6148C72.5125 23.8619 72.3116 24.0632 72.0646 24.0632H70.1233C69.8762 24.0632 69.6749 23.8624 69.6749 23.6148V18.5383ZM55.7275 18.5383C55.7275 18.2912 55.9283 18.0898 56.1754 18.0898H58.1166C58.3637 18.0898 58.5651 18.2912 58.5651 18.5383V23.6148C58.5651 23.8619 58.3637 24.0632 58.1166 24.0632H56.1754C55.9283 24.0632 55.7275 23.8624 55.7275 23.6148V18.5383ZM41.7795 18.5383C41.7795 18.2912 41.9809 18.0898 42.228 18.0898H44.1692C44.4163 18.0898 44.6176 18.2912 44.6176 18.5383V23.6148C44.6176 23.8619 44.4163 24.0632 44.1692 24.0632H42.228C41.9809 24.0632 41.7795 23.8624 41.7795 23.6148V18.5383ZM27.8321 18.5383C27.8321 18.2912 28.0335 18.0898 28.2805 18.0898H30.2218C30.4689 18.0898 30.6697 18.2912 30.6697 18.5383V23.6148C30.6697 23.8619 30.4689 24.0632 30.2218 24.0632H28.2805C28.0335 24.0632 27.8321 23.8624 27.8321 23.6148V18.5383ZM24.1314 21.9223H25.7423V23.6148C25.7423 25.0145 26.8808 26.1531 28.2805 26.1531H30.2218C31.621 26.1531 32.7595 25.0145 32.7595 23.6148V21.9223H39.6902V23.6148C39.6902 25.0145 40.8287 26.1531 42.228 26.1531H44.1692C45.569 26.1531 46.7075 25.0145 46.7075 23.6148V21.9223H53.6376V23.6148C53.6376 25.0145 54.7762 26.1531 56.1759 26.1531H58.1172C59.5164 26.1531 60.6549 25.0145 60.6549 23.6148V21.9223H67.585V23.6148C67.585 25.0145 68.7236 26.1531 70.1233 26.1531H72.0646C73.4638 26.1531 74.6023 25.0145 74.6023 23.6148V21.9223H77.3425C79.6935 21.9223 81.6059 23.8347 81.6059 26.1857V33.2607H19.8679V26.1857C19.8679 23.8347 21.7803 21.9223 24.1314 21.9223Z" fill="white"/>
<path d="M29.6079 76.5468H20.4965C20.1498 76.5468 19.8679 76.2649 19.8679 75.9182V70.5461C19.8679 69.9687 19.3999 69.5012 18.823 69.5012C18.2461 69.5012 17.7781 69.9687 17.7781 70.5461V75.9182C17.7781 77.417 18.9977 78.6366 20.4965 78.6366H29.6079C30.1848 78.6366 30.6528 78.1686 30.6528 77.5917C30.6528 77.0143 30.1848 76.5468 29.6079 76.5468Z" fill="white"/>
<path d="M29.5731 38.3975H25.9409C25.364 38.3975 24.896 38.8656 24.896 39.4424C24.896 40.0199 25.364 40.4874 25.9409 40.4874H29.5731C30.15 40.4874 30.618 40.0199 30.618 39.4424C30.618 38.8656 30.15 38.3975 29.5731 38.3975Z" fill="white"/>
<path d="M37.103 40.4874H40.7352C41.3121 40.4874 41.7801 40.0199 41.7801 39.4424C41.7801 38.8656 41.3121 38.3975 40.7352 38.3975H37.103C36.5261 38.3975 36.0581 38.8656 36.0581 39.4424C36.0581 40.0199 36.5261 40.4874 37.103 40.4874Z" fill="white"/>
<path d="M48.2651 40.4874H51.8967C52.4736 40.4874 52.9417 40.0199 52.9417 39.4424C52.9417 38.8656 52.4736 38.3975 51.8967 38.3975H48.2651C47.6877 38.3975 47.2202 38.8656 47.2202 39.4424C47.2202 40.0199 47.6877 40.4874 48.2651 40.4874Z" fill="white"/>
<path d="M59.4265 40.4874H63.0587C63.6356 40.4874 64.1036 40.0199 64.1036 39.4424C64.1036 38.8656 63.6356 38.3975 63.0587 38.3975H59.4265C58.8496 38.3975 58.3816 38.8656 58.3816 39.4424C58.3816 40.0199 58.8496 40.4874 59.4265 40.4874Z" fill="white"/>
<path d="M74.2202 38.3975H70.5886C70.0112 38.3975 69.5437 38.8656 69.5437 39.4424C69.5437 40.0199 70.0112 40.4874 70.5886 40.4874H74.2202C74.7971 40.4874 75.2651 40.0199 75.2651 39.4424C75.2651 38.8656 74.7971 38.3975 74.2202 38.3975Z" fill="white"/>
<path d="M29.5731 43.6521H25.9409C25.364 43.6521 24.896 44.1196 24.896 44.697C24.896 45.2744 25.364 45.7419 25.9409 45.7419H29.5731C30.15 45.7419 30.618 45.2744 30.618 44.697C30.618 44.1196 30.15 43.6521 29.5731 43.6521Z" fill="white"/>
<path d="M37.103 45.7419H40.7352C41.3121 45.7419 41.7801 45.2744 41.7801 44.697C41.7801 44.1196 41.3121 43.6521 40.7352 43.6521H37.103C36.5261 43.6521 36.0581 44.1196 36.0581 44.697C36.0581 45.2744 36.5261 45.7419 37.103 45.7419Z" fill="white"/>
<path d="M48.2651 45.7419H51.8967C52.4736 45.7419 52.9417 45.2744 52.9417 44.697C52.9417 44.1196 52.4736 43.6521 51.8967 43.6521H48.2651C47.6877 43.6521 47.2202 44.1196 47.2202 44.697C47.2202 45.2744 47.6877 45.7419 48.2651 45.7419Z" fill="white"/>
<path d="M59.4265 45.7419H63.0587C63.6356 45.7419 64.1036 45.2744 64.1036 44.697C64.1036 44.1196 63.6356 43.6521 63.0587 43.6521H59.4265C58.8496 43.6521 58.3816 44.1196 58.3816 44.697C58.3816 45.2744 58.8496 45.7419 59.4265 45.7419Z" fill="white"/>
<path d="M74.2202 43.6521H70.5886C70.0112 43.6521 69.5437 44.1196 69.5437 44.697C69.5437 45.2744 70.0112 45.7419 70.5886 45.7419H74.2202C74.7971 45.7419 75.2651 45.2744 75.2651 44.697C75.2651 44.1196 74.7971 43.6521 74.2202 43.6521Z" fill="white"/>
<path d="M37.1284 66.2554L42.501 71.628C43.2781 72.4052 44.3111 72.833 45.4104 72.833C46.5098 72.833 47.5432 72.4052 48.3198 71.628L63.033 56.9149C64.6374 55.3105 64.6374 52.6999 63.033 51.0955C61.4286 49.4911 58.818 49.4911 57.2136 51.0955L45.4104 62.8987L42.9473 60.436C41.3434 58.8317 38.7328 58.8317 37.1279 60.436C35.524 62.0404 35.524 64.6511 37.1284 66.2554ZM38.606 61.9136C39.0005 61.5191 39.5192 61.3215 40.0378 61.3215C40.5565 61.3215 41.0751 61.5191 41.4697 61.9136L44.6714 65.1153C45.0795 65.5235 45.7408 65.5235 46.1489 65.1153L58.6912 52.5736C59.4814 51.784 60.7657 51.784 61.5549 52.5731C62.3445 53.3628 62.3445 54.6477 61.5549 55.4373L46.8423 70.1499C46.4597 70.5325 45.9514 70.7431 45.4104 70.7431C44.8695 70.7431 44.3612 70.5325 43.9786 70.1499L38.606 64.7773C37.8163 63.9877 37.8163 62.7033 38.606 61.9136Z" fill="white"/>
<path d="M83.6953 59.9364V51.5983C83.6953 51.0209 83.2278 50.5534 82.6503 50.5534C82.0735 50.5534 81.6054 51.0209 81.6054 51.5983V58.6036C79.7001 57.6158 77.5379 57.0569 75.2478 57.0569C67.6036 57.0569 61.3847 63.2757 61.3847 70.9199C61.3847 72.9221 61.8119 74.8258 62.5788 76.5467H34.3694C33.7925 76.5467 33.3245 77.0141 33.3245 77.5916C33.3245 78.1684 33.7925 78.6365 34.3694 78.6365H63.7363C66.2272 82.341 70.4575 84.783 75.2478 84.783C82.892 84.783 89.1108 78.5641 89.1108 70.9199C89.1108 66.4529 86.9862 62.473 83.6953 59.9364ZM75.2478 82.6931C68.7557 82.6931 63.4746 77.412 63.4746 70.9199C63.4746 64.4279 68.7563 59.1467 75.2478 59.1467C81.7393 59.1467 87.021 64.4279 87.021 70.9199C87.021 77.412 81.7393 82.6931 75.2478 82.6931Z" fill="white"/>
<path d="M75.2477 60.6563C69.5883 60.6563 64.9841 65.261 64.9841 70.9199C64.9841 76.5793 69.5883 81.1834 75.2477 81.1834C80.9071 81.1834 85.5107 76.5793 85.5107 70.9199C85.5107 65.261 80.9065 60.6563 75.2477 60.6563ZM76.1832 79.0381C76.2523 78.8982 76.2926 78.7415 76.2926 78.575V77.302C76.2926 76.7251 75.8246 76.2571 75.2477 76.2571C74.6708 76.2571 74.2028 76.7251 74.2028 77.302V78.575C74.2028 78.7415 74.2425 78.8982 74.3122 79.0381C70.5516 78.6076 67.5599 75.616 67.1295 71.8554C67.2688 71.9251 67.4261 71.9648 67.5926 71.9648H68.865C69.4424 71.9648 69.9099 71.4973 69.9099 70.9199C69.9099 70.3425 69.4424 69.875 68.865 69.875H67.5926C67.4261 69.875 67.2688 69.9152 67.1295 69.9844C67.5599 66.2238 70.5516 63.2322 74.3122 62.8017C74.2425 62.9415 74.2028 63.0983 74.2028 63.2648V64.5378C74.2028 65.1152 74.6708 65.5827 75.2477 65.5827C75.8246 65.5827 76.2926 65.1152 76.2926 64.5378V63.2648C76.2926 63.0983 76.2523 62.9415 76.1832 62.8017C79.9438 63.2322 82.9354 66.2238 83.3659 69.9844C83.226 69.9152 83.0693 69.875 82.9028 69.875H81.6298C81.0529 69.875 80.5849 70.3425 80.5849 70.9199C80.5849 71.4973 81.0529 71.9648 81.6298 71.9648H82.9028C83.0693 71.9648 83.226 71.9251 83.3659 71.8554C82.9349 75.616 79.9438 78.6076 76.1832 79.0381Z" fill="white"/>
<path d="M77.551 69.875H76.2927V68.8035C76.2927 68.2266 75.8247 67.7585 75.2478 67.7585C74.6704 67.7585 74.2029 68.2266 74.2029 68.8035V70.92C74.2029 71.4974 74.6704 71.9649 75.2478 71.9649H77.551C78.1278 71.9649 78.5959 71.4974 78.5959 70.92C78.5959 70.3425 78.1278 69.875 77.551 69.875Z" fill="white"/>
</svg>
