<svg width="36" height="38" viewBox="0 0 36 38" fill="none" xmlns="http://www.w3.org/2000/svg">
<path d="M34.7057 13.9558C34.4493 13.8028 34.1314 13.7956 33.8686 13.9371L28.3838 16.8893V14.3594C28.3838 13.8909 28.0039 13.5111 27.5356 13.5111H26.1562C27.8765 12.1159 28.9783 9.98626 28.9783 7.60377C28.9784 3.41109 25.5673 0 21.3744 0C17.7958 0 14.787 2.48536 13.9824 5.82052C12.9298 4.55049 11.3412 3.74002 9.56663 3.74002C6.40492 3.74002 3.8328 6.31222 3.8328 9.47386C3.8328 11.0472 4.47004 12.4742 5.49967 13.5113H4.7252C4.25674 13.5113 3.87696 13.8911 3.87696 14.3596V18.21H1.72959C1.26112 18.21 0.881348 18.5898 0.881348 19.0582V22.3939C0.881348 22.8624 1.26112 23.2421 1.72959 23.2421H3.87688V27.0925C3.87688 27.561 4.25666 27.9408 4.72513 27.9408H14.7317L10.1341 36.7598C9.91754 37.1751 10.0787 37.6875 10.4941 37.904C10.6194 37.9693 10.7535 38.0003 10.8855 38.0003C11.1915 38.0003 11.487 37.8341 11.6383 37.5441L16.1302 28.9274L20.6222 37.5441C20.7735 37.8343 21.0691 38.0003 21.3751 38.0003C21.5071 38.0003 21.6413 37.9693 21.7665 37.904C22.1819 37.6875 22.3431 37.1751 22.1264 36.7598L17.5289 27.9408H27.5355C28.0039 27.9408 28.3838 27.561 28.3838 27.0925V24.5626L33.8686 27.5148C33.9944 27.5824 34.1325 27.6161 34.2706 27.6161C34.4213 27.6161 34.5718 27.5759 34.7057 27.4961C34.962 27.343 35.1188 27.0664 35.1188 26.7679V14.684C35.1188 14.3854 34.962 14.109 34.7057 13.9558ZM3.87696 21.5454H2.57784V19.9062H3.87696V21.5454ZM21.3744 1.69641C24.6317 1.69641 27.2819 4.34646 27.2819 7.60385C27.2819 10.8612 24.6318 13.5112 21.3744 13.5112C18.1171 13.5112 15.4671 10.8612 15.4671 7.60385C15.4672 4.34654 18.1172 1.69641 21.3744 1.69641ZM14.8972 11.5821C15.3502 12.3172 15.9249 12.9695 16.5928 13.5112H13.6336C14.1761 12.9648 14.6083 12.3095 14.8972 11.5821ZM9.56663 5.43636C11.7928 5.43636 13.604 7.24752 13.604 9.47378C13.604 11.7 11.7929 13.5113 9.56663 13.5113C7.34044 13.5113 5.52921 11.7001 5.52921 9.47378C5.52929 7.24752 7.34044 5.43636 9.56663 5.43636ZM26.6874 18.3091V23.1424V26.244H16.1456C16.144 26.244 16.1425 26.244 16.141 26.244H16.1186C16.1176 26.244 16.1166 26.244 16.1157 26.244H5.57337V22.3936V19.0579V15.2075H26.6874V18.3091ZM33.4224 25.3478L28.3838 22.6357V18.8158L33.4224 16.1037V25.3478Z" fill="#212322"/>
<path d="M9.56632 6.89722C8.14555 6.89722 6.98975 8.0531 6.98975 9.47379C6.98975 10.8946 8.14563 12.0504 9.56632 12.0504C10.9871 12.0504 12.1429 10.8945 12.1429 9.47379C12.143 8.0531 10.9871 6.89722 9.56632 6.89722ZM9.56632 10.5235C8.98742 10.5235 8.5165 10.0526 8.5165 9.47372C8.5165 8.89481 8.98742 8.42389 9.56632 8.42389C10.1452 8.42389 10.6161 8.89481 10.6161 9.47372C10.6161 10.0526 10.1452 10.5235 9.56632 10.5235Z" fill="#212322"/>
<path d="M21.3746 3.90356C19.3342 3.90356 17.6743 5.56354 17.6743 7.60388C17.6743 9.64415 19.3342 11.3041 21.3746 11.3041C23.4149 11.3041 25.0748 9.64415 25.0748 7.60388C25.0748 5.56354 23.415 3.90356 21.3746 3.90356ZM21.3746 9.60771C20.2697 9.60771 19.3707 8.70877 19.3707 7.60388C19.3707 6.49899 20.2697 5.59998 21.3746 5.59998C22.4794 5.59998 23.3784 6.49892 23.3784 7.60388C23.3784 8.70885 22.4794 9.60771 21.3746 9.60771Z" fill="#212322"/>
<path d="M18.6376 17.6742H9.41517C8.97008 17.6742 8.60938 18.035 8.60938 18.48V22.9716C8.60938 23.4167 8.97015 23.7774 9.41517 23.7774H18.6376C19.0827 23.7774 19.4434 23.4166 19.4434 22.9716V18.48C19.4434 18.035 19.0826 17.6742 18.6376 17.6742ZM17.8317 22.1658H10.221V19.2859H17.8318V22.1658H17.8317Z" fill="#212322"/>
<path d="M23.0865 20.1763C23.555 20.1763 23.9348 19.7966 23.9348 19.3281C23.9348 18.8596 23.555 18.4799 23.0865 18.4799C22.6181 18.4799 22.2383 18.8596 22.2383 19.3281C22.2383 19.7966 22.6181 20.1763 23.0865 20.1763Z" fill="#212322"/>
<path d="M23.0865 22.9711C23.555 22.9711 23.9348 22.5914 23.9348 22.1229C23.9348 21.6544 23.555 21.2747 23.0865 21.2747C22.6181 21.2747 22.2383 21.6544 22.2383 22.1229C22.2383 22.5914 22.6181 22.9711 23.0865 22.9711Z" fill="#212322"/>
</svg>
