<svg width="152" height="152" viewBox="0 0 152 152" fill="none" xmlns="http://www.w3.org/2000/svg">
<path d="M108.247 81.0433L141.913 114.709C145.114 117.911 145.089 123.176 141.856 126.408C138.624 129.641 133.359 129.667 130.157 126.465L96.4912 92.7989L108.247 81.0433Z" fill="#D9017A"/>
<path d="M108.247 81.0398L96.4917 92.795L106.86 103.163L118.615 91.4077L108.247 81.0398Z" fill="#FAB6DC"/>
<path d="M44.1354 81.9264H2.96875V39.1766H44.1354H107.765H149.031V81.9264H107.765H44.1354Z" fill="white"/>
<path d="M75.9999 97.9594C96.6587 97.9594 113.406 81.2121 113.406 60.5533C113.406 39.8945 96.6587 23.1472 75.9999 23.1472C55.341 23.1472 38.5938 39.8945 38.5938 60.5533C38.5938 81.2121 55.341 97.9594 75.9999 97.9594Z" fill="#FDF2B8"/>
<path d="M149.031 36.2078H108.208C103.527 30.0153 97.2458 25.342 89.9655 22.6579C88.4283 22.0906 86.7204 22.8779 86.1531 24.4166C85.5861 25.955 86.3734 27.662 87.9118 28.2291C101.385 33.1958 110.438 46.1852 110.438 60.5518C110.438 79.5407 94.9892 94.9892 76.0003 94.9892C57.0114 94.9892 41.5629 79.5407 41.5629 60.5518C41.5629 46.6397 49.8514 34.1704 62.679 28.7848C64.191 28.1498 64.9017 26.4098 64.2673 24.8981C63.6322 23.3859 61.8917 22.676 60.3806 23.3099C53.6421 26.1391 47.9772 30.6388 43.7711 36.2075H2.96874C1.3294 36.2075 0 37.5369 0 39.1763V81.9261C0 83.5655 1.3294 84.8949 2.96874 84.8949H19.8908C21.5302 84.8949 22.8596 83.5655 22.8596 81.9261C22.8596 80.2868 21.5302 78.9574 19.8908 78.9574H5.93748V42.145H40.0474C37.3764 47.3697 35.833 53.2092 35.6483 59.3126C35.1787 58.2923 34.1497 57.5825 32.9527 57.5825H30.079L31.5158 55.0938C32.3358 53.6738 31.8492 51.8584 30.4293 51.0385C29.0087 50.2185 27.1933 50.7051 26.374 52.125L24.9374 54.614L23.5005 52.1253C22.6806 50.7057 20.8652 50.2191 19.4452 51.0388C18.0253 51.8587 17.5387 53.6741 18.3587 55.0941L19.7955 57.5828H16.9218C15.2825 57.5828 13.9531 58.9122 13.9531 60.5515C13.9531 62.1908 15.2825 63.5202 16.9218 63.5202H19.7955L18.3587 66.0089C17.5387 67.4289 18.0253 69.2443 19.4452 70.0642C19.9128 70.3341 20.4231 70.4626 20.9266 70.4626C21.9526 70.4626 22.9507 69.93 23.5005 68.9777L24.9374 66.489L26.3743 68.9777C26.9244 69.93 27.9219 70.4626 28.9482 70.4626C29.4517 70.4626 29.9623 70.3341 30.4296 70.0642C31.8495 69.2443 32.3361 67.4289 31.5161 66.0089L30.0793 63.5202H32.953C34.1482 63.5202 35.1757 62.8122 35.6462 61.7945C36.3056 83.4844 54.1534 100.927 76.0003 100.927C83.0386 100.927 89.6612 99.1145 95.4286 95.935L128.057 128.564C130.231 130.737 133.089 131.823 135.955 131.823C138.846 131.823 141.746 130.717 143.955 128.507C146.076 126.387 147.251 123.565 147.266 120.561C147.281 117.547 146.125 114.723 144.012 112.61L116.297 84.8954H149.031C150.671 84.8954 152 83.566 152 81.9267V39.1769C152 37.5372 150.671 36.2078 149.031 36.2078ZM108.064 85.0584L114.416 91.4103L106.859 98.9676L100.507 92.6153C103.346 90.4405 105.888 87.8977 108.064 85.0584ZM141.329 120.532C141.322 121.961 140.764 123.302 139.757 124.309C137.674 126.393 134.308 126.418 132.256 124.365L111.057 103.166L118.614 95.609L139.814 116.808C140.797 117.792 141.335 119.115 141.329 120.532ZM146.063 78.9577H111.93C114.554 73.8565 116.12 68.1268 116.344 62.0599C116.861 62.933 117.81 63.5202 118.898 63.5202H121.771L120.335 66.0089C119.515 67.4289 120.001 69.2443 121.421 70.0642C121.889 70.3341 122.399 70.4626 122.903 70.4626C123.929 70.4626 124.927 69.93 125.476 68.9777L126.913 66.489L128.35 68.9777C128.9 69.93 129.898 70.4626 130.924 70.4626C131.428 70.4626 131.938 70.3341 132.405 70.0642C133.825 69.2443 134.312 67.4289 133.492 66.0089L132.055 63.5202H134.929C136.568 63.5202 137.898 62.1908 137.898 60.5515C137.898 58.9122 136.568 57.5828 134.929 57.5828H132.055L133.492 55.0941C134.312 53.6741 133.825 51.8587 132.405 51.0388C130.985 50.2188 129.17 50.7054 128.35 52.1253L126.913 54.614L125.476 52.1253C124.657 50.7057 122.841 50.2191 121.421 51.0388C120.001 51.8587 119.515 53.6741 120.335 55.0941L121.771 57.5828H118.898C117.811 57.5828 116.864 58.1685 116.346 59.0392C116.128 53.1003 114.624 47.367 111.94 42.1453H146.063V78.9577Z" fill="#212322"/>
<path d="M32.9536 78.9572C32.1728 78.9572 31.4069 79.2748 30.8547 79.827C30.3025 80.3792 29.9849 81.1451 29.9849 81.9259C29.9849 82.7096 30.3022 83.4726 30.8547 84.0248C31.4069 84.5767 32.1728 84.8946 32.9536 84.8946C33.7344 84.8946 34.5003 84.577 35.0522 84.0248C35.6044 83.4726 35.9223 82.7093 35.9223 81.9259C35.9223 81.1451 35.6047 80.3792 35.0522 79.827C34.5003 79.2751 33.7344 78.9572 32.9536 78.9572Z" fill="#212322"/>
<path d="M87.5893 56.2084L88.284 55.5137V69.9189H85.7576C84.1183 69.9189 82.7889 71.2483 82.7889 72.8877C82.7889 74.527 84.1183 75.8564 85.7576 75.8564H96.6467C98.286 75.8564 99.6154 74.527 99.6154 72.8877C99.6154 71.2483 98.286 69.9189 96.6467 69.9189H94.2215V48.3463C94.2215 47.1455 93.498 46.0631 92.3889 45.6035C91.2798 45.1445 90.0026 45.3981 89.1536 46.2471L83.391 52.0097C82.2317 53.169 82.2317 55.0488 83.391 56.2084C84.5505 57.3677 86.4298 57.3677 87.5893 56.2084Z" fill="#212322"/>
<path d="M51.2017 57.0411V64.2442C51.2017 70.6471 56.4112 75.8567 62.8142 75.8567C69.2172 75.8567 74.4267 70.6471 74.4267 64.2442V57.0411C74.4267 50.6381 69.2172 45.4286 62.8142 45.4286C56.4112 45.4286 51.2017 50.6381 51.2017 57.0411ZM68.4892 57.0411V64.2442C68.4892 67.3735 65.9435 69.9192 62.8142 69.9192C59.6848 69.9192 57.1391 67.3735 57.1391 64.2442V57.0411C57.1391 53.9118 59.6848 51.3661 62.8142 51.3661C65.9435 51.3661 68.4892 53.9118 68.4892 57.0411Z" fill="#212322"/>
<path d="M76.0003 26.1145L76.0932 26.1148C76.1006 26.1148 76.1083 26.1148 76.1161 26.1148C77.745 26.1148 79.0717 24.8002 79.0842 23.1683C79.0964 21.529 77.7774 20.1898 76.1377 20.1773L76 20.177C74.3607 20.177 73.0312 21.5064 73.0312 23.1457C73.0312 24.7851 74.3607 26.1145 76.0003 26.1145Z" fill="#212322"/>
</svg>
