<svg width="152" height="152" viewBox="0 0 152 152" fill="none" xmlns="http://www.w3.org/2000/svg">
<g clip-path="url(#clip0)">
<path d="M137.921 76.0627C137.921 53.9525 125.578 34.6718 107.421 24.7474C99.3083 20.3128 89.4082 26.2561 89.4082 35.501C107.656 39.9692 121.235 56.4585 121.235 76.0627C121.235 93.7267 110.209 108.863 94.6777 114.953C91.4933 116.202 89.4082 119.286 89.4082 122.707C89.4082 128.6 95.3469 132.622 100.83 130.463C122.526 121.918 137.921 100.755 137.921 76.0627Z" fill="#FDDA24"/>
<path d="M149.031 76.0625C149.031 86.6839 140.421 95.2933 129.799 95.2933C119.178 95.2933 110.568 86.6839 110.568 76.0625C110.568 65.4411 119.178 56.8306 129.799 56.8306C140.421 56.8306 149.031 65.4411 149.031 76.0625Z" fill="#768590"/>
<path d="M14.0791 76.0627C14.0791 98.1729 26.4214 117.452 44.5784 127.378C52.6914 131.813 62.5915 125.869 62.5915 116.623C44.3441 112.156 30.7644 95.6669 30.7644 76.0627C30.7644 56.4585 44.3441 39.968 62.5915 35.501V30.5457C62.5915 24.0412 55.964 19.6344 49.9662 22.1521C28.9066 30.9945 14.0791 51.828 14.0791 76.0627Z" fill="#D9017A"/>
<path d="M41.4315 76.0625C41.4315 86.6839 32.8221 95.2933 22.2007 95.2933C11.5793 95.2933 2.96875 86.6839 2.96875 76.0625C2.96875 65.4411 11.5793 56.8306 22.2007 56.8306C32.8221 56.8306 41.4315 65.4411 41.4315 76.0625Z" fill="#768590"/>
<path d="M152 76.0627C152 66.4212 145.823 58.1957 137.217 55.1365C132.103 41.0581 122.051 29.3606 108.844 22.1428C104.126 19.5625 98.5385 19.6646 93.8986 22.4165C89.2275 25.1869 86.4396 30.0772 86.4396 35.501C86.4396 37.1408 87.7686 38.4698 89.4084 38.4698C91.0482 38.4698 92.3771 37.1408 92.3771 35.501C92.3771 32.1959 94.0784 29.2133 96.9277 27.5236C99.7457 25.8526 103.135 25.7876 105.996 27.352C116.886 33.3046 125.4 42.6225 130.319 53.8678C130.146 53.8643 129.974 53.862 129.8 53.862C126.174 53.862 122.749 54.7353 119.723 56.2834C117.709 52.2037 114.985 48.4313 111.45 44.8166C110.304 43.6442 108.425 43.6233 107.252 44.7691C106.08 45.916 106.059 47.7958 107.205 48.9682C110.528 52.3672 113.018 55.8972 114.787 59.7218C110.371 63.783 107.599 69.6045 107.599 76.0627C107.599 82.4745 110.331 88.2601 114.693 92.3166C110.502 101.349 102.881 108.547 93.5936 112.19C89.2472 113.895 86.4385 118.023 86.4385 122.707C86.4385 126.45 88.2858 129.943 91.3787 132.05C93.2875 133.349 95.5117 134.016 97.7557 134.016C99.16 134.016 100.571 133.755 101.918 133.225C118.365 126.747 131.194 113.565 137.217 96.9889C145.823 93.9297 152 85.7042 152 76.0627ZM99.7422 127.7C98.0502 128.366 96.2214 128.163 94.722 127.141C93.2318 126.127 92.3771 124.51 92.3771 122.707C92.3771 120.516 93.7374 118.511 95.7622 117.717C106.132 113.651 114.697 105.74 119.614 95.7852C122.667 97.3681 126.13 98.2622 129.8 98.2622C129.974 98.2622 130.146 98.2611 130.319 98.2564C124.449 111.68 113.497 122.284 99.7422 127.7ZM129.8 92.3247C120.833 92.3247 113.538 85.0304 113.538 76.0627C113.538 67.095 120.833 59.7995 129.8 59.7995C138.767 59.7995 146.063 67.095 146.063 76.0627C146.063 85.0304 138.767 92.3247 129.8 92.3247Z" fill="#212322"/>
<path d="M58.4055 39.9355C62.752 38.2307 65.5607 34.1023 65.5607 29.4184C65.5607 25.6739 63.7133 22.1821 60.6205 20.075C57.5184 17.9621 53.579 17.5237 50.0826 18.9002C33.6327 25.3781 20.8056 38.5589 14.7823 55.1364C6.17755 58.1956 0 66.4211 0 76.0626C0 85.7041 6.17755 93.9284 14.7823 96.9876C19.8976 111.069 29.9368 122.757 43.1547 129.983C45.4312 131.227 47.9094 131.847 50.3864 131.847C53.0444 131.847 55.7 131.133 58.1017 129.709C62.7717 126.938 65.5607 122.047 65.5607 116.623C65.5607 114.983 64.2317 113.654 62.5919 113.654C60.9521 113.654 59.6232 114.983 59.6232 116.623C59.6232 119.929 57.9219 122.911 55.0726 124.602C52.2546 126.273 48.8638 126.337 46.0029 124.772C35.1031 118.815 26.597 109.503 21.68 98.2563C21.8528 98.2598 22.0256 98.2621 22.1995 98.2621C25.8687 98.2621 29.3315 97.368 32.3826 95.7862C34.47 100.025 37.2079 103.89 40.549 107.308C41.1311 107.902 41.9011 108.2 42.6723 108.2C43.4203 108.2 44.1694 107.92 44.7469 107.355C45.9194 106.209 45.9402 104.329 44.7945 103.157C41.675 99.9657 39.1608 96.3255 37.3054 92.3165C41.668 88.2611 44.4002 82.4744 44.4002 76.0626C44.4002 69.6508 41.668 63.8652 37.3065 59.8087C41.4987 50.7691 49.098 43.5861 58.4055 39.9355ZM38.4627 76.0626C38.4627 85.0303 31.1672 92.3246 22.2007 92.3246C13.233 92.3246 5.9375 85.0303 5.9375 76.0626C5.9375 67.0949 13.233 59.7994 22.2007 59.7994C31.1672 59.7994 38.4627 67.0949 38.4627 76.0626ZM32.3849 56.339C29.3326 54.756 25.8687 53.8619 22.2007 53.8619C22.0267 53.8619 21.8539 53.8642 21.6812 53.8677C27.5514 40.4457 38.5021 29.8417 52.2581 24.4249C53.9489 23.7581 55.7789 23.9622 57.2783 24.9827C58.7685 25.9974 59.6232 27.614 59.6232 29.4184C59.6232 31.609 58.2629 33.6141 56.2381 34.4073C45.8463 38.4836 37.303 46.3797 32.3849 56.339Z" fill="#212322"/>
</g>
<defs>
<clipPath id="clip0">
<rect width="152" height="152" fill="white"/>
</clipPath>
</defs>
</svg>
