<svg width="152" height="152" viewBox="0 0 152 152" fill="none" xmlns="http://www.w3.org/2000/svg">
<g clip-path="url(#clip0)">
<path d="M82.7443 115.008H4.63365C2.93639 115.008 1.56055 113.632 1.56055 111.934V63.5166H85.8174V111.934C85.8174 113.632 84.4415 115.008 82.7443 115.008V115.008Z" fill="#F9F9F9"/>
<path d="M82.7444 115.009V113.448H4.63376C3.79897 113.446 3.12221 112.77 3.12042 111.935V65.0775H84.2577V111.936C84.2559 112.77 83.5792 113.447 82.7444 113.448V116.568C85.3041 116.568 87.3773 114.495 87.3781 111.936V63.5177C87.3781 63.1061 87.2121 62.7043 86.921 62.4142C86.6309 62.124 86.2291 61.957 85.8175 61.957H1.56066C1.14996 61.957 0.747295 62.1231 0.457127 62.4142C0.166958 62.7043 0 63.107 0 63.5177V111.935C0.000892825 114.494 2.07403 116.568 4.63376 116.568H82.7444V115.009Z" fill="#212322"/>
<path d="M34.5202 95.8822C36.5728 98.1107 39.9254 99.3919 43.6895 99.4053C47.4153 99.3928 50.7375 98.1357 52.7963 95.9474C53.3829 95.3162 53.3463 94.3296 52.7151 93.743C52.083 93.1564 51.0964 93.193 50.5098 93.8243C49.2679 95.1894 46.6912 96.2974 43.6895 96.2849C40.6566 96.2983 38.0594 95.1662 36.8299 93.7841C36.2505 93.1457 35.263 93.0984 34.6256 93.6778C33.9881 94.2573 33.9408 95.2447 34.5202 95.8822Z" fill="#212322"/>
<path d="M32.7672 79.1204C32.7672 80.8436 31.37 82.2408 29.6468 82.2408C27.9236 82.2408 26.5264 80.8436 26.5264 79.1204C26.5264 77.3973 27.9236 76 29.6468 76C31.37 76 32.7672 77.3973 32.7672 79.1204Z" fill="#212322"/>
<path d="M60.8527 79.1204C60.8527 80.8436 59.4563 82.2408 57.7322 82.2408C56.0091 82.2408 54.6118 80.8436 54.6118 79.1204C54.6118 77.3973 56.0091 76 57.7322 76C59.4563 76 60.8527 77.3973 60.8527 79.1204Z" fill="#212322"/>
<path d="M71.7749 88.4827C71.7749 90.2059 70.3777 91.6031 68.6545 91.6031C66.9305 91.6031 65.5332 90.2059 65.5332 88.4827C65.5332 86.7587 66.9305 85.3623 68.6545 85.3623C70.3777 85.3623 71.7749 86.7587 71.7749 88.4827V88.4827Z" fill="#D9017A"/>
<path d="M21.8453 88.4827C21.8453 90.2059 20.448 91.6031 18.7248 91.6031C17.0008 91.6031 15.6035 90.2059 15.6035 88.4827C15.6035 86.7587 17.0008 85.3623 18.7248 85.3623C20.448 85.3623 21.8453 86.7587 21.8453 88.4827Z" fill="#D9017A"/>
<path d="M1.56055 44.793H85.8174V63.5173H1.56055V44.793Z" fill="#FDDA24"/>
<path d="M85.8175 44.7932V43.2334H1.56066C1.14996 43.2334 0.747295 43.3995 0.457127 43.6896C0.166958 43.9807 0 44.3825 0 44.7932V63.5175C0 63.9336 0.162494 64.3255 0.457127 64.6201C0.751759 64.9157 1.14371 65.0773 1.56066 65.0773H85.8175C86.2344 65.0773 86.6264 64.9157 86.921 64.621C87.2157 64.3264 87.3781 63.9345 87.3781 63.5175V44.7932C87.3781 44.3825 87.2121 43.9807 86.921 43.6896C86.6309 43.3995 86.2291 43.2334 85.8175 43.2334V44.7932H84.2577V61.9568H3.12042V46.3529L85.8175 46.3538V44.7932H84.2577H85.8175Z" fill="#212322"/>
<path d="M27.3051 54.1549C25.1507 54.1549 23.4043 52.4085 23.4043 50.2541V40.892C23.4043 38.7376 25.1507 36.9912 27.3051 36.9912C29.4603 36.9912 31.2067 38.7376 31.2067 40.892V50.2541C31.2067 52.4085 29.4603 54.1549 27.3051 54.1549Z" fill="#D9017A"/>
<path d="M27.3057 54.1551V52.5944C26.0138 52.5917 24.9683 51.5462 24.9656 50.2543V40.8922C24.9683 39.6002 26.0138 38.5539 27.3057 38.5512C28.5985 38.5539 29.644 39.6002 29.6467 40.8922V50.2543C29.644 51.5462 28.5985 52.5917 27.3057 52.5944V55.7157C30.3235 55.7148 32.7663 53.2712 32.7671 50.2543V40.8922C32.7663 37.8753 30.3235 35.4316 27.3057 35.4316C24.2889 35.4316 21.8461 37.8753 21.8452 40.8922V50.2543C21.8461 53.2712 24.2889 55.714 27.3057 55.7148V54.1551Z" fill="#212322"/>
<path d="M58.5121 54.1549C56.3577 54.1549 54.6113 52.4085 54.6113 50.2541V40.892C54.6113 38.7376 56.3577 36.9912 58.5121 36.9912C60.6665 36.9912 62.4128 38.7376 62.4128 40.892V50.2541C62.4128 52.4085 60.6665 54.1549 58.5121 54.1549Z" fill="#D9017A"/>
<path d="M58.5122 54.1551V52.5944C57.2203 52.5917 56.1739 51.5462 56.1721 50.2543V40.8922C56.1739 39.6002 57.2203 38.5539 58.5122 38.5512C59.8041 38.5539 60.8505 39.6002 60.8523 40.8922V50.2543C60.8505 51.5462 59.8041 52.5917 58.5122 52.5944V55.7157C61.5291 55.7148 63.9727 53.2712 63.9736 50.2543V40.8922C63.9727 37.8753 61.5291 35.4316 58.5122 35.4316C55.4953 35.4316 53.0517 37.8753 53.0508 40.8922V50.2543C53.0517 53.2712 55.4953 55.714 58.5122 55.7148V54.1551Z" fill="#212322"/>
<path d="M149.919 78.6176H145.457V68.1484H149.919C151.068 68.1484 152 69.08 152 70.2294V76.5359C152 77.6854 151.068 78.6176 149.919 78.6176Z" fill="#212322"/>
<path d="M130.739 115.259H110.446C108.822 115.259 107.506 113.942 107.506 112.317V39.6808C107.506 38.0567 108.822 36.7402 110.446 36.7402H130.739C132.363 36.7402 133.678 38.0567 133.678 39.6808V112.317C133.678 113.942 132.363 115.259 130.739 115.259Z" fill="#768590"/>
<path fill-rule="evenodd" clip-rule="evenodd" d="M110.447 113.951H127.553C128.276 113.951 128.861 114.537 128.861 115.259V115.259C128.861 115.982 128.276 116.567 127.553 116.567H110.447C108.099 116.567 106.199 114.665 106.198 112.318V39.6812C106.199 37.3344 108.099 35.4324 110.447 35.4316H130.739C133.086 35.4324 134.987 37.3344 134.987 39.6812V112.318C134.987 114.216 133.744 115.823 132.027 116.369C131.338 116.587 130.739 115.982 130.739 115.259V115.259V115.259C130.739 114.536 131.408 113.972 131.911 113.452C132.195 113.159 132.37 112.759 132.37 112.318V39.6812C132.369 38.7796 131.639 38.0503 130.739 38.0488H110.447C109.546 38.0503 108.816 38.7796 108.815 39.6812V112.318C108.816 113.219 109.546 113.949 110.447 113.951Z" fill="#212322"/>
<path d="M148.074 73.3829C148.074 88.5607 135.77 100.864 120.592 100.864C105.415 100.864 93.1108 88.5607 93.1108 73.3829C93.1108 58.2052 105.415 45.9014 120.592 45.9014C135.77 45.9014 148.074 58.2052 148.074 73.3829Z" fill="#F2F0E8"/>
<path d="M148.074 73.3823H149.383C149.382 57.4812 136.493 44.5925 120.592 44.5918C104.692 44.5925 91.8025 57.4812 91.8018 73.3823C91.8025 89.2834 104.692 102.172 120.592 102.173C136.493 102.172 149.382 89.2834 149.383 73.3823H148.074H146.766C146.765 80.6144 143.838 87.1485 139.099 91.8893C134.359 96.6278 127.824 99.5542 120.592 99.5557C113.361 99.5542 106.826 96.6278 102.085 91.8893C97.3467 87.1485 94.4204 80.6144 94.4196 73.3823C94.4204 66.151 97.3467 59.616 102.085 54.8753C106.826 50.1368 113.361 47.2104 120.592 47.2089C127.824 47.2104 134.359 50.1368 139.099 54.8753C143.838 59.616 146.765 66.151 146.766 73.3823H148.074Z" fill="#212322"/>
<path d="M142.84 73.3823C142.84 85.6689 132.879 95.6297 120.592 95.6297C108.306 95.6297 98.3457 85.6689 98.3457 73.3823C98.3457 61.0957 108.306 51.1357 120.592 51.1357C132.879 51.1357 142.84 61.0957 142.84 73.3823Z" fill="#FAB6DC"/>
<path fill-rule="evenodd" clip-rule="evenodd" d="M120.592 96.9382C132.683 96.9375 142.644 87.8302 143.992 76.1009C144.078 75.3518 143.476 74.7166 142.722 74.7166V74.7166C142.029 74.7166 141.459 75.2566 141.375 75.9447C140.795 80.7038 138.621 84.9636 135.398 88.1883C131.604 91.9795 126.378 94.3203 120.592 94.3211C114.806 94.3203 109.58 91.9795 105.787 88.1883C101.995 84.3947 99.6545 79.1688 99.6537 73.3827C99.6545 67.5966 101.995 62.3706 105.787 58.5771C109.58 54.7858 114.806 52.445 120.592 52.4443C126.378 52.445 131.604 54.7858 135.398 58.5771C138.736 61.917 140.949 66.3674 141.431 71.3328C141.5 72.0348 142.074 72.5937 142.779 72.5937V72.5937C143.521 72.5937 144.118 71.9786 144.052 71.2404C142.969 59.2346 132.88 49.8279 120.592 49.8271C107.582 49.8279 97.0374 60.3727 97.0366 73.3827C97.0374 86.3926 107.582 96.9374 120.592 96.9382Z" fill="#212322"/>
<path d="M133.678 68.1479C133.678 65.6176 131.629 63.5681 129.099 63.5674C126.568 63.5681 124.519 65.6176 124.518 68.1479C124.518 68.8705 125.104 69.4561 125.827 69.4561C126.55 69.4561 127.135 68.8705 127.135 68.1479C127.137 67.0636 128.014 66.1867 129.099 66.1845C130.182 66.1867 131.06 67.0636 131.061 68.1479C131.061 68.8705 131.648 69.4561 132.37 69.4561C133.093 69.4561 133.678 68.8705 133.678 68.1479Z" fill="#212322"/>
<path d="M115.358 68.1479C115.357 65.6176 113.308 63.5681 110.777 63.5674C108.247 63.5681 106.198 65.6176 106.197 68.1479C106.197 68.8705 106.783 69.4561 107.506 69.4561C108.228 69.4561 108.815 68.8705 108.815 68.1479C108.816 67.0636 109.694 66.1867 110.777 66.1845C111.861 66.1867 112.738 67.0636 112.74 68.1479C112.74 68.8705 113.326 69.4561 114.049 69.4561C114.771 69.4561 115.358 68.8705 115.358 68.1479Z" fill="#212322"/>
<path d="M136.296 73.3827C136.296 71.9375 134.831 70.7656 133.025 70.7656C131.218 70.7656 129.753 71.9375 129.753 73.3827C129.753 74.8287 131.218 75.9999 133.025 75.9999C134.831 75.9999 136.296 74.8287 136.296 73.3827Z" fill="#D9017A"/>
<path d="M110.123 73.3827C110.123 71.9375 108.658 70.7656 106.851 70.7656C105.044 70.7656 103.58 71.9375 103.58 73.3827C103.58 74.8287 105.044 75.9999 106.851 75.9999C108.658 75.9999 110.123 74.8287 110.123 73.3827Z" fill="#D9017A"/>
<path d="M117.426 78.6009C117.428 76.7633 118.658 75.214 120.348 74.7392C121.044 74.5445 121.767 74.9497 121.963 75.6453C122.158 76.341 121.752 77.0636 121.057 77.2598C120.474 77.4237 120.041 77.9621 120.043 78.6009C120.04 79.2621 120.508 79.817 121.122 79.9585C121.826 80.1202 122.266 80.8226 122.104 81.5273C121.972 82.1017 121.481 82.5006 120.921 82.54C120.408 82.7444 120.041 83.247 120.043 83.8359C120.04 84.4963 120.508 85.0519 121.122 85.1935C121.826 85.3552 122.266 86.0568 122.104 86.7615C121.943 87.4654 121.241 87.9057 120.536 87.7447C118.75 87.3343 117.428 85.7401 117.426 83.8359C117.427 82.8356 117.792 81.9206 118.397 81.2179C117.792 80.5156 117.427 79.6011 117.426 78.6009Z" fill="#212322"/>
<path d="M123.209 38.0488C123.209 39.4947 122.038 40.6666 120.592 40.6666C119.147 40.6666 117.975 39.4947 117.975 38.0488C117.975 36.6035 119.147 35.4316 120.592 35.4316C122.038 35.4316 123.209 36.6035 123.209 38.0488Z" fill="#212322"/>
<path d="M123.209 113.951C123.209 115.396 122.038 116.568 120.592 116.568C119.147 116.568 117.975 115.396 117.975 113.951C117.975 112.505 119.147 111.333 120.592 111.333C122.038 111.333 123.209 112.505 123.209 113.951Z" fill="#212322"/>
</g>
<defs>
<clipPath id="clip0">
<rect width="152" height="152" fill="white"/>
</clipPath>
</defs>
</svg>
