<svg width="26" height="47" viewBox="0 0 26 47" fill="none" xmlns="http://www.w3.org/2000/svg">
<path d="M25.0433 12.4342C25.0433 5.57789 19.4654 0 12.609 0C5.75269 0 0.174805 5.57789 0.174805 12.4342C0.174805 18.4746 4.50435 23.5218 10.223 24.6378L7.66127 28.3637H11.1993L10.9097 29.747C10.4862 31.777 11.1732 33.9062 12.7086 35.3089L12.7824 35.3751C13.8629 36.3621 14.3199 37.8595 13.9746 39.2825C13.8643 39.7366 13.8082 40.2045 13.8082 40.673C13.8082 42.3247 14.5074 43.9106 15.7266 45.024L17.8908 47L19.1596 45.6104L16.9956 43.6343C16.1659 42.8766 15.6902 41.7973 15.6902 40.673C15.6902 40.3542 15.7282 40.0359 15.8035 39.7265C16.3105 37.6355 15.6394 35.4357 14.0461 33.9806L13.9725 33.9145C12.9313 32.9632 12.4636 31.5136 12.752 30.132L13.1223 28.3638H17.6066L14.7847 24.6778C20.6071 23.646 25.0433 18.5485 25.0433 12.4342ZM11.239 26.4818L12.475 24.8678L13.7953 26.4818H11.239ZM12.609 22.9865C6.79046 22.9865 2.05673 18.2528 2.05673 12.4342C2.05673 6.61566 6.79046 1.88193 12.609 1.88193C18.4276 1.88193 23.1613 6.61566 23.1613 12.4342C23.1613 18.2528 18.4276 22.9865 12.609 22.9865Z" fill="#212322"/>
<path d="M12.5416 3.2262C12.0219 3.2262 11.6006 3.64751 11.6006 4.1672C11.6006 4.68689 12.0219 5.1082 12.5416 5.1082C16.6182 5.1082 19.9349 8.42486 19.9349 12.5015C19.9349 13.0212 20.3562 13.4425 20.8759 13.4425C21.3956 13.4425 21.8169 13.0212 21.8169 12.5015C21.8168 7.38701 17.656 3.2262 12.5416 3.2262Z" fill="#212322"/>
</svg>
