<svg width="100" height="100" viewBox="0 0 100 100" fill="none" xmlns="http://www.w3.org/2000/svg">
<path d="M49.9436 37.6826C49.1153 37.6826 48.4429 38.3544 48.4429 39.1833C48.4429 40.0117 49.1153 40.684 49.9436 40.684C50.7719 40.684 51.4443 40.0117 51.4443 39.1833C51.4443 38.3544 50.7719 37.6826 49.9436 37.6826Z" fill="white"/>
<path d="M83.86 46.6869H78.0207C74.9424 37.8971 70.476 22.4847 62.385 18.1226C58.3383 15.9436 54.5132 17.4655 53.0746 20.5572C52.4626 21.8715 51.2403 22.5627 49.9436 22.5627C48.6293 22.5627 47.417 21.8563 46.8126 20.5584C45.425 17.5722 41.6913 15.9108 37.7865 17.8061C29.5659 21.7983 24.9687 37.8308 21.8665 46.6869H16.0271C13.5397 46.6869 11.5249 48.7012 11.5249 51.1891C11.5249 53.6712 13.5444 55.6913 16.0271 55.6913H83.86C86.3474 55.6913 88.3622 53.6764 88.3622 51.1891C88.3622 48.7064 86.3427 46.6869 83.86 46.6869ZM27.1383 40.684H43.9407C44.7696 40.684 45.4414 40.0116 45.4414 39.1833C45.4414 38.3543 44.7696 37.6825 43.9407 37.6825H28.1877C32.7116 25.186 36.9376 21.555 39.0973 20.5062C41.4533 19.3631 43.3925 20.3198 44.0913 21.824C45.1922 24.1889 47.4697 25.5641 49.9436 25.5641C52.4233 25.5641 54.6978 24.1836 55.7958 21.824C56.5151 20.277 58.4643 19.4205 60.961 20.7647C63.1306 21.9348 67.3438 25.6867 71.6989 37.6825H55.9465C55.1176 37.6825 54.4458 38.3543 54.4458 39.1833C54.4458 40.0122 55.1176 40.684 55.9465 40.684H72.7494C73.5079 42.8718 74.2958 45.1293 74.841 46.6869H25.0467C25.5901 45.1334 26.3763 42.8812 27.1383 40.684ZM83.86 52.6898H16.0271C15.1993 52.6898 14.5264 52.0163 14.5264 51.1891C14.5264 50.3602 15.1982 49.6884 16.0271 49.6884H83.86C84.6878 49.6884 85.3608 50.3614 85.3608 51.1891C85.3608 52.0174 84.6884 52.6898 83.86 52.6898Z" fill="white"/>
<path d="M46.9421 61.6942H22.9304C22.1015 61.6942 21.4297 62.366 21.4297 63.1949V69.1979C21.4297 76.6452 27.4889 82.7044 34.9363 82.7044C40.5792 82.7044 45.5738 79.2334 47.5606 74.0043C49.0695 73.3161 50.8176 73.3161 52.3265 74.0043C54.3132 79.2334 59.3079 82.7038 64.9508 82.7038C72.3982 82.7038 78.4574 76.6452 78.4574 69.1973V63.1943C78.4574 62.3654 77.7856 61.6936 76.9567 61.6936H52.945C52.1161 61.6936 51.4443 62.3654 51.4443 63.1943V64.6951H48.4428V63.1943C48.4428 62.366 47.771 61.6942 46.9421 61.6942ZM34.9363 79.703C29.1438 79.703 24.4311 74.9903 24.4311 69.1979V64.6957H45.4414V69.1979C45.4414 75.0056 40.7539 79.703 34.9363 79.703ZM54.4457 64.6957H75.4559V69.1979C75.4559 74.9903 70.7433 79.703 64.9508 79.703C59.1185 79.703 54.4457 74.9915 54.4457 69.1979V64.6957ZM51.4443 67.6971V69.1979C51.4443 69.6774 51.4718 70.1552 51.5217 70.6294C50.4788 70.4389 49.4083 70.4389 48.3654 70.6294C48.4153 70.1552 48.4428 69.6774 48.4428 69.1979V67.6971H51.4443Z" fill="white"/>
<path d="M34.9363 73.7002C32.4536 73.7002 30.4341 71.68 30.4341 69.198C30.4341 68.369 29.7623 67.6972 28.9333 67.6972C28.1044 67.6972 27.4326 68.369 27.4326 69.198C27.4326 73.3349 30.7987 76.7016 34.9363 76.7016C35.7652 76.7016 36.437 76.0292 36.437 75.2009C36.437 74.372 35.7652 73.7002 34.9363 73.7002Z" fill="white"/>
<path d="M64.9509 76.7016C69.0885 76.7016 72.4546 73.3349 72.4546 69.198C72.4546 68.369 71.7828 67.6972 70.9538 67.6972C70.1249 67.6972 69.4531 68.369 69.4531 69.198C69.4531 71.68 67.4336 73.7002 64.9509 73.7002C64.122 73.7002 63.4502 74.372 63.4502 75.2009C63.4502 76.0292 64.122 76.7016 64.9509 76.7016Z" fill="white"/>
</svg>
