<svg width="64" height="64" viewBox="0 0 64 64" fill="none" xmlns="http://www.w3.org/2000/svg">
<g clip-path="url(#clip0)">
<path d="M13.1279 4.6875V59.3125C13.1279 61.3836 14.8068 63.0625 16.8779 63.0625H47.1227C49.1938 63.0625 50.8727 61.3836 50.8727 59.3125V4.6875C50.8727 2.61637 49.1938 0.9375 47.1227 0.9375H16.8779C14.8069 0.9375 13.1279 2.61637 13.1279 4.6875Z" fill="#F9F9F9"/>
<path d="M47.1226 0.9375H43.4976C45.5686 0.9375 47.2476 2.61637 47.2476 4.6875V59.3125C47.2476 61.3836 45.5686 63.0625 43.4976 63.0625H47.1226C49.1936 63.0625 50.8726 61.3836 50.8726 59.3125V4.6875C50.8726 2.61637 49.1936 0.9375 47.1226 0.9375Z" fill="#F2F0E8"/>
<path d="M13.1279 53.4785V59.3125C13.1279 61.3836 14.8069 63.0625 16.8779 63.0625H47.1227C49.1937 63.0625 50.8727 61.3836 50.8727 59.3125V53.4785H13.1279Z" fill="#F2F0E8"/>
<path d="M47.2476 59.3125C47.2476 61.3836 45.5686 63.0625 43.4976 63.0625H47.1226C49.1936 63.0625 50.8726 61.3836 50.8726 59.3125V53.4785H47.2476V59.3125Z" fill="#768590"/>
<path d="M28.6875 57.8973V58.6439C28.6875 59.3698 29.2759 59.9581 30.0018 59.9581H33.9984C34.7242 59.9581 35.3126 59.3698 35.3126 58.6439V57.8973C35.3126 57.1714 34.7242 56.583 33.9984 56.583H30.0018C29.2759 56.583 28.6875 57.1714 28.6875 57.8973Z" fill="white"/>
<path d="M24.2661 0.9375L25.022 3.1255C25.4784 4.44637 26.722 5.3325 28.1195 5.3325H35.881C37.2785 5.3325 38.5222 4.44637 38.9785 3.1255L39.7344 0.9375H24.2661Z" fill="#4A5E6E"/>
<path d="M20.0004 34.1851H29.0179C29.5701 34.1851 30.0179 33.7373 30.0179 33.1851V19.8037C30.0179 19.2515 29.5701 18.8037 29.0179 18.8037H20.0787C14.4035 18.8037 9.80273 23.4045 9.80273 29.0797C9.80273 34.755 14.4035 39.3557 20.0787 39.3557H20.6515C21.1629 39.3557 21.4677 38.7854 21.1836 38.3603L19.2865 35.5206C18.9054 34.9501 19.3142 34.1851 20.0004 34.1851Z" fill="#D9017A"/>
<path d="M44.0004 40.0259H34.9829C34.4307 40.0259 33.9829 39.5782 33.9829 39.0259V25.6445C33.9829 25.0923 34.4307 24.6445 34.9829 24.6445H43.922C49.5973 24.6445 54.198 29.2453 54.198 34.9205C54.198 40.5958 49.5973 45.1965 43.922 45.1965H43.3493C42.8379 45.1965 42.533 44.6263 42.8172 44.2012L44.7143 41.3614C45.0954 40.7909 44.6865 40.0259 44.0004 40.0259Z" fill="#FDDA24"/>
<path d="M17.3779 1.875H23.5982L24.1359 3.43162C24.7224 5.12937 26.3233 6.27012 28.1196 6.27012H35.8811C37.6773 6.27012 39.2782 5.1295 39.8647 3.43162L40.4024 1.875H47.1227C48.6734 1.875 49.9352 3.13663 49.9352 4.6875V22.7694C49.9352 23.2871 50.3548 23.7069 50.8727 23.7069C51.3906 23.7069 51.8102 23.2871 51.8102 22.7694V4.6875C51.8102 2.10275 49.7074 0 47.1227 0H17.3779C16.8601 0 16.4404 0.41975 16.4404 0.9375C16.4404 1.45525 16.8602 1.875 17.3779 1.875ZM38.4188 1.875L38.0926 2.81938C37.7671 3.76188 36.8783 4.395 35.8812 4.395H28.1197C27.1224 4.395 26.2338 3.76188 25.9083 2.81938L25.5818 1.875H38.4188Z" fill="#212322"/>
<path d="M33.9984 55.6455H30.0018C28.7601 55.6455 27.75 56.6556 27.75 57.8973V58.6439C27.75 59.8855 28.7601 60.8956 30.0018 60.8956H33.9984C35.24 60.8956 36.2501 59.8855 36.2501 58.6439V57.8973C36.2501 56.6556 35.24 55.6455 33.9984 55.6455ZM34.3751 58.6438C34.3751 58.8515 34.2061 59.0205 33.9984 59.0205H30.0018C29.794 59.0205 29.625 58.8515 29.625 58.6438V57.8971C29.625 57.6894 29.794 57.5204 30.0018 57.5204H33.9984C34.2061 57.5204 34.3751 57.6894 34.3751 57.8971V58.6438Z" fill="#212322"/>
<path d="M22.0425 39.4593C22.3174 38.9451 22.287 38.3243 21.963 37.8393L20.1479 35.1223H29.0177C30.0861 35.1223 30.9552 34.2532 30.9552 33.1848V19.8035C30.9552 18.7351 30.0861 17.866 29.0177 17.866H20.0786C17.8676 17.866 15.804 18.5092 14.0651 19.6185V4.68747C14.0651 4.05523 14.27 3.4576 14.6576 2.95935C14.9755 2.55073 14.9019 1.96173 14.4934 1.64385C14.0846 1.3261 13.4957 1.39935 13.1777 1.8081C12.5317 2.6386 12.1902 3.63423 12.1902 4.68747V21.1175C10.1381 23.1508 8.86523 25.9693 8.86523 29.0796C8.86523 35.2627 13.8956 40.2931 20.0787 40.2931C20.3052 40.2502 21.4692 40.5317 22.0425 39.4593ZM10.7401 29.0796C10.7401 23.9303 14.9294 19.7411 20.0786 19.7411H29.0177C29.0521 19.7411 29.0802 19.7691 29.0802 19.8036V33.185C29.0802 33.2195 29.0521 33.2475 29.0177 33.2475H20.0001C19.336 33.2475 18.7291 33.6112 18.4161 34.1968C18.1031 34.7825 18.1377 35.4892 18.5067 36.0413L20.0947 38.4182H20.0786C14.9294 38.4181 10.7401 34.2288 10.7401 29.0796Z" fill="#212322"/>
<path d="M15.314 26.1113H15.1235C14.6057 26.1113 14.186 26.5311 14.186 27.0488C14.186 27.5666 14.6057 27.9863 15.1235 27.9863H15.314C15.8319 27.9863 16.2515 27.5666 16.2515 27.0488C16.2515 26.5311 15.8318 26.1113 15.314 26.1113Z" fill="#212322"/>
<path d="M19.8149 27.9863H20.0054C20.5233 27.9863 20.9429 27.5666 20.9429 27.0488C20.9429 26.5311 20.5233 26.1113 20.0054 26.1113H19.8149C19.2971 26.1113 18.8774 26.5311 18.8774 27.0488C18.8774 27.5666 19.2971 27.9863 19.8149 27.9863Z" fill="#212322"/>
<path d="M24.5063 27.9863H24.6968C25.2147 27.9863 25.6344 27.5666 25.6344 27.0488C25.6344 26.5311 25.2147 26.1113 24.6968 26.1113H24.5063C23.9885 26.1113 23.5688 26.5311 23.5688 27.0488C23.5688 27.5666 23.9885 27.9863 24.5063 27.9863Z" fill="#212322"/>
<path d="M55.1349 34.9205C55.1349 28.7374 50.1046 23.707 43.9214 23.707H34.9823C33.9139 23.707 33.0448 24.5762 33.0448 25.6445V39.0259C33.0448 40.0943 33.9139 40.9634 34.9823 40.9634H43.8522L42.0371 43.6804C41.7131 44.1653 41.6827 44.786 41.9576 45.3003C42.5283 46.368 43.7142 46.0948 43.9214 46.134C46.1324 46.134 48.1961 45.4908 49.9349 44.3815V52.541H14.0649V40.8952C14.0649 40.3774 13.6453 39.9577 13.1274 39.9577C12.6096 39.9577 12.1899 40.3774 12.1899 40.8952V59.3127C12.1899 61.8974 14.2927 64.0002 16.8774 64.0002H47.1224C49.7072 64.0002 51.8099 61.8974 51.8099 59.3127V42.8827C53.8621 40.8493 55.1349 38.0308 55.1349 34.9205ZM16.8776 62.1252C15.3268 62.1252 14.0651 60.8635 14.0651 59.3127V54.4162H49.9347V59.3127C49.9347 60.8635 48.6729 62.1252 47.1222 62.1252H16.8776ZM43.9053 44.2592L45.4933 41.8823C45.8622 41.3302 45.8969 40.6235 45.5839 40.0379C45.2709 39.4523 44.6641 39.0884 43.9999 39.0884H34.9823C34.9479 39.0884 34.9198 39.0604 34.9198 39.0259V25.6445C34.9198 25.61 34.9479 25.582 34.9823 25.582H43.9214C49.0707 25.582 53.2599 29.7713 53.2599 34.9205C53.2599 40.0698 49.0707 44.259 43.9214 44.259H43.9053V44.2592Z" fill="#212322"/>
<path d="M48.877 31.9521H48.6865C48.1686 31.9521 47.749 32.3719 47.749 32.8896C47.749 33.4074 48.1686 33.8271 48.6865 33.8271H48.877C49.3949 33.8271 49.8145 33.4074 49.8145 32.8896C49.8145 32.3719 49.3948 31.9521 48.877 31.9521Z" fill="#212322"/>
<path d="M44.1856 31.9521H43.9951C43.4772 31.9521 43.0576 32.3719 43.0576 32.8896C43.0576 33.4074 43.4772 33.8271 43.9951 33.8271H44.1856C44.7035 33.8271 45.1231 33.4074 45.1231 32.8896C45.1231 32.3719 44.7035 31.9521 44.1856 31.9521Z" fill="#212322"/>
<path d="M39.4937 31.9521H39.3032C38.7853 31.9521 38.3657 32.3719 38.3657 32.8896C38.3657 33.4074 38.7853 33.8271 39.3032 33.8271H39.4937C40.0116 33.8271 40.4312 33.4074 40.4312 32.8896C40.4312 32.3719 40.0116 31.9521 39.4937 31.9521Z" fill="#212322"/>
</g>
<defs>
<clipPath id="clip0">
<rect width="64" height="64" fill="white"/>
</clipPath>
</defs>
</svg>
