<svg width="30" height="30" viewBox="0 0 30 30" fill="none" xmlns="http://www.w3.org/2000/svg">
<path d="M28.2033 6.81129H21.907C22.4183 6.10382 22.7211 5.23613 22.7211 4.2984C22.7211 1.92833 20.7928 0 18.4227 0C17.0373 0 15.8036 0.659409 15.0169 1.68022C14.2305 0.659409 12.9968 0 11.6114 0C9.24133 0 7.313 1.92833 7.313 4.2984C7.313 5.23613 7.61559 6.10382 8.12714 6.81129H1.83037C1.33736 6.81129 0.9375 7.21092 0.9375 7.70393V15.2149C0.9375 15.7082 1.33736 16.1078 1.83037 16.1078H3.22769V29.1071C3.22769 29.6001 3.62755 30 4.12056 30H25.9133C26.4063 30 26.8062 29.6001 26.8062 29.1071V16.1078H28.2035C28.6965 16.1078 29.0961 15.7079 29.0961 15.2149V7.70393C29.0961 7.21092 28.6965 6.81129 28.2033 6.81129ZM13.0215 28.2143V8.5968H17.0126V28.2143H13.0215ZM9.09874 4.2984C9.09874 2.91298 10.226 1.78574 11.6114 1.78574C12.9971 1.78574 14.1241 2.91298 14.1241 4.2984V6.81129H11.6114C10.226 6.81129 9.09874 5.68382 9.09874 4.2984ZM15.9098 4.2984C15.9098 2.91298 17.037 1.78574 18.4227 1.78574C19.8081 1.78574 20.9354 2.91298 20.9354 4.2984C20.9354 5.68382 19.8081 6.81129 18.4227 6.81129H15.9098V4.2984ZM2.72324 8.5968H11.2358V14.312L2.72324 14.3221V8.5968ZM5.01343 16.1078H11.2358V28.2143H5.01343V16.1078ZM25.0204 28.2143H18.7983V16.1078H25.0202V28.2143H25.0204ZM27.3104 14.3221L18.7983 14.3118V8.5968H27.3104V14.3221Z" fill="#212322"/>
</svg>
