<svg width="69" height="69" viewBox="0 0 69 69" fill="none" xmlns="http://www.w3.org/2000/svg">
<path d="M48.2033 26.8113H41.907C42.4183 26.1038 42.7211 25.2361 42.7211 24.2984C42.7211 21.9283 40.7928 20 38.4227 20C37.0373 20 35.8036 20.6594 35.0169 21.6802C34.2305 20.6594 32.9968 20 31.6114 20C29.2413 20 27.313 21.9283 27.313 24.2984C27.313 25.2361 27.6156 26.1038 28.1271 26.8113H21.8304C21.3374 26.8113 20.9375 27.2109 20.9375 27.7039V35.2149C20.9375 35.7082 21.3374 36.1078 21.8304 36.1078H23.2277V49.1071C23.2277 49.6001 23.6275 50 24.1206 50H45.9133C46.4063 50 46.8062 49.6001 46.8062 49.1071V36.1078H48.2035C48.6965 36.1078 49.0961 35.7079 49.0961 35.2149V27.7039C49.0961 27.2109 48.6965 26.8113 48.2033 26.8113ZM33.0215 48.2143V28.5968H37.0126V48.2143H33.0215ZM29.0987 24.2984C29.0987 22.913 30.226 21.7857 31.6114 21.7857C32.9971 21.7857 34.1241 22.913 34.1241 24.2984V26.8113H31.6114C30.226 26.8113 29.0987 25.6838 29.0987 24.2984ZM35.9098 24.2984C35.9098 22.913 37.037 21.7857 38.4227 21.7857C39.8081 21.7857 40.9354 22.913 40.9354 24.2984C40.9354 25.6838 39.8081 26.8113 38.4227 26.8113H35.9098V24.2984ZM22.7232 28.5968H31.2358V34.312L22.7232 34.3221V28.5968ZM25.0134 36.1078H31.2358V48.2143H25.0134V36.1078ZM45.0204 48.2143H38.7983V36.1078H45.0202V48.2143H45.0204ZM47.3104 34.3221L38.7983 34.3118V28.5968H47.3104V34.3221Z" fill="#212322"/>
</svg>
