<svg width="100" height="100" viewBox="0 0 100 100" fill="none" xmlns="http://www.w3.org/2000/svg">
<path d="M29.1204 38.8535C27.5912 37.6589 25.3751 37.931 24.1804 39.46C23.7705 39.9846 23.8636 40.742 24.388 41.152C24.6083 41.3241 24.8698 41.4075 25.1292 41.4075C25.4874 41.4075 25.8421 41.2484 26.0798 40.9442C26.4564 40.4624 27.1545 40.3769 27.636 40.7531C28.1606 41.1629 28.918 41.0699 29.3278 40.5453C29.738 40.0207 29.6449 39.2633 29.1204 38.8535Z" fill="white"/>
<path d="M41.7016 39.0262C42.1114 38.5017 42.0184 37.7442 41.4939 37.3342C39.9646 36.1395 37.7485 36.4116 36.5539 37.9408C36.1441 38.4653 36.237 39.2228 36.7616 39.6328C36.9819 39.8049 37.2434 39.8883 37.5028 39.8883C37.861 39.8883 38.2157 39.7292 38.4534 39.425C38.8298 38.9431 39.5278 38.8573 40.0096 39.2339C40.5342 39.6437 41.2916 39.5506 41.7016 39.0262Z" fill="white"/>
<path d="M29.5519 47.8951C29.9091 50.8042 32.5657 52.8793 35.4745 52.5224C38.3831 52.1653 40.4588 49.5084 40.1016 46.5998L39.9642 45.4796C39.9047 44.995 39.6601 44.5627 39.2753 44.262C38.8906 43.9615 38.412 43.8292 37.9276 43.8882L31.0055 44.738C30.521 44.7975 30.0886 45.0421 29.7881 45.4269C29.4874 45.8116 29.3548 46.2902 29.4143 46.7746L29.5519 47.8951ZM37.6425 46.3521L37.709 46.8935C37.9041 48.4828 36.77 49.9344 35.1807 50.1295C33.5932 50.3259 32.1398 49.1905 31.9447 47.6012L31.8782 47.0597L37.6425 46.3521Z" fill="white"/>
<path d="M49.8642 21.8595C50.1929 19.3088 49.819 16.7152 48.8114 14.5563C47.6284 12.0214 45.6153 10.1296 42.9897 9.0855C42.4127 8.85616 41.7559 9.10237 41.4722 9.65458C40.1754 12.1784 37.0426 13.9747 33.0923 14.4598L26.1222 15.3155C25.4615 15.3965 24.9916 15.9981 25.0727 16.6588C25.1537 17.3196 25.7559 17.7893 26.416 17.7083L33.3861 16.8525C37.6275 16.3316 41.1341 14.4544 43.0172 11.7506C46.9458 13.8482 47.8992 18.2454 47.4733 21.5512C47.0305 24.9876 45.2238 27.5714 43.0798 27.8346L19.6271 30.7145C17.6805 30.9534 16.2913 32.7317 16.5303 34.6783L16.8185 37.0254L14.9918 37.2497L13.1608 22.3371C13.0637 21.5474 13.2802 20.7671 13.7699 20.1402C14.2598 19.5132 14.9645 19.1145 15.7542 19.0176L21.6044 18.2994C22.265 18.2182 22.735 17.6168 22.6538 16.9561C22.5727 16.2954 21.9709 15.8261 21.3106 15.9067L15.4604 16.625C12.5109 16.987 10.4058 19.6812 10.7681 22.6307L12.6607 38.0451C11.4384 38.9166 10.7522 40.4071 10.9418 41.9453C11.1986 44.0309 12.9745 45.6036 15.0726 45.6036C15.2359 45.6036 15.4063 45.5933 15.5847 45.5721L17.8339 45.295L18.0547 47.0908C18.5167 50.8544 20.4168 54.2128 23.4047 56.5474C25.9256 58.5172 28.9662 59.5591 32.1152 59.5591C32.6984 59.5591 33.2856 59.5233 33.8735 59.4511C35.6896 59.2278 37.4145 58.6704 38.9998 57.7947C40.5351 56.9477 41.8859 55.8356 43.0149 54.4893C43.4427 53.9792 43.376 53.219 42.8659 52.7912C42.3558 52.3634 41.5957 52.4302 41.1678 52.9402C40.2306 54.0578 39.1093 54.9811 37.8348 55.6842C36.5198 56.4104 35.0882 56.8728 33.5796 57.0584C30.4558 57.4421 27.3693 56.5859 24.889 54.6479C22.4086 52.7097 20.8312 49.9216 20.4475 46.7969L20.0795 43.8044C20.0405 43.4872 19.877 43.1984 19.625 43.0015C19.373 42.8046 19.0535 42.7159 18.7359 42.7551L15.2959 43.1789C15.2168 43.1884 15.1417 43.1931 15.0726 43.1931C14.1898 43.1931 13.4427 42.5301 13.3344 41.6507C13.2376 40.8661 13.6802 40.1103 14.4105 39.8126C14.4118 39.8121 14.4129 39.8113 14.4142 39.8108C14.5558 39.7527 14.7067 39.7133 14.8624 39.6942L18.3084 39.271C18.9691 39.19 19.4391 38.5885 19.3579 37.9278L18.9229 34.3842C18.8459 33.7569 19.2936 33.1838 19.9207 33.1068L42.1765 30.3742L43.8408 43.9253C44.0588 45.6944 43.8823 47.4422 43.3164 49.1205C43.1038 49.7513 43.4426 50.4351 44.0734 50.6477C44.2011 50.6908 44.331 50.7112 44.4586 50.7112C44.9616 50.7112 45.4309 50.3938 45.6006 49.8908C46.283 47.8674 46.4958 45.7611 46.2334 43.631L44.5526 29.9469C47.2735 28.9778 49.3441 25.8952 49.8642 21.8595Z" fill="white"/>
<path d="M73.2992 72.4792C73.7809 72.1026 74.479 72.1886 74.8554 72.6702C75.0931 72.9745 75.4478 73.1336 75.806 73.1336C76.0656 73.1336 76.3269 73.05 76.5472 72.8779C77.0718 72.4681 77.1647 71.7106 76.7549 71.1861C75.5603 69.6569 73.3441 69.3848 71.8149 70.5795C71.2903 70.9893 71.1973 71.7469 71.6072 72.2715C72.017 72.7961 72.7745 72.8891 73.2992 72.4792Z" fill="white"/>
<path d="M59.4414 69.0604C58.9168 69.4702 58.8237 70.2276 59.2336 70.7522C59.6432 71.2766 60.4007 71.37 60.9254 70.96C61.4071 70.5838 62.1052 70.6693 62.4818 71.1511C62.7195 71.4553 63.074 71.6144 63.4324 71.6144C63.6919 71.6144 63.9533 71.5309 64.1736 71.3589C64.6982 70.9491 64.7911 70.1915 64.3812 69.6669C63.1866 68.1379 60.9706 67.8655 59.4414 69.0604Z" fill="white"/>
<path d="M69.9305 76.4642L63.0081 75.6142C62.5239 75.5552 62.045 75.6876 61.6605 75.988C60.7949 76.6641 60.9971 77.5741 60.8343 78.3258C60.2546 83.0462 65.6903 86.0446 69.381 83.1613C71.5992 81.4283 71.3765 79.0384 71.5216 78.5008C71.6444 77.5008 70.9308 76.5872 69.9305 76.4642ZM67.8969 81.2617C67.2857 81.7391 66.5252 81.95 65.7552 81.8557C64.1624 81.6602 63.0314 80.2128 63.2269 78.6197L63.2934 78.0781L69.0577 78.7859C68.9875 79.0414 69.0939 80.3265 67.8969 81.2617Z" fill="white"/>
<path d="M89.065 50.3818C88.1787 49.2475 86.9037 48.5261 85.4748 48.3507L68.9122 46.3171C68.2939 46.2412 67.7287 45.9052 67.3611 45.3952C66.2143 43.8037 64.6546 42.5692 62.8507 41.8251C62.2352 41.5714 61.5306 41.8645 61.2769 42.4799C61.0231 43.0954 61.3162 43.8 61.9316 44.0538C63.3202 44.6264 64.5213 45.5776 65.4054 46.8045C66.1645 47.8578 67.3356 48.5523 68.6184 48.7098L85.181 50.7435C86.8113 50.9437 87.9749 52.4329 87.7745 54.063L85.9436 68.9756L84.1168 68.7512L84.405 66.404C84.6438 64.4574 83.2546 62.6793 81.308 62.4403L57.8553 59.5607C55.6517 59.29 53.704 58.1629 52.3709 56.3867C51.0386 54.6117 50.5012 52.424 50.8578 50.2266C51.4311 46.6936 54.3217 43.9268 57.8871 43.4982C58.5479 43.4188 59.0195 42.8187 58.9399 42.1577C58.8605 41.4968 58.2599 41.0248 57.5994 41.1048C52.9734 41.6607 49.2225 45.2532 48.4781 49.8406C48.0157 52.691 48.7134 55.5297 50.4428 57.834C51.9293 59.8143 54.0054 61.1707 56.3743 61.737L54.7014 75.3569C54.4785 77.1708 54.6021 78.9803 55.0688 80.7346C55.2123 81.2742 55.6998 81.6305 56.2329 81.6305C56.3354 81.6305 56.4397 81.6173 56.5435 81.5896C57.1869 81.4185 57.5697 80.7583 57.3985 80.1149C57.0114 78.6595 56.909 77.1577 57.0941 75.6506L58.7583 62.1003L81.0141 64.8329C81.6413 64.9099 82.0891 65.483 82.0121 66.1102L81.5769 69.6538C81.538 69.971 81.6267 70.2909 81.8234 70.5429C82.0203 70.7947 82.3091 70.9581 82.6263 70.997L86.0724 71.4202C86.2189 71.4382 86.3607 71.4756 86.4952 71.5283C87.2452 71.8171 87.6993 72.5733 87.6006 73.3767C87.4924 74.256 86.7451 74.9189 85.8623 74.9189C85.7934 74.9189 85.7185 74.9143 85.6447 74.9054L82.199 74.4811C81.8816 74.4419 81.5618 74.5308 81.3098 74.7275C81.0578 74.9242 80.8943 75.213 80.8553 75.5304L80.4872 78.5231C80.1036 81.6477 78.5262 84.4357 76.0458 86.3739C73.5655 88.312 70.4798 89.1686 67.3549 88.7845C65.7154 88.5836 64.17 88.056 62.7615 87.2162C61.3995 86.4043 60.2317 85.3429 59.2909 84.0619C58.8968 83.5253 58.1425 83.41 57.606 83.804C57.0695 84.198 56.954 84.9524 57.3481 85.4889C58.4808 87.0311 59.8868 88.3089 61.5274 89.2869C63.2257 90.2994 65.0879 90.9355 67.0617 91.1772C67.6499 91.2495 68.2365 91.2852 68.8199 91.2852C71.9686 91.2852 75.0097 90.2431 77.5304 88.2734C80.5183 85.9387 82.4182 82.5803 82.8803 78.817L83.1011 77.021C85.2527 77.2766 85.4202 77.3295 85.8625 77.3295C87.9606 77.3295 89.7366 75.7567 89.9934 73.6707C90.1842 72.1153 89.5012 70.6335 88.2751 69.7666L90.167 54.3566C90.3428 52.9279 89.9513 51.5163 89.065 50.3818Z" fill="white"/>
<path d="M72.0008 24.4724C72.6664 24.4724 73.2061 23.9328 73.2061 23.2671V20.3165C73.2061 19.6509 72.6664 19.1112 72.0008 19.1112C71.3351 19.1112 70.7954 19.6509 70.7954 20.3165V23.2671C70.7954 23.9328 71.3351 24.4724 72.0008 24.4724Z" fill="white"/>
<path d="M72.0008 33.5423C72.6664 33.5423 73.2061 33.0026 73.2061 32.337V29.3864C73.2061 28.7207 72.6664 28.1811 72.0008 28.1811C71.3351 28.1811 70.7954 28.7207 70.7954 29.3864V32.337C70.7954 33.0026 71.3351 33.5423 72.0008 33.5423Z" fill="white"/>
<path d="M75.0603 27.5323H78.0109C78.6765 27.5323 79.2162 26.9926 79.2162 26.3269C79.2162 25.6613 78.6765 25.1216 78.0109 25.1216H75.0603C74.3947 25.1216 73.855 25.6613 73.855 26.3269C73.855 26.9926 74.3947 27.5323 75.0603 27.5323Z" fill="white"/>
<path d="M65.9905 27.5323H68.941C69.6067 27.5323 70.1464 26.9926 70.1464 26.3269C70.1464 25.6613 69.6067 25.1216 68.941 25.1216H65.9905C65.3248 25.1216 64.7852 25.6613 64.7852 26.3269C64.7852 26.9926 65.3248 27.5323 65.9905 27.5323Z" fill="white"/>
<path d="M28.9348 66.7421C28.2692 66.7421 27.7295 67.2817 27.7295 67.9474V70.8979C27.7295 71.5636 28.2692 72.1033 28.9348 72.1033C29.6005 72.1033 30.1402 71.5636 30.1402 70.8979V67.9474C30.1402 67.2817 29.6005 66.7421 28.9348 66.7421Z" fill="white"/>
<path d="M28.9348 75.8122C28.2692 75.8122 27.7295 76.3519 27.7295 77.0176V79.9681C27.7295 80.6338 28.2692 81.1735 28.9348 81.1735C29.6005 81.1735 30.1402 80.6338 30.1402 79.9681V77.0176C30.1402 76.3518 29.6005 75.8122 28.9348 75.8122Z" fill="white"/>
<path d="M34.9449 72.7524H31.9944C31.3287 72.7524 30.7891 73.2921 30.7891 73.9578C30.7891 74.6235 31.3287 75.1631 31.9944 75.1631H34.9449C35.6106 75.1631 36.1503 74.6235 36.1503 73.9578C36.1503 73.2921 35.6108 72.7524 34.9449 72.7524Z" fill="white"/>
<path d="M25.875 72.7524H22.9246C22.2589 72.7524 21.7192 73.2921 21.7192 73.9578C21.7192 74.6235 22.2589 75.1631 22.9246 75.1631H25.8751C26.5408 75.1631 27.0805 74.6235 27.0805 73.9578C27.0805 73.2921 26.5406 72.7524 25.875 72.7524Z" fill="white"/>
</svg>
