<?xml version="1.0" standalone="yes"?>
<svg width="49" height="35" viewBox="0 0 49 35" fill="none" xmlns="http://www.w3.org/2000/svg">
<path d="M45.0089 0H3.99065C2.14123 0 0.63623 1.50499 0.63623 3.35442V31.6454C0.63623 33.4949 2.14123 34.9999 3.99065 34.9999H45.0089C46.8583 34.9999 48.3633 33.4949 48.3633 31.6454V3.35442C48.3633 1.50499 46.8583 0 45.0089 0ZM46.7724 31.6454C46.7724 32.6175 45.9818 33.409 45.0089 33.409H3.99065C3.01781 33.409 2.22713 32.6175 2.22713 31.6454V3.35442C2.22713 2.38238 3.01781 1.5909 3.99065 1.5909H45.0089C45.9818 1.5909 46.7724 2.38238 46.7724 3.35442V31.6454Z" fill="#212322"/>
<path d="M13.3637 23.0679H6.20463C5.76475 23.0679 5.40918 23.4242 5.40918 23.8633C5.40918 24.3024 5.76475 24.6588 6.20463 24.6588H13.3637C13.8036 24.6588 14.1591 24.3024 14.1591 23.8633C14.1591 23.4242 13.8036 23.0679 13.3637 23.0679Z" fill="#212322"/>
<path d="M23.7045 23.0679H16.5455C16.1056 23.0679 15.75 23.4242 15.75 23.8633C15.75 24.3024 16.1056 24.6588 16.5455 24.6588H23.7045C24.1444 24.6588 24.5 24.3024 24.5 23.8633C24.5 23.4242 24.1444 23.0679 23.7045 23.0679Z" fill="#212322"/>
<path d="M7.00008 27.0454H6.20463C5.76475 27.0454 5.40918 27.4018 5.40918 27.8409C5.40918 28.28 5.76475 28.6363 6.20463 28.6363H7.00008C7.43997 28.6363 7.79553 28.28 7.79553 27.8409C7.79553 27.4018 7.43997 27.0454 7.00008 27.0454Z" fill="#212322"/>
<path d="M11.7726 27.0454H10.1817C9.7418 27.0454 9.38623 27.4018 9.38623 27.8409C9.38623 28.28 9.7418 28.6363 10.1817 28.6363H11.7726C12.2125 28.6363 12.568 28.28 12.568 27.8409C12.568 27.4018 12.2125 27.0454 11.7726 27.0454Z" fill="#212322"/>
<path d="M15.7501 27.0454H14.9546C14.5147 27.0454 14.1592 27.4018 14.1592 27.8409C14.1592 28.28 14.5147 28.6363 14.9546 28.6363H15.7501C16.19 28.6363 16.5455 28.28 16.5455 27.8409C16.5455 27.4018 16.19 27.0454 15.7501 27.0454Z" fill="#212322"/>
<path d="M20.5226 27.0454H18.9317C18.4918 27.0454 18.1362 27.4018 18.1362 27.8409C18.1362 28.28 18.4918 28.6363 18.9317 28.6363H20.5226C20.9625 28.6363 21.318 28.28 21.318 27.8409C21.318 27.4018 20.9625 27.0454 20.5226 27.0454Z" fill="#212322"/>
<path d="M23.1394 27.2759C22.9954 27.427 22.9087 27.6339 22.9087 27.8407C22.9087 28.0475 22.9954 28.2543 23.1394 28.4054C23.2897 28.5486 23.4973 28.6361 23.7041 28.6361C23.911 28.6361 24.1178 28.5486 24.2689 28.4054C24.4121 28.2543 24.4996 28.0475 24.4996 27.8407C24.4996 27.6339 24.4121 27.427 24.2689 27.2759C23.9666 26.9816 23.4249 26.9816 23.1394 27.2759Z" fill="#212322"/>
<path d="M38.818 19.8862C37.803 19.8862 36.854 20.1638 36.0339 20.6395C35.2138 20.1638 34.2648 19.8862 33.2498 19.8862C30.1802 19.8862 27.6816 22.3839 27.6816 25.4544C27.6816 28.5248 30.1802 31.0226 33.2498 31.0226C34.2648 31.0226 35.2138 30.7449 36.0339 30.2693C36.854 30.7449 37.803 31.0226 38.818 31.0226C41.8876 31.0226 44.3861 28.5248 44.3861 25.4544C44.3861 22.3839 41.8876 19.8862 38.818 19.8862ZM37.2271 25.4544C37.2271 26.5633 36.7689 27.5655 36.0339 28.2878C35.2989 27.5655 34.8407 26.5633 34.8407 25.4544C34.8407 24.3455 35.2989 23.3433 36.0339 22.621C36.7689 23.3433 37.2271 24.3455 37.2271 25.4544ZM29.2725 25.4544C29.2725 23.2613 31.0567 21.4771 33.2498 21.4771C33.7517 21.4771 34.2282 21.5805 34.6713 21.7516C33.7907 22.7363 33.2498 24.0321 33.2498 25.4544C33.2498 26.8767 33.7907 28.1725 34.6713 29.1572C34.2282 29.3282 33.7517 29.4317 33.2498 29.4317C31.0567 29.4317 29.2725 27.6475 29.2725 25.4544ZM38.818 29.4317C38.316 29.4317 37.8396 29.3282 37.3965 29.1572C38.2771 28.1725 38.818 26.8767 38.818 25.4544C38.818 24.0321 38.2771 22.7363 37.3965 21.7516C37.8396 21.5805 38.316 21.4771 38.818 21.4771C41.011 21.4771 42.7952 23.2613 42.7952 25.4544C42.7952 27.6475 41.011 29.4317 38.818 29.4317Z" fill="#212322"/>
<path d="M7.20292 17.5001H11.9756H13.1609H17.9336C18.9223 17.5001 19.7273 16.6951 19.7273 15.7063V9.34274V8.15751C19.7273 7.16877 18.9223 6.36377 17.9336 6.36377H11.9756H7.20292C6.21418 6.36377 5.40918 7.16877 5.40918 8.15751V15.7063C5.40918 16.6951 6.21418 17.5001 7.20292 17.5001ZM10.1819 12.7274H7.00008V11.1365H10.1819V12.7274ZM7.00008 15.7063V14.3183H10.1819V15.7063C10.1819 15.7756 10.1946 15.8416 10.2026 15.9092H7.20292C7.09076 15.9092 7.00008 15.8185 7.00008 15.7063ZM18.1364 12.7274H14.9546V11.3393C14.9546 11.2272 15.0453 11.1365 15.1574 11.1365H17.9336C18.0028 11.1365 18.0688 11.1238 18.1364 11.1158V12.7274ZM17.9336 15.9092H14.9339C14.9419 15.8416 14.9546 15.7756 14.9546 15.7063V14.3183H18.1364V15.7063C18.1364 15.8185 18.0457 15.9092 17.9336 15.9092ZM17.9336 7.95467C18.0457 7.95467 18.1364 8.04535 18.1364 8.15751V9.34274C18.1364 9.45489 18.0457 9.54558 17.9336 9.54558H15.1574C14.1687 9.54558 13.3637 10.3506 13.3637 11.3393V15.7063C13.3637 15.8185 13.273 15.9092 13.1609 15.9092H11.9756C11.8635 15.9092 11.7728 15.8185 11.7728 15.7063V8.15751C11.7728 8.04535 11.8635 7.95467 11.9756 7.95467H17.9336ZM7.20292 7.95467H10.2026C10.1946 8.02229 10.1819 8.08831 10.1819 8.15751V9.54558H7.00008V8.15751C7.00008 8.04535 7.09076 7.95467 7.20292 7.95467Z" fill="#212322"/>
</svg>
