<svg width="100" height="100" viewBox="0 0 100 100" fill="none" xmlns="http://www.w3.org/2000/svg">
<path d="M82.7864 47.3669L78.37 35.4031L82.7864 23.4398C82.8671 23.2213 82.8781 22.9868 82.8236 22.7668C82.8234 22.7658 82.8234 22.7649 82.8233 22.764L81.4726 17.3611C80.5362 13.6158 77.1861 11 73.3254 11H70.3152C69.6812 11 69.1674 11.514 69.1674 12.1478C69.1674 12.7816 69.6812 13.2956 70.3152 13.2956H73.3254C76.1307 13.2956 78.5652 15.1962 79.2453 17.9178L80.2395 21.8946H58.2352C56.9351 18.3218 53.5267 15.896 49.6546 15.896C45.7824 15.896 42.3739 18.3219 41.0739 21.8946H19.0694L20.0635 17.9178C20.744 15.1962 23.1783 13.2956 25.9836 13.2956H66.489C67.123 13.2956 67.6368 12.7816 67.6368 12.1478C67.6368 11.514 67.123 11 66.4891 11H25.9836C22.123 11 18.7727 13.6158 17.8364 17.361L16.4865 22.7613C16.4863 22.7618 16.4862 22.7622 16.4862 22.7627L16.4859 22.7639C16.4857 22.7643 16.4859 22.7646 16.4857 22.7651C16.4308 22.9856 16.4418 23.2205 16.5225 23.4397L20.939 35.403L16.5225 47.3667C16.5209 47.3712 16.5209 47.3764 16.5194 47.3809C16.4767 47.501 16.4522 47.63 16.4522 47.7648V87.1378C16.4522 87.7716 16.9662 88.2856 17.6 88.2856H81.7088C82.3428 88.2856 82.8566 87.7716 82.8566 87.1378V69.063C82.8566 68.4292 82.3428 67.9152 81.7088 67.9152C81.0748 67.9152 80.561 68.4292 80.561 69.063V72.5308C73.1007 72.7661 67.0328 78.6188 66.4573 85.9901H32.8508C32.2754 78.619 26.2077 72.7664 18.7477 72.5308V48.9127H26.0861C26.7199 48.9127 27.2339 48.3987 27.2339 47.7649C27.2339 47.1311 26.7199 46.6171 26.0861 46.6171H19.2463L22.9622 36.5509H27.2576C27.8914 36.5509 28.4054 36.0369 28.4054 35.4031C28.4054 34.7693 27.8914 34.2553 27.2576 34.2553H22.9623L19.2466 24.19H57.3901C57.3904 24.19 57.3907 24.19 57.391 24.19C57.3914 24.19 57.3917 24.19 57.3922 24.19H80.0623L76.3465 34.2553H72.051C71.417 34.2553 70.9032 34.7693 70.9032 35.4031C70.9032 36.0369 71.417 36.5509 72.051 36.5509H76.3465L80.0624 46.6171H57.6479C57.6459 46.6171 57.644 46.6168 57.6419 46.6168H41.667C41.665 46.6168 41.663 46.6171 41.6609 46.6171H29.9123C29.2785 46.6171 28.7645 47.1311 28.7645 47.7649C28.7645 48.3987 29.2785 48.9127 29.9123 48.9127H40.5192V60.0817C40.5192 65.1189 44.6173 69.2171 49.6546 69.2171C54.6919 69.2171 58.7898 65.119 58.7898 60.0817V48.9127H80.5612V65.2368C80.5612 65.8706 81.075 66.3846 81.709 66.3846C82.343 66.3846 82.8568 65.8706 82.8568 65.2368V47.7649C82.8568 47.6303 82.8325 47.5015 82.7898 47.3815C82.7881 47.3768 82.7883 47.3717 82.7864 47.3669ZM80.561 74.83V85.9901H68.7633C69.3303 79.8863 74.3674 75.0622 80.561 74.83ZM30.5448 85.9901H18.7478V74.83C24.9411 75.0625 29.978 79.8865 30.5448 85.9901ZM49.6544 18.1915C52.2596 18.1915 54.5843 19.6575 55.7352 21.8944H43.5738C44.7247 19.6575 47.0492 18.1915 49.6544 18.1915ZM56.4941 60.0817C56.4941 63.8532 53.4257 66.9215 49.6544 66.9215C45.883 66.9215 42.8148 63.8532 42.8148 60.0817V48.9127H56.4941V60.0817Z" fill="white"/>
<path d="M71.6393 43.7236C71.9348 44.2844 72.6289 44.4996 73.1896 44.2042C73.7506 43.9087 73.9657 43.2146 73.6704 42.6538C68.9598 33.7116 59.7576 28.1567 49.6548 28.1567C39.5519 28.1567 30.3495 33.7116 25.6393 42.6538C25.3439 43.2148 25.5592 43.909 26.1199 44.2042C26.2905 44.294 26.4736 44.3368 26.6538 44.3368C27.0661 44.3368 27.4647 44.114 27.6703 43.7236C31.9825 35.5374 40.4065 30.4522 49.6549 30.4522C58.903 30.4522 67.3271 35.5377 71.6393 43.7236Z" fill="white"/>
<path d="M54.8923 43.2888C55.5263 43.2888 56.0401 42.7748 56.0401 42.141C56.0401 40.5212 57.3579 39.2034 58.9778 39.2034C60.5976 39.2034 61.9152 40.5212 61.9152 42.141C61.9152 42.7748 62.429 43.2888 63.063 43.2888C63.697 43.2888 64.2108 42.7748 64.2108 42.141C64.2108 39.2554 61.8631 36.9077 58.9778 36.9077C58.2232 36.9077 57.5062 37.0696 56.8574 37.3583C56.1997 35.2195 54.2058 33.6604 51.8543 33.6604C48.9688 33.6604 46.6211 36.0081 46.6211 38.8936C46.6211 39.5275 47.1351 40.0414 47.7689 40.0414C48.4027 40.0414 48.9167 39.5275 48.9167 38.8936C48.9167 37.2738 50.2345 35.956 51.8543 35.956C53.4742 35.956 54.7919 37.2738 54.7919 38.8936C54.7919 38.9285 54.7941 38.9629 54.7971 38.9969C54.1365 39.8728 53.7444 40.9618 53.7444 42.141C53.7445 42.7748 54.2585 43.2888 54.8923 43.2888Z" fill="white"/>
<path d="M34.6587 42.1412C34.6587 42.7751 35.1727 43.2891 35.8065 43.2891C36.4403 43.2891 36.9543 42.7751 36.9543 42.1412C36.9543 40.5214 38.2721 39.2036 39.8919 39.2036C41.5118 39.2036 42.8295 40.5214 42.8295 42.1412C42.8295 42.7751 43.3435 43.2891 43.9774 43.2891C44.6112 43.2891 45.1252 42.7751 45.1252 42.1412C45.1252 39.2557 42.7775 36.908 39.8919 36.908C37.0064 36.908 34.6587 39.2556 34.6587 42.1412Z" fill="white"/>
<path d="M22.1836 53.6934V70.8035C22.1836 71.4373 22.6976 71.9513 23.3314 71.9513C23.9652 71.9513 24.4792 71.4373 24.4792 70.8035V54.8413H36.2958C36.9296 54.8413 37.4436 54.3273 37.4436 53.6934C37.4436 53.0596 36.9296 52.5456 36.2958 52.5456H23.3314C22.6976 52.5456 22.1836 53.0596 22.1836 53.6934Z" fill="white"/>
<path d="M34.35 82.3584H65.2643C65.8982 82.3584 66.4121 81.8444 66.4121 81.2106C66.4121 80.5767 65.8982 80.0627 65.2643 80.0627H34.35C33.7161 80.0627 33.2021 80.5767 33.2021 81.2106C33.2021 81.8445 33.7161 82.3584 34.35 82.3584Z" fill="white"/>
<path d="M75.9778 71.9515C76.6118 71.9515 77.1256 71.4375 77.1256 70.8036V53.6936C77.1256 53.0598 76.6118 52.5458 75.9778 52.5458H63.0135C62.3796 52.5458 61.8657 53.0598 61.8657 53.6936C61.8657 54.3275 62.3796 54.8414 63.0135 54.8414H74.83V70.8036C74.83 71.4376 75.3438 71.9515 75.9778 71.9515Z" fill="white"/>
<path d="M49.6543 63.6652C51.8494 63.6652 53.6353 61.8793 53.6353 59.6843C53.6353 57.4892 51.8496 55.7033 49.6543 55.7033C47.4592 55.7033 45.6733 57.4892 45.6733 59.6843C45.6733 61.8793 47.4592 63.6652 49.6543 63.6652ZM49.6543 57.9989C50.5835 57.9989 51.3396 58.7549 51.3396 59.6843C51.3396 60.6136 50.5837 61.3696 49.6543 61.3696C48.7251 61.3696 47.969 60.6135 47.969 59.6843C47.969 58.755 48.7249 57.9989 49.6543 57.9989Z" fill="white"/>
</svg>
