<?xml version="1.0" encoding="UTF-8" standalone="no"?>
<svg
   xmlns:dc="http://purl.org/dc/elements/1.1/"
   xmlns:cc="http://creativecommons.org/ns#"
   xmlns:rdf="http://www.w3.org/1999/02/22-rdf-syntax-ns#"
   xmlns:svg="http://www.w3.org/2000/svg"
   xmlns="http://www.w3.org/2000/svg"
   xmlns:sodipodi="http://sodipodi.sourceforge.net/DTD/sodipodi-0.dtd"
   xmlns:inkscape="http://www.inkscape.org/namespaces/inkscape"
   width="84"
   height="14"
   viewBox="0 0 84 14"
   fill="none"
   version="1.1"
   id="svg60"
   sodipodi:docname="utc.svg"
   inkscape:version="0.92.3 (2405546, 2018-03-11)">
  <metadata
     id="metadata66">
    <rdf:RDF>
      <cc:Work
         rdf:about="">
        <dc:format>image/svg+xml</dc:format>
        <dc:type
           rdf:resource="http://purl.org/dc/dcmitype/StillImage" />
        <dc:title></dc:title>
      </cc:Work>
    </rdf:RDF>
  </metadata>
  <defs
     id="defs64">
    <clipPath
       clipPathUnits="userSpaceOnUse"
       id="clipPath81">
      <rect
         style="fill:#7ac138;fill-opacity:1"
         id="rect83"
         width="38.437355"
         height="12.943191"
         x="47.066147"
         y="2.4949417" />
    </clipPath>
  </defs>
  <sodipodi:namedview
     pagecolor="#ffffff"
     bordercolor="#666666"
     borderopacity="1"
     objecttolerance="10"
     gridtolerance="10"
     guidetolerance="10"
     inkscape:pageopacity="0"
     inkscape:pageshadow="2"
     inkscape:window-width="1853"
     inkscape:window-height="1025"
     id="namedview62"
     showgrid="false"
     inkscape:zoom="7.6488095"
     inkscape:cx="52.836429"
     inkscape:cy="15.04432"
     inkscape:window-x="67"
     inkscape:window-y="27"
     inkscape:window-maximized="1"
     inkscape:current-layer="svg60" />
  <path
     d="m 3.6063293,1.2347515 v 1.177735 c 0,0.60644 -0.3252,0.85254 -0.95801,0.85254 H 0.38073928 v 0.67676 H 3.5799593 v 9.7119095 h 0.85254 V 1.2347515 Z m 5.01855,0 v 0.799805 H 16.49114 L 10.250839,13.653696 h 0.958 L 17.48424,1.8236165 V 1.2347515 Z M 20.05064,7.0706865 h 0.8965 v -1.80176 h -0.8965 z m 0,6.5830095 h 0.8965 v -1.8018 h -0.8965 z m 8.3233,0.123 c 3.0058,0 4.2802,-3.16402 4.2802,-6.3017095 0,-3.17285 -1.3007,-6.38086 -4.4033,-6.38086 -3.4189,0 -4.3066,3.60352 -4.3066,6.3457 0,2.7158195 0.914,6.3368695 4.4297,6.3368695 z m -0.0176,-0.8261 c -2.8213,0 -3.5596,-3.0322495 -3.5596,-5.5107695 0,-2.49609 0.7295,-5.51074 3.4541,-5.51074 2.5401,0 3.5156,2.75098 3.5156,5.52832 0,2.7421895 -0.958,5.4931895 -3.4101,5.4931895 z m 9.9316,0.8261 c 3.0059,0 4.2803,-3.16402 4.2803,-6.3017095 0,-3.17285 -1.3008,-6.38086 -4.4033,-6.38086 -3.419,0 -4.3067,3.60352 -4.3067,6.3457 0,2.7158195 0.9141,6.3368695 4.4297,6.3368695 z m -0.0176,-0.8261 c -2.8212,0 -3.5595,-3.0322495 -3.5595,-5.5107695 0,-2.49609 0.7295,-5.51074 3.4541,-5.51074 2.54,0 3.5156,2.75098 3.5156,5.52832 0,2.7421895 -0.958,5.4931895 -3.4102,5.4931895 z m 13.7198,0.7851 c 1.9277,0 2.9062,-1.1836 2.9062,-3.21091 V 5.3743965 h -0.5742 v 5.1152395 c 0,1.72266 -0.7441,2.68356 -2.332,2.68356 -1.5703,0 -2.3086,-0.9433 -2.3086,-2.64255 V 5.3743965 h -0.5742 v 5.2089895 c 0,1.98051 0.9668,3.15231 2.8828,3.15231 z m 7.6054,-0.082 h 0.5743 V 5.8958865 h 2.9824 v -0.52149 h -6.5508 v 0.52149 h 2.9941 z m 8.2969,0.082 c 1.5996,0 2.7188,-0.7617 3.3633,-2.2148 l -0.5391,-0.2168 c -0.5449,1.2715 -1.4472,1.875 -2.8242,1.875 -2.1797,0 -3.0937,-1.6172 -3.0937,-3.7031295 0,-2.23829 1.0722,-3.63282 3.1523,-3.63282 1.4121,0 2.3027,0.56836 2.7481,1.85743 l 0.5449,-0.2168 c -0.5801,-1.46485 -1.6524,-2.19141 -3.2871,-2.19141 -2.4492,0 -3.7324,1.68164 -3.7324,4.20703 0,2.5136995 1.2773,4.2362995 3.6679,4.2362995 z m 7.6055,-0.7617 h 0.4394 v -2.76561 h 2.7657 V 9.7630765 h -2.7657 v -2.76563 h -0.4394 v 2.76563 h -2.7656 v 0.4453095 h 2.7656 z m 7.6933,-7.5995995 v 0.78516 c 0,0.4043 -0.2167,0.56836 -0.6386,0.56836 h -1.5117 v 0.45117 h 2.1328 v 6.4746095 h 0.5683 V 5.3743965 Z"
     id="path58"
     inkscape:connector-curvature="0"
     style="fill:#212322"
     clip-path="url(#clipPath81)"
     transform="matrix(1.4099428,0,0,1.4099428,-51.456297,-5.9908769)" />
</svg>
