<svg width="151" height="151" viewBox="0 0 151 151" fill="none" xmlns="http://www.w3.org/2000/svg">
<g clip-path="url(#clip0)">
<path d="M17.0484 137.605V142.476H2.43555V79.1533H17.0484V137.605Z" fill="#D9017A"/>
<path d="M34.0967 124.795V137.605H17.0483V84.0242H34.0967V96.8342C29.6646 99.9036 26.7903 105.018 26.7903 110.814C26.7903 116.611 29.6646 121.725 34.0967 124.795Z" fill="#FAB6DC"/>
<path d="M141.258 101.073C145.301 101.073 148.564 104.336 148.564 108.379C148.564 110.401 147.737 112.227 146.422 113.543C145.106 114.858 143.28 115.686 141.258 115.686C145.301 115.686 148.564 118.949 148.564 122.992C148.564 125.014 147.737 126.84 146.422 128.156C145.106 129.471 143.28 130.298 141.258 130.298C145.301 130.298 148.564 133.562 148.564 137.605C148.564 139.627 147.737 141.453 146.422 142.768C145.106 144.084 143.28 144.911 141.258 144.911H96.1778C95.3976 144.911 94.5937 144.814 93.8148 144.619L66.927 137.897C66.148 137.702 65.3441 137.605 64.564 137.605H53.5806V124.795C58.0127 121.726 60.887 116.611 60.887 110.815C60.887 105.018 58.0127 99.9037 53.5806 96.8344V84.0243H63.4688C64.9791 84.0243 66.4644 83.683 67.8034 83.0016L92.9384 70.4341C94.2774 69.7527 95.7627 69.4114 97.273 69.4114H121.774C131.2 69.4114 138.823 77.0342 138.823 86.4598H141.258C145.301 86.4598 148.564 89.7229 148.564 93.7662C148.564 95.7879 147.737 97.6145 146.422 98.9297C145.106 100.245 143.28 101.073 141.258 101.073Z" fill="#FAB6DC"/>
<path d="M53.5805 137.605V140.04C53.5805 141.379 52.4841 142.476 51.1451 142.476H36.5322C35.1931 142.476 34.0967 141.379 34.0967 140.04V124.795C36.8485 126.743 40.2092 127.863 43.8386 127.863C47.4681 127.863 50.8287 126.743 53.5805 124.795V137.605Z" fill="#FDDA24"/>
<path d="M53.5805 84.0243V96.8344C50.8287 94.8865 47.4681 93.7662 43.8386 93.7662C40.2092 93.7662 36.8485 94.8865 34.0967 96.8344V81.5888C34.0967 80.2498 35.1931 79.1533 36.5322 79.1533H51.1451C52.4841 79.1533 53.5805 80.2498 53.5805 81.5888V84.0243Z" fill="#FDDA24"/>
<path d="M43.8384 93.7661C47.4679 93.7661 50.8285 94.8863 53.5804 96.8343C58.0125 99.9036 60.8868 105.018 60.8868 110.815C60.8868 116.611 58.0125 121.725 53.5804 124.795C50.8285 126.743 47.4679 127.863 43.8384 127.863C40.209 127.863 36.8483 126.743 34.0965 124.795C29.6643 121.725 26.79 116.611 26.79 110.815C26.79 105.018 29.6643 99.9036 34.0965 96.8343C36.8483 94.8863 40.209 93.7661 43.8384 93.7661Z" fill="#F2F0E8"/>
<path d="M133.383 10.9596V40.1854C133.383 42.8647 131.192 45.0564 128.512 45.0564H77.0426L57.5587 59.6693V45.0564H18.185C15.5058 45.0564 13.3141 42.8647 13.3141 40.1854V10.9596C13.3141 8.28032 15.5058 6.08862 18.185 6.08862H128.512C131.192 6.08862 133.383 8.28032 133.383 10.9596Z" fill="#F2F0E8"/>
<path d="M151 108.379C151 105.456 149.68 102.86 147.635 101.073C149.68 99.2852 151 96.6892 151 93.7662C151 88.3933 146.631 84.0242 141.258 84.0242H141.09C139.885 74.4286 131.691 66.9758 121.774 66.9758H97.2826C95.4025 66.9758 93.52 67.4218 91.8372 68.2614L66.7249 80.8169C65.7164 81.3235 64.5867 81.5887 63.4593 81.5887H56.0161C56.0161 78.9023 53.8316 76.7178 51.1452 76.7178H36.5323C33.8459 76.7178 31.6613 78.9023 31.6613 81.5887H19.4839V76.7178H0V144.911H19.4839V140.04H31.6613C31.6613 142.727 33.8459 144.911 36.5323 144.911H51.1452C53.8316 144.911 56.0161 142.727 56.0161 140.04H64.5594C65.1563 140.04 65.7509 140.113 66.3301 140.259L93.2274 146.982C94.1919 147.226 95.186 147.347 96.1826 147.347H141.258C146.631 147.347 151 142.978 151 137.605C151 134.682 149.68 132.086 147.635 130.298C149.68 128.511 151 125.915 151 122.992C151 120.069 149.68 117.473 147.635 115.686C149.68 113.898 151 111.302 151 108.379V108.379ZM43.8387 125.427C35.7795 125.427 29.2258 118.874 29.2258 110.815C29.2258 102.755 35.7795 96.2016 43.8387 96.2016C51.8979 96.2016 58.4516 102.755 58.4516 110.815C58.4516 118.874 51.8979 125.427 43.8387 125.427ZM51.1452 81.5887V92.7649C48.8881 91.8468 46.4228 91.3307 43.8387 91.3307C41.2546 91.3307 38.7894 91.8468 36.5323 92.7649V81.5887H51.1452ZM14.6129 140.04H4.87097V81.5887H14.6129V140.04ZM19.4839 135.169V86.4597H31.6613V95.6296C27.2137 99.2044 24.3548 104.677 24.3548 110.815C24.3548 116.952 27.2137 122.427 31.6613 125.999V135.169H19.4839ZM36.5323 140.04V128.864C38.7894 129.782 41.2546 130.298 43.8387 130.298C46.4228 130.298 48.8881 129.782 51.1452 128.864V140.04H36.5323ZM141.258 118.121C143.944 118.121 146.129 120.306 146.129 122.992C146.129 125.678 143.944 127.863 141.258 127.863H99.8548V132.734H141.258C143.944 132.734 146.129 134.918 146.129 137.605C146.129 140.291 143.944 142.476 141.258 142.476H96.1826C95.5856 142.476 94.991 142.403 94.4119 142.257L67.5145 135.534C66.5501 135.291 65.5559 135.169 64.5594 135.169H56.0161V125.999C60.4637 122.425 63.3226 116.952 63.3226 110.815C63.3226 104.677 60.4637 99.202 56.0161 95.6296V86.4597H63.4593C65.3395 86.4597 67.222 86.0138 68.9047 85.1742L94.0171 72.6186C95.0255 72.112 96.1552 71.8468 97.2826 71.8468H121.774C129 71.8468 135.002 77.1245 136.168 84.0242H99.8548V88.8952H141.258C143.944 88.8952 146.129 91.0798 146.129 93.7662C146.129 96.4526 143.944 98.6371 141.258 98.6371H99.8548V103.508H141.258C143.944 103.508 146.129 105.693 146.129 108.379C146.129 111.065 143.944 113.25 141.258 113.25H99.8548V118.121H141.258Z" fill="#212322"/>
<path d="M46.2743 101.073H41.4033V113.25H51.1453V108.379H46.2743V101.073Z" fill="#212322"/>
<path d="M19.0779 47.492H56.0161V64.5404L78.7465 47.492H128.593C132.621 47.492 135.9 44.2134 135.9 40.1856V10.9598C135.9 6.93195 132.621 3.65332 128.593 3.65332H19.0779C15.0501 3.65332 11.7715 6.93195 11.7715 10.9598V40.1856C11.7715 44.2134 15.0501 47.492 19.0779 47.492ZM16.6425 10.9598C16.6425 9.61835 17.7365 8.52429 19.0779 8.52429H128.593C129.935 8.52429 131.029 9.61835 131.029 10.9598V40.1856C131.029 41.527 129.935 42.6211 128.593 42.6211H77.1244L60.8871 54.7985V42.6211H19.0779C17.7365 42.6211 16.6425 41.527 16.6425 40.1856V10.9598Z" fill="#212322"/>
<path d="M22.6499 20.1556V35.2333H25.3318V20.1221L22.6499 20.1556ZM22.6499 12.5833V17.0395H25.3318V12.5833H22.6499Z" fill="#212322"/>
<path d="M42.6584 16.0344L39.0237 35.2333H33.2364L29.637 16.0344H33.0247L35.5655 32.4858H36.5888L39.0943 16.0344H42.6584Z" fill="#212322"/>
<path d="M49.6455 18.4133V24.2433H55.327V18.4133H49.6455ZM58.15 35.2333H55.327V26.6557H49.6455V35.2333H46.9636V16.0344H58.15V35.2333Z" fill="#212322"/>
<path d="M75.1238 35.2333H72.2301V18.4133H66.6193V35.2333H63.9373V16.0344H83.4518V35.2333H80.6288V18.4133H75.1238V35.2333Z" fill="#212322"/>
<path d="M91.8858 32.6198H97.5672V18.4468H91.8858V32.6198ZM89.2039 35.2333V16.0344H100.39V35.2333H89.2039Z" fill="#212322"/>
<path d="M108.86 32.7203V29.7383H106.178V35.2333L117.293 35.1997V27.0913L109.001 22.5345V18.5138H114.717V21.4958H117.364V16.0344H106.178V24.9469L114.541 29.5372V32.7203H108.86Z" fill="#212322"/>
<path d="M125.833 27.6609V12.5833H123.151V27.6944L125.833 27.6609ZM125.833 35.2333V30.777H123.151V35.2333H125.833Z" fill="#212322"/>
</g>
<defs>
<clipPath id="clip0">
<rect width="151" height="151" fill="white"/>
</clipPath>
</defs>
</svg>
